solid OpenSCAD_Model
  facet normal -0 0 -1
    outer loop
      vertex 0.0543213 -0.203369 -0.125
      vertex 0.0274048 -0.208694 -0.125
      vertex 0.00640869 -0.0487823 -0.125
    endloop
  endfacet
  facet normal 0 -0 -1
    outer loop
      vertex -0.0487823 -0.00640869 -0.125
      vertex -0.0426178 -0.0245972 -0.125
      vertex -0.302567 -0.102905 -0.125
    endloop
  endfacet
  facet normal -0 0 -1
    outer loop
      vertex 0.0274048 -0.208694 -0.125
      vertex -0.000106812 -0.210495 -0.125
      vertex 0.00640869 -0.0487823 -0.125
    endloop
  endfacet
  facet normal -0 0 -1
    outer loop
      vertex 0.582748 0.139084 -0.125
      vertex 0.439362 0 -0.125
      vertex 0.572357 0.176376 -0.125
    endloop
  endfacet
  facet normal 0 0 -1
    outer loop
      vertex -0.105133 -0.182114 -0.125
      vertex -0.286591 -0.141449 -0.125
      vertex -0.302567 -0.102905 -0.125
    endloop
  endfacet
  facet normal -0 0 -1
    outer loop
      vertex 0.00640869 -0.0487823 -0.125
      vertex -0.000106812 -0.210495 -0.125
      vertex -0.0127258 -0.0475311 -0.125
    endloop
  endfacet
  facet normal -0 0 -1
    outer loop
      vertex 0.105209 -0.182312 -0.125
      vertex 0.0804901 -0.194489 -0.125
      vertex 0.0245972 -0.0426178 -0.125
    endloop
  endfacet
  facet normal 0 -0 -1
    outer loop
      vertex 0.039032 -0.029953 -0.125
      vertex 0.148758 -0.148911 -0.125
      vertex 0.0245972 -0.0426178 -0.125
    endloop
  endfacet
  facet normal 0 0 -1
    outer loop
      vertex 0.039032 -0.029953 -0.125
      vertex 0.182251 -0.105301 -0.125
      vertex 0.166916 -0.128235 -0.125
    endloop
  endfacet
  facet normal 0 0 -1
    outer loop
      vertex 0.194427 -0.0806427 -0.125
      vertex 0.0475311 -0.0127258 -0.125
      vertex 0.203308 -0.0545197 -0.125
    endloop
  endfacet
  facet normal 0 0 -1
    outer loop
      vertex 0.194427 -0.0806427 -0.125
      vertex 0.039032 -0.029953 -0.125
      vertex 0.0475311 -0.0127258 -0.125
    endloop
  endfacet
  facet normal 0 0 -1
    outer loop
      vertex 0.0804901 -0.194489 -0.125
      vertex 0.00640869 -0.0487823 -0.125
      vertex 0.0245972 -0.0426178 -0.125
    endloop
  endfacet
  facet normal 0 0 -1
    outer loop
      vertex -0.302567 -0.102905 -0.125
      vertex -0.0426178 -0.0245972 -0.125
      vertex -0.105133 -0.182114 -0.125
    endloop
  endfacet
  facet normal 0 -0 -1
    outer loop
      vertex 0.297348 0.265945 -0.125
      vertex 0.439362 0 -0.125
      vertex 0.210281 0 -0.125
    endloop
  endfacet
  facet normal 0 -0 -1
    outer loop
      vertex 0.559586 0.213974 -0.125
      vertex 0.572357 0.176376 -0.125
      vertex 0.439362 0 -0.125
    endloop
  endfacet
  facet normal 0 -0 -1
    outer loop
      vertex 0.526901 0.285141 -0.125
      vertex 0.544418 0.249634 -0.125
      vertex 0.297348 0.265945 -0.125
    endloop
  endfacet
  facet normal 0 0 -1
    outer loop
      vertex 0.297348 0.265945 -0.125
      vertex 0.544418 0.249634 -0.125
      vertex 0.559586 0.213974 -0.125
    endloop
  endfacet
  facet normal 0 -0 -1
    outer loop
      vertex 0.485138 0.351517 -0.125
      vertex 0.507187 0.318542 -0.125
      vertex 0.297348 0.265945 -0.125
    endloop
  endfacet
  facet normal 0 0 -1
    outer loop
      vertex 0.297348 0.265945 -0.125
      vertex 0.507187 0.318542 -0.125
      vertex 0.526901 0.285141 -0.125
    endloop
  endfacet
  facet normal 0 0 -1
    outer loop
      vertex 0.297348 0.265945 -0.125
      vertex 0.559586 0.213974 -0.125
      vertex 0.439362 0 -0.125
    endloop
  endfacet
  facet normal 0 0 -1
    outer loop
      vertex 0.297348 0.265945 -0.125
      vertex 0.446259 0.399139 -0.125
      vertex 0.485138 0.351517 -0.125
    endloop
  endfacet
  facet normal 0 -0 -1
    outer loop
      vertex -0.0426178 -0.0245972 -0.125
      vertex -0.029953 -0.039032 -0.125
      vertex -0.105133 -0.182114 -0.125
    endloop
  endfacet
  facet normal 0 -0 -1
    outer loop
      vertex 0.348572 -0.267441 -0.125
      vertex 0.470551 -0.371414 -0.125
      vertex 0.310669 -0.310654 -0.125
    endloop
  endfacet
  facet normal 0 0 -1
    outer loop
      vertex 0.0127258 0.0475311 -0.125
      vertex 0.108963 0.384521 -0.125
      vertex 0.15802 0.367096 -0.125
    endloop
  endfacet
  facet normal 0 0 -1
    outer loop
      vertex 0 0.399414 -0.125
      vertex 0.0577698 0.395462 -0.125
      vertex 0.0127258 0.0475311 -0.125
    endloop
  endfacet
  facet normal 0 0 -1
    outer loop
      vertex -0.00640869 0.0487823 -0.125
      vertex 0 0.399414 -0.125
      vertex 0.0127258 0.0475311 -0.125
    endloop
  endfacet
  facet normal -0 0 -1
    outer loop
      vertex -0.0245972 0.0426178 -0.125
      vertex -0.317993 0.0278168 -0.125
      vertex 0 0.399414 -0.125
    endloop
  endfacet
  facet normal 0 0 -1
    outer loop
      vertex -0.0245972 0.0426178 -0.125
      vertex -0.039032 0.029953 -0.125
      vertex -0.317993 0.0278168 -0.125
    endloop
  endfacet
  facet normal 0 0 -1
    outer loop
      vertex 0.0127258 0.0475311 -0.125
      vertex 0.0577698 0.395462 -0.125
      vertex 0.108963 0.384521 -0.125
    endloop
  endfacet
  facet normal 0 0 -1
    outer loop
      vertex 0 0.399414 -0.125
      vertex -0.0911255 0.5923 -0.125
      vertex -0.0522919 0.596558 -0.125
    endloop
  endfacet
  facet normal 0 -0 -1
    outer loop
      vertex 0 0.598846 -0.125
      vertex 0 0.399414 -0.125
      vertex -0.0522919 0.596558 -0.125
    endloop
  endfacet
  facet normal 0 0 -1
    outer loop
      vertex 0 0.399414 -0.125
      vertex -0.167557 0.575363 -0.125
      vertex -0.0911255 0.5923 -0.125
    endloop
  endfacet
  facet normal 0 0 -1
    outer loop
      vertex 0 0.399414 -0.125
      vertex -0.241226 0.548553 -0.125
      vertex -0.167557 0.575363 -0.125
    endloop
  endfacet
  facet normal 0 0 -1
    outer loop
      vertex 0 0.399414 -0.125
      vertex -0.310776 0.51236 -0.125
      vertex -0.241226 0.548553 -0.125
    endloop
  endfacet
  facet normal 0 0 -1
    outer loop
      vertex 0 0.399414 -0.125
      vertex -0.374985 0.467438 -0.125
      vertex -0.310776 0.51236 -0.125
    endloop
  endfacet
  facet normal 0 0 -1
    outer loop
      vertex -0.317993 0.0278168 -0.125
      vertex -0.4328 0.41449 -0.125
      vertex -0.374985 0.467438 -0.125
    endloop
  endfacet
  facet normal 0 0 -1
    outer loop
      vertex -0.317993 0.0278168 -0.125
      vertex -0.483185 0.354446 -0.125
      vertex -0.4328 0.41449 -0.125
    endloop
  endfacet
  facet normal 0 0 -1
    outer loop
      vertex -0.317993 0.0278168 -0.125
      vertex -0.525299 0.288376 -0.125
      vertex -0.483185 0.354446 -0.125
    endloop
  endfacet
  facet normal 0 0 -1
    outer loop
      vertex -0.317993 0.0278168 -0.125
      vertex -0.558502 0.217239 -0.125
      vertex -0.525299 0.288376 -0.125
    endloop
  endfacet
  facet normal 0 0 -1
    outer loop
      vertex -0.317993 0.0278168 -0.125
      vertex -0.582047 0.142578 -0.125
      vertex -0.558502 0.217239 -0.125
    endloop
  endfacet
  facet normal 0 0 -1
    outer loop
      vertex -0.317993 0.0278168 -0.125
      vertex -0.595688 0.0653229 -0.125
      vertex -0.582047 0.142578 -0.125
    endloop
  endfacet
  facet normal 0 0 -1
    outer loop
      vertex -0.317993 0.0278168 -0.125
      vertex -0.596558 0.0521851 -0.125
      vertex -0.595688 0.0653229 -0.125
    endloop
  endfacet
  facet normal 0 0 -1
    outer loop
      vertex 0.267471 -0.348557 -0.125
      vertex 0.310669 -0.310654 -0.125
      vertex 0.417999 -0.429733 -0.125
    endloop
  endfacet
  facet normal 0 0 -1
    outer loop
      vertex -0.26149 -0.18309 -0.125
      vertex -0.45871 -0.384949 -0.125
      vertex -0.49054 -0.343475 -0.125
    endloop
  endfacet
  facet normal -0 0 -1
    outer loop
      vertex 0 0.399414 -0.125
      vertex -0.317993 0.0278168 -0.125
      vertex -0.374985 0.467438 -0.125
    endloop
  endfacet
  facet normal 0 0 -1
    outer loop
      vertex 0.358353 -0.480591 -0.125
      vertex 0.267471 -0.348557 -0.125
      vertex 0.417999 -0.429733 -0.125
    endloop
  endfacet
  facet normal 0 0 -1
    outer loop
      vertex -0.0127258 -0.0475311 -0.125
      vertex -0.0545197 -0.203308 -0.125
      vertex -0.0806427 -0.194427 -0.125
    endloop
  endfacet
  facet normal 0 0 -1
    outer loop
      vertex 0.219681 -0.380478 -0.125
      vertex 0.292511 -0.523285 -0.125
      vertex 0.241516 -0.548447 -0.125
    endloop
  endfacet
  facet normal 0 0 -1
    outer loop
      vertex 0.167786 -0.575287 -0.125
      vertex 0.113708 -0.424393 -0.125
      vertex 0.168121 -0.405899 -0.125
    endloop
  endfacet
  facet normal 0 -0 -1
    outer loop
      vertex 0.113708 -0.424393 -0.125
      vertex 0.142273 -0.582123 -0.125
      vertex 0.0573425 -0.435593 -0.125
    endloop
  endfacet
  facet normal 0 0 -1
    outer loop
      vertex -0.219666 -0.380493 -0.125
      vertex -0.432892 -0.414398 -0.125
      vertex -0.45871 -0.384949 -0.125
    endloop
  endfacet
  facet normal 0 0 -1
    outer loop
      vertex -0.219666 -0.380493 -0.125
      vertex -0.375198 -0.46727 -0.125
      vertex -0.432892 -0.414398 -0.125
    endloop
  endfacet
  facet normal 0 0 -1
    outer loop
      vertex -0.24147 -0.548462 -0.125
      vertex -0.219666 -0.380493 -0.125
      vertex -0.168121 -0.405914 -0.125
    endloop
  endfacet
  facet normal 0 0 -1
    outer loop
      vertex -0.217148 -0.558533 -0.125
      vertex -0.168121 -0.405914 -0.125
      vertex -0.167801 -0.575287 -0.125
    endloop
  endfacet
  facet normal 0 0 -1
    outer loop
      vertex -0.167801 -0.575287 -0.125
      vertex -0.113693 -0.424377 -0.125
      vertex -0.142273 -0.582123 -0.125
    endloop
  endfacet
  facet normal 0 0 -1
    outer loop
      vertex -0.142273 -0.582123 -0.125
      vertex -0.113693 -0.424377 -0.125
      vertex -0.0573273 -0.435608 -0.125
    endloop
  endfacet
  facet normal 0 0 -1
    outer loop
      vertex -0.0912781 -0.59227 -0.125
      vertex -0.142273 -0.582123 -0.125
      vertex -0.0573273 -0.435608 -0.125
    endloop
  endfacet
  facet normal 0 0 -1
    outer loop
      vertex -0.065155 -0.595703 -0.125
      vertex -0.0912781 -0.59227 -0.125
      vertex -0.0573273 -0.435608 -0.125
    endloop
  endfacet
  facet normal 0 0 -1
    outer loop
      vertex -0.0132294 -0.599106 -0.125
      vertex -0.065155 -0.595703 -0.125
      vertex -0.0573273 -0.435608 -0.125
    endloop
  endfacet
  facet normal 0 0 -1
    outer loop
      vertex -0.219666 -0.380493 -0.125
      vertex -0.26149 -0.18309 -0.125
      vertex -0.105133 -0.182114 -0.125
    endloop
  endfacet
  facet normal 0 0 -1
    outer loop
      vertex 0.0573425 -0.435593 -0.125
      vertex 0.142273 -0.582123 -0.125
      vertex 0.0912933 -0.59227 -0.125
    endloop
  endfacet
  facet normal -0 0 -1
    outer loop
      vertex 0.204712 0.343246 -0.125
      vertex 0.029953 0.039032 -0.125
      vertex 0.15802 0.367096 -0.125
    endloop
  endfacet
  facet normal 0 0 -1
    outer loop
      vertex 0.0131836 -0.599106 -0.125
      vertex -0.0132294 -0.599106 -0.125
      vertex 0 -0.439362 -0.125
    endloop
  endfacet
  facet normal 0 0 -1
    outer loop
      vertex -0.168121 -0.405914 -0.125
      vertex -0.113693 -0.424377 -0.125
      vertex -0.167801 -0.575287 -0.125
    endloop
  endfacet
  facet normal 0 0 -1
    outer loop
      vertex -0.0132294 -0.599106 -0.125
      vertex -0.0573273 -0.435608 -0.125
      vertex 0 -0.439362 -0.125
    endloop
  endfacet
  facet normal 0 0 -1
    outer loop
      vertex -0.26149 -0.18309 -0.125
      vertex -0.286591 -0.141449 -0.125
      vertex -0.105133 -0.182114 -0.125
    endloop
  endfacet
  facet normal 0 0 -1
    outer loop
      vertex -0.313431 -0.0624695 -0.125
      vertex -0.0487823 -0.00640869 -0.125
      vertex -0.302567 -0.102905 -0.125
    endloop
  endfacet
  facet normal 0 0 -1
    outer loop
      vertex -0.313431 -0.0624695 -0.125
      vertex -0.318893 -0.0209503 -0.125
      vertex -0.0487823 -0.00640869 -0.125
    endloop
  endfacet
  facet normal -0 0 -1
    outer loop
      vertex -0.0487823 -0.00640869 -0.125
      vertex -0.318893 -0.0209503 -0.125
      vertex -0.317993 0.0278168 -0.125
    endloop
  endfacet
  facet normal 0 0 -1
    outer loop
      vertex -0.039032 0.029953 -0.125
      vertex -0.0475311 0.0127258 -0.125
      vertex -0.317993 0.0278168 -0.125
    endloop
  endfacet
  facet normal -0 0 -1
    outer loop
      vertex -0.0475311 0.0127258 -0.125
      vertex -0.0487823 -0.00640869 -0.125
      vertex -0.317993 0.0278168 -0.125
    endloop
  endfacet
  facet normal 0 0 -1
    outer loop
      vertex -0.0245972 0.0426178 -0.125
      vertex 0 0.399414 -0.125
      vertex -0.00640869 0.0487823 -0.125
    endloop
  endfacet
  facet normal 0 0 -1
    outer loop
      vertex 0.029953 0.039032 -0.125
      vertex 0.0127258 0.0475311 -0.125
      vertex 0.15802 0.367096 -0.125
    endloop
  endfacet
  facet normal 0 -0 -1
    outer loop
      vertex 0.204712 0.343246 -0.125
      vertex 0.247803 0.313568 -0.125
      vertex 0.029953 0.039032 -0.125
    endloop
  endfacet
  facet normal 0 0 -1
    outer loop
      vertex 0.029953 0.039032 -0.125
      vertex 0.247803 0.313568 -0.125
      vertex 0.286621 0.278519 -0.125
    endloop
  endfacet
  facet normal 0 0 -1
    outer loop
      vertex 0.210281 0 -0.125
      vertex 0.029953 0.039032 -0.125
      vertex 0.286621 0.278519 -0.125
    endloop
  endfacet
  facet normal 0 0 -1
    outer loop
      vertex 0.210281 0 -0.125
      vertex 0.0426178 0.0245972 -0.125
      vertex 0.029953 0.039032 -0.125
    endloop
  endfacet
  facet normal 0 -0 -1
    outer loop
      vertex 0.595932 0.0617676 -0.125
      vertex 0.599426 -0.00820923 -0.125
      vertex 0.439362 0 -0.125
    endloop
  endfacet
  facet normal -0 0 -1
    outer loop
      vertex 0.128006 -0.167099 -0.125
      vertex 0.105209 -0.182312 -0.125
      vertex 0.0245972 -0.0426178 -0.125
    endloop
  endfacet
  facet normal -0 0 -1
    outer loop
      vertex 0.0804901 -0.194489 -0.125
      vertex 0.0543213 -0.203369 -0.125
      vertex 0.00640869 -0.0487823 -0.125
    endloop
  endfacet
  facet normal 0 0 -1
    outer loop
      vertex 0.0131836 -0.599106 -0.125
      vertex 0.0573425 -0.435593 -0.125
      vertex 0.0651855 -0.595703 -0.125
    endloop
  endfacet
  facet normal 0 0 -1
    outer loop
      vertex -0.105133 -0.182114 -0.125
      vertex -0.0127258 -0.0475311 -0.125
      vertex -0.0806427 -0.194427 -0.125
    endloop
  endfacet
  facet normal 0 0 -1
    outer loop
      vertex -0.24147 -0.548462 -0.125
      vertex -0.168121 -0.405914 -0.125
      vertex -0.217148 -0.558533 -0.125
    endloop
  endfacet
  facet normal 0 0 -1
    outer loop
      vertex -0.310883 -0.512314 -0.125
      vertex -0.219666 -0.380493 -0.125
      vertex -0.24147 -0.548462 -0.125
    endloop
  endfacet
  facet normal 0 0 -1
    outer loop
      vertex -0.310883 -0.512314 -0.125
      vertex -0.375198 -0.46727 -0.125
      vertex -0.219666 -0.380493 -0.125
    endloop
  endfacet
  facet normal -0 0 -1
    outer loop
      vertex -0.219666 -0.380493 -0.125
      vertex -0.45871 -0.384949 -0.125
      vertex -0.26149 -0.18309 -0.125
    endloop
  endfacet
  facet normal 0 0 -1
    outer loop
      vertex -0.105133 -0.182114 -0.125
      vertex -0.029953 -0.039032 -0.125
      vertex -0.0127258 -0.0475311 -0.125
    endloop
  endfacet
  facet normal 0 0 -1
    outer loop
      vertex -0.0127258 -0.0475311 -0.125
      vertex -0.0275269 -0.208694 -0.125
      vertex -0.0545197 -0.203308 -0.125
    endloop
  endfacet
  facet normal 0 -0 -1
    outer loop
      vertex -0.0127258 -0.0475311 -0.125
      vertex -0.000106812 -0.210495 -0.125
      vertex -0.0275269 -0.208694 -0.125
    endloop
  endfacet
  facet normal 0 0 -1
    outer loop
      vertex 0.514984 -0.30687 -0.125
      vertex 0.348572 -0.267441 -0.125
      vertex 0.380493 -0.219666 -0.125
    endloop
  endfacet
  facet normal 0 0 -1
    outer loop
      vertex 0.550644 -0.237 -0.125
      vertex 0.380493 -0.219666 -0.125
      vertex 0.405914 -0.168121 -0.125
    endloop
  endfacet
  facet normal -0 0 -1
    outer loop
      vertex 0.576874 -0.163101 -0.125
      vertex 0.405914 -0.168121 -0.125
      vertex 0.424377 -0.113693 -0.125
    endloop
  endfacet
  facet normal -0 0 -1
    outer loop
      vertex 0.593231 -0.0863953 -0.125
      vertex 0.424377 -0.113693 -0.125
      vertex 0.435608 -0.0573273 -0.125
    endloop
  endfacet
  facet normal 0 0 -1
    outer loop
      vertex 0.599426 -0.00820923 -0.125
      vertex 0.593231 -0.0863953 -0.125
      vertex 0.435608 -0.0573273 -0.125
    endloop
  endfacet
  facet normal 0 0 -1
    outer loop
      vertex 0.435608 -0.0573273 -0.125
      vertex 0.439362 0 -0.125
      vertex 0.599426 -0.00820923 -0.125
    endloop
  endfacet
  facet normal 0 0 -1
    outer loop
      vertex 0.0245972 -0.0426178 -0.125
      vertex 0.148758 -0.148911 -0.125
      vertex 0.128006 -0.167099 -0.125
    endloop
  endfacet
  facet normal 0 0 -1
    outer loop
      vertex 0.148758 -0.148911 -0.125
      vertex 0.039032 -0.029953 -0.125
      vertex 0.166916 -0.128235 -0.125
    endloop
  endfacet
  facet normal 0 0 -1
    outer loop
      vertex 0.417999 -0.429733 -0.125
      vertex 0.310669 -0.310654 -0.125
      vertex 0.470551 -0.371414 -0.125
    endloop
  endfacet
  facet normal 0 0 -1
    outer loop
      vertex 0.039032 -0.029953 -0.125
      vertex 0.194427 -0.0806427 -0.125
      vertex 0.182251 -0.105301 -0.125
    endloop
  endfacet
  facet normal 0 0 -1
    outer loop
      vertex 0.470551 -0.371414 -0.125
      vertex 0.348572 -0.267441 -0.125
      vertex 0.514984 -0.30687 -0.125
    endloop
  endfacet
  facet normal 0 0 -1
    outer loop
      vertex 0.203308 -0.0545197 -0.125
      vertex 0.0475311 -0.0127258 -0.125
      vertex 0.208694 -0.0275269 -0.125
    endloop
  endfacet
  facet normal 0 0 -1
    outer loop
      vertex 0.208694 -0.0275269 -0.125
      vertex 0.0475311 -0.0127258 -0.125
      vertex 0.210281 0 -0.125
    endloop
  endfacet
  facet normal 0 -0 -1
    outer loop
      vertex 0.582748 0.139084 -0.125
      vertex 0.590469 0.10025 -0.125
      vertex 0.439362 0 -0.125
    endloop
  endfacet
  facet normal 0 0 -1
    outer loop
      vertex 0.0475311 -0.0127258 -0.125
      vertex 0.0487823 0.00640869 -0.125
      vertex 0.210281 0 -0.125
    endloop
  endfacet
  facet normal -0 0 -1
    outer loop
      vertex 0.297348 0.265945 -0.125
      vertex 0.210281 0 -0.125
      vertex 0.286621 0.278519 -0.125
    endloop
  endfacet
  facet normal 0 0 -1
    outer loop
      vertex 0.210281 0 -0.125
      vertex 0.0487823 0.00640869 -0.125
      vertex 0.0426178 0.0245972 -0.125
    endloop
  endfacet
  facet normal -0 0 -1
    outer loop
      vertex 0.595932 0.0617676 -0.125
      vertex 0.439362 0 -0.125
      vertex 0.590469 0.10025 -0.125
    endloop
  endfacet
  facet normal 0 0 -1
    outer loop
      vertex 0.593231 -0.0863953 -0.125
      vertex 0.576874 -0.163101 -0.125
      vertex 0.424377 -0.113693 -0.125
    endloop
  endfacet
  facet normal 0 0 -1
    outer loop
      vertex 0.576874 -0.163101 -0.125
      vertex 0.550644 -0.237 -0.125
      vertex 0.405914 -0.168121 -0.125
    endloop
  endfacet
  facet normal -0 0 -1
    outer loop
      vertex 0.550644 -0.237 -0.125
      vertex 0.514984 -0.30687 -0.125
      vertex 0.380493 -0.219666 -0.125
    endloop
  endfacet
  facet normal 0 0 -1
    outer loop
      vertex 0.358353 -0.480591 -0.125
      vertex 0.219681 -0.380478 -0.125
      vertex 0.267471 -0.348557 -0.125
    endloop
  endfacet
  facet normal -0 0 -1
    outer loop
      vertex 0.358353 -0.480591 -0.125
      vertex 0.292511 -0.523285 -0.125
      vertex 0.219681 -0.380478 -0.125
    endloop
  endfacet
  facet normal 0 -0 -1
    outer loop
      vertex 0.219681 -0.380478 -0.125
      vertex 0.241516 -0.548447 -0.125
      vertex 0.168121 -0.405899 -0.125
    endloop
  endfacet
  facet normal 0 -0 -1
    outer loop
      vertex 0.168121 -0.405899 -0.125
      vertex 0.241516 -0.548447 -0.125
      vertex 0.167786 -0.575287 -0.125
    endloop
  endfacet
  facet normal 0 0 -1
    outer loop
      vertex 0.113708 -0.424393 -0.125
      vertex 0.167786 -0.575287 -0.125
      vertex 0.142273 -0.582123 -0.125
    endloop
  endfacet
  facet normal 0 0 -1
    outer loop
      vertex 0 -0.439362 -0.125
      vertex 0.0573425 -0.435593 -0.125
      vertex 0.0131836 -0.599106 -0.125
    endloop
  endfacet
  facet normal 0 0 -1
    outer loop
      vertex 0.0573425 -0.435593 -0.125
      vertex 0.0912933 -0.59227 -0.125
      vertex 0.0651855 -0.595703 -0.125
    endloop
  endfacet
  facet normal 0 0 1
    outer loop
      vertex 0.00640869 -0.0487823 0.125
      vertex 0.0274048 -0.208694 0.125
      vertex 0.0543213 -0.203369 0.125
    endloop
  endfacet
  facet normal 0 0 1
    outer loop
      vertex -0.302567 -0.102905 0.125
      vertex -0.0426178 -0.0245972 0.125
      vertex -0.0487823 -0.00640869 0.125
    endloop
  endfacet
  facet normal 0 0 1
    outer loop
      vertex 0.00640869 -0.0487823 0.125
      vertex -0.000106812 -0.210495 0.125
      vertex 0.0274048 -0.208694 0.125
    endloop
  endfacet
  facet normal 0 0 1
    outer loop
      vertex 0.572357 0.176376 0.125
      vertex 0.439362 0 0.125
      vertex 0.582748 0.139084 0.125
    endloop
  endfacet
  facet normal 0 0 1
    outer loop
      vertex -0.302567 -0.102905 0.125
      vertex -0.286591 -0.141449 0.125
      vertex -0.105133 -0.182114 0.125
    endloop
  endfacet
  facet normal 0 0 1
    outer loop
      vertex -0.0127258 -0.0475311 0.125
      vertex -0.000106812 -0.210495 0.125
      vertex 0.00640869 -0.0487823 0.125
    endloop
  endfacet
  facet normal 0 0 1
    outer loop
      vertex 0.0245972 -0.0426178 0.125
      vertex 0.0804901 -0.194489 0.125
      vertex 0.105209 -0.182312 0.125
    endloop
  endfacet
  facet normal -0 0 1
    outer loop
      vertex 0.0245972 -0.0426178 0.125
      vertex 0.148758 -0.148911 0.125
      vertex 0.039032 -0.029953 0.125
    endloop
  endfacet
  facet normal 0 -0 1
    outer loop
      vertex 0.166916 -0.128235 0.125
      vertex 0.182251 -0.105301 0.125
      vertex 0.039032 -0.029953 0.125
    endloop
  endfacet
  facet normal 0 0 1
    outer loop
      vertex 0.203308 -0.0545197 0.125
      vertex 0.0475311 -0.0127258 0.125
      vertex 0.194427 -0.0806427 0.125
    endloop
  endfacet
  facet normal 0 0 1
    outer loop
      vertex 0.0475311 -0.0127258 0.125
      vertex 0.039032 -0.029953 0.125
      vertex 0.194427 -0.0806427 0.125
    endloop
  endfacet
  facet normal 0 0 1
    outer loop
      vertex 0.0245972 -0.0426178 0.125
      vertex 0.00640869 -0.0487823 0.125
      vertex 0.0804901 -0.194489 0.125
    endloop
  endfacet
  facet normal 0 -0 1
    outer loop
      vertex -0.105133 -0.182114 0.125
      vertex -0.0426178 -0.0245972 0.125
      vertex -0.302567 -0.102905 0.125
    endloop
  endfacet
  facet normal 0 0 1
    outer loop
      vertex 0.210281 0 0.125
      vertex 0.439362 0 0.125
      vertex 0.297348 0.265945 0.125
    endloop
  endfacet
  facet normal 0 0 1
    outer loop
      vertex 0.439362 0 0.125
      vertex 0.572357 0.176376 0.125
      vertex 0.559586 0.213974 0.125
    endloop
  endfacet
  facet normal -0 0 1
    outer loop
      vertex 0.297348 0.265945 0.125
      vertex 0.544418 0.249634 0.125
      vertex 0.526901 0.285141 0.125
    endloop
  endfacet
  facet normal 0 0 1
    outer loop
      vertex 0.559586 0.213974 0.125
      vertex 0.544418 0.249634 0.125
      vertex 0.297348 0.265945 0.125
    endloop
  endfacet
  facet normal 0 0 1
    outer loop
      vertex 0.297348 0.265945 0.125
      vertex 0.507187 0.318542 0.125
      vertex 0.485138 0.351517 0.125
    endloop
  endfacet
  facet normal 0 0 1
    outer loop
      vertex 0.526901 0.285141 0.125
      vertex 0.507187 0.318542 0.125
      vertex 0.297348 0.265945 0.125
    endloop
  endfacet
  facet normal 0 -0 1
    outer loop
      vertex 0.439362 0 0.125
      vertex 0.559586 0.213974 0.125
      vertex 0.297348 0.265945 0.125
    endloop
  endfacet
  facet normal 0 0 1
    outer loop
      vertex 0.485138 0.351517 0.125
      vertex 0.446259 0.399139 0.125
      vertex 0.297348 0.265945 0.125
    endloop
  endfacet
  facet normal 0 0 1
    outer loop
      vertex -0.105133 -0.182114 0.125
      vertex -0.029953 -0.039032 0.125
      vertex -0.0426178 -0.0245972 0.125
    endloop
  endfacet
  facet normal -0 0 1
    outer loop
      vertex 0.310669 -0.310654 0.125
      vertex 0.470551 -0.371414 0.125
      vertex 0.348572 -0.267441 0.125
    endloop
  endfacet
  facet normal 0 0 1
    outer loop
      vertex 0.15802 0.367096 0.125
      vertex 0.108963 0.384521 0.125
      vertex 0.0127258 0.0475311 0.125
    endloop
  endfacet
  facet normal 0 -0 1
    outer loop
      vertex 0.0127258 0.0475311 0.125
      vertex 0.0577698 0.395462 0.125
      vertex 0 0.399414 0.125
    endloop
  endfacet
  facet normal 0 0 1
    outer loop
      vertex 0.0127258 0.0475311 0.125
      vertex 0 0.399414 0.125
      vertex -0.00640869 0.0487823 0.125
    endloop
  endfacet
  facet normal 0 0 1
    outer loop
      vertex 0 0.399414 0.125
      vertex -0.317993 0.0278168 0.125
      vertex -0.0245972 0.0426178 0.125
    endloop
  endfacet
  facet normal 0 0 1
    outer loop
      vertex -0.317993 0.0278168 0.125
      vertex -0.039032 0.029953 0.125
      vertex -0.0245972 0.0426178 0.125
    endloop
  endfacet
  facet normal 0 0 1
    outer loop
      vertex 0.108963 0.384521 0.125
      vertex 0.0577698 0.395462 0.125
      vertex 0.0127258 0.0475311 0.125
    endloop
  endfacet
  facet normal 0 0 1
    outer loop
      vertex -0.0522919 0.596558 0.125
      vertex -0.0911255 0.5923 0.125
      vertex 0 0.399414 0.125
    endloop
  endfacet
  facet normal -0 0 1
    outer loop
      vertex -0.0522919 0.596558 0.125
      vertex 0 0.399414 0.125
      vertex 0 0.598846 0.125
    endloop
  endfacet
  facet normal 0 0 1
    outer loop
      vertex -0.0911255 0.5923 0.125
      vertex -0.167557 0.575363 0.125
      vertex 0 0.399414 0.125
    endloop
  endfacet
  facet normal 0 0 1
    outer loop
      vertex -0.167557 0.575363 0.125
      vertex -0.241226 0.548553 0.125
      vertex 0 0.399414 0.125
    endloop
  endfacet
  facet normal 0 0 1
    outer loop
      vertex -0.241226 0.548553 0.125
      vertex -0.310776 0.51236 0.125
      vertex 0 0.399414 0.125
    endloop
  endfacet
  facet normal 0 0 1
    outer loop
      vertex -0.310776 0.51236 0.125
      vertex -0.374985 0.467438 0.125
      vertex 0 0.399414 0.125
    endloop
  endfacet
  facet normal 0 0 1
    outer loop
      vertex -0.374985 0.467438 0.125
      vertex -0.4328 0.41449 0.125
      vertex -0.317993 0.0278168 0.125
    endloop
  endfacet
  facet normal 0 0 1
    outer loop
      vertex -0.4328 0.41449 0.125
      vertex -0.483185 0.354446 0.125
      vertex -0.317993 0.0278168 0.125
    endloop
  endfacet
  facet normal 0 0 1
    outer loop
      vertex -0.483185 0.354446 0.125
      vertex -0.525299 0.288376 0.125
      vertex -0.317993 0.0278168 0.125
    endloop
  endfacet
  facet normal 0 0 1
    outer loop
      vertex -0.525299 0.288376 0.125
      vertex -0.558502 0.217239 0.125
      vertex -0.317993 0.0278168 0.125
    endloop
  endfacet
  facet normal 0 0 1
    outer loop
      vertex -0.558502 0.217239 0.125
      vertex -0.582047 0.142578 0.125
      vertex -0.317993 0.0278168 0.125
    endloop
  endfacet
  facet normal 0 0 1
    outer loop
      vertex -0.582047 0.142578 0.125
      vertex -0.595688 0.0653229 0.125
      vertex -0.317993 0.0278168 0.125
    endloop
  endfacet
  facet normal 0 0 1
    outer loop
      vertex -0.595688 0.0653229 0.125
      vertex -0.596558 0.0521851 0.125
      vertex -0.317993 0.0278168 0.125
    endloop
  endfacet
  facet normal 0 0 1
    outer loop
      vertex 0.417999 -0.429733 0.125
      vertex 0.310669 -0.310654 0.125
      vertex 0.267471 -0.348557 0.125
    endloop
  endfacet
  facet normal -0 0 1
    outer loop
      vertex -0.49054 -0.343475 0.125
      vertex -0.45871 -0.384949 0.125
      vertex -0.26149 -0.18309 0.125
    endloop
  endfacet
  facet normal 0 0 1
    outer loop
      vertex -0.374985 0.467438 0.125
      vertex -0.317993 0.0278168 0.125
      vertex 0 0.399414 0.125
    endloop
  endfacet
  facet normal 0 0 1
    outer loop
      vertex 0.417999 -0.429733 0.125
      vertex 0.267471 -0.348557 0.125
      vertex 0.358353 -0.480591 0.125
    endloop
  endfacet
  facet normal -0 0 1
    outer loop
      vertex -0.0806427 -0.194427 0.125
      vertex -0.0545197 -0.203308 0.125
      vertex -0.0127258 -0.0475311 0.125
    endloop
  endfacet
  facet normal 0 -0 1
    outer loop
      vertex 0.241516 -0.548447 0.125
      vertex 0.292511 -0.523285 0.125
      vertex 0.219681 -0.380478 0.125
    endloop
  endfacet
  facet normal 0 0 1
    outer loop
      vertex 0.168121 -0.405899 0.125
      vertex 0.113708 -0.424393 0.125
      vertex 0.167786 -0.575287 0.125
    endloop
  endfacet
  facet normal -0 0 1
    outer loop
      vertex 0.0573425 -0.435593 0.125
      vertex 0.142273 -0.582123 0.125
      vertex 0.113708 -0.424393 0.125
    endloop
  endfacet
  facet normal -0 0 1
    outer loop
      vertex -0.45871 -0.384949 0.125
      vertex -0.432892 -0.414398 0.125
      vertex -0.219666 -0.380493 0.125
    endloop
  endfacet
  facet normal -0 0 1
    outer loop
      vertex -0.432892 -0.414398 0.125
      vertex -0.375198 -0.46727 0.125
      vertex -0.219666 -0.380493 0.125
    endloop
  endfacet
  facet normal 0 0 1
    outer loop
      vertex -0.168121 -0.405914 0.125
      vertex -0.219666 -0.380493 0.125
      vertex -0.24147 -0.548462 0.125
    endloop
  endfacet
  facet normal 0 0 1
    outer loop
      vertex -0.167801 -0.575287 0.125
      vertex -0.168121 -0.405914 0.125
      vertex -0.217148 -0.558533 0.125
    endloop
  endfacet
  facet normal 0 -0 1
    outer loop
      vertex -0.142273 -0.582123 0.125
      vertex -0.113693 -0.424377 0.125
      vertex -0.167801 -0.575287 0.125
    endloop
  endfacet
  facet normal 0 0 1
    outer loop
      vertex -0.0573273 -0.435608 0.125
      vertex -0.113693 -0.424377 0.125
      vertex -0.142273 -0.582123 0.125
    endloop
  endfacet
  facet normal 0 0 1
    outer loop
      vertex -0.0573273 -0.435608 0.125
      vertex -0.142273 -0.582123 0.125
      vertex -0.0912781 -0.59227 0.125
    endloop
  endfacet
  facet normal 0 0 1
    outer loop
      vertex -0.0573273 -0.435608 0.125
      vertex -0.0912781 -0.59227 0.125
      vertex -0.065155 -0.595703 0.125
    endloop
  endfacet
  facet normal 0 0 1
    outer loop
      vertex -0.0573273 -0.435608 0.125
      vertex -0.065155 -0.595703 0.125
      vertex -0.0132294 -0.599106 0.125
    endloop
  endfacet
  facet normal 0 0 1
    outer loop
      vertex -0.105133 -0.182114 0.125
      vertex -0.26149 -0.18309 0.125
      vertex -0.219666 -0.380493 0.125
    endloop
  endfacet
  facet normal 0 -0 1
    outer loop
      vertex 0.0912933 -0.59227 0.125
      vertex 0.142273 -0.582123 0.125
      vertex 0.0573425 -0.435593 0.125
    endloop
  endfacet
  facet normal 0 0 1
    outer loop
      vertex 0.15802 0.367096 0.125
      vertex 0.029953 0.039032 0.125
      vertex 0.204712 0.343246 0.125
    endloop
  endfacet
  facet normal 0 0 1
    outer loop
      vertex 0 -0.439362 0.125
      vertex -0.0132294 -0.599106 0.125
      vertex 0.0131836 -0.599106 0.125
    endloop
  endfacet
  facet normal 0 -0 1
    outer loop
      vertex -0.167801 -0.575287 0.125
      vertex -0.113693 -0.424377 0.125
      vertex -0.168121 -0.405914 0.125
    endloop
  endfacet
  facet normal 0 0 1
    outer loop
      vertex 0 -0.439362 0.125
      vertex -0.0573273 -0.435608 0.125
      vertex -0.0132294 -0.599106 0.125
    endloop
  endfacet
  facet normal 0 0 1
    outer loop
      vertex -0.105133 -0.182114 0.125
      vertex -0.286591 -0.141449 0.125
      vertex -0.26149 -0.18309 0.125
    endloop
  endfacet
  facet normal 0 -0 1
    outer loop
      vertex -0.302567 -0.102905 0.125
      vertex -0.0487823 -0.00640869 0.125
      vertex -0.313431 -0.0624695 0.125
    endloop
  endfacet
  facet normal 0 0 1
    outer loop
      vertex -0.0487823 -0.00640869 0.125
      vertex -0.318893 -0.0209503 0.125
      vertex -0.313431 -0.0624695 0.125
    endloop
  endfacet
  facet normal 0 0 1
    outer loop
      vertex -0.317993 0.0278168 0.125
      vertex -0.318893 -0.0209503 0.125
      vertex -0.0487823 -0.00640869 0.125
    endloop
  endfacet
  facet normal -0 0 1
    outer loop
      vertex -0.317993 0.0278168 0.125
      vertex -0.0475311 0.0127258 0.125
      vertex -0.039032 0.029953 0.125
    endloop
  endfacet
  facet normal 0 0 1
    outer loop
      vertex -0.317993 0.0278168 0.125
      vertex -0.0487823 -0.00640869 0.125
      vertex -0.0475311 0.0127258 0.125
    endloop
  endfacet
  facet normal 0 -0 1
    outer loop
      vertex -0.00640869 0.0487823 0.125
      vertex 0 0.399414 0.125
      vertex -0.0245972 0.0426178 0.125
    endloop
  endfacet
  facet normal 0 0 1
    outer loop
      vertex 0.15802 0.367096 0.125
      vertex 0.0127258 0.0475311 0.125
      vertex 0.029953 0.039032 0.125
    endloop
  endfacet
  facet normal 0 0 1
    outer loop
      vertex 0.029953 0.039032 0.125
      vertex 0.247803 0.313568 0.125
      vertex 0.204712 0.343246 0.125
    endloop
  endfacet
  facet normal 0 0 1
    outer loop
      vertex 0.286621 0.278519 0.125
      vertex 0.247803 0.313568 0.125
      vertex 0.029953 0.039032 0.125
    endloop
  endfacet
  facet normal 0 0 1
    outer loop
      vertex 0.286621 0.278519 0.125
      vertex 0.029953 0.039032 0.125
      vertex 0.210281 0 0.125
    endloop
  endfacet
  facet normal 0 0 1
    outer loop
      vertex 0.029953 0.039032 0.125
      vertex 0.0426178 0.0245972 0.125
      vertex 0.210281 0 0.125
    endloop
  endfacet
  facet normal -0 0 1
    outer loop
      vertex 0.439362 0 0.125
      vertex 0.599426 -0.00820923 0.125
      vertex 0.595932 0.0617676 0.125
    endloop
  endfacet
  facet normal 0 0 1
    outer loop
      vertex 0.0245972 -0.0426178 0.125
      vertex 0.105209 -0.182312 0.125
      vertex 0.128006 -0.167099 0.125
    endloop
  endfacet
  facet normal 0 0 1
    outer loop
      vertex 0.00640869 -0.0487823 0.125
      vertex 0.0543213 -0.203369 0.125
      vertex 0.0804901 -0.194489 0.125
    endloop
  endfacet
  facet normal 0 0 1
    outer loop
      vertex 0.0651855 -0.595703 0.125
      vertex 0.0573425 -0.435593 0.125
      vertex 0.0131836 -0.599106 0.125
    endloop
  endfacet
  facet normal 0 -0 1
    outer loop
      vertex -0.0806427 -0.194427 0.125
      vertex -0.0127258 -0.0475311 0.125
      vertex -0.105133 -0.182114 0.125
    endloop
  endfacet
  facet normal 0 -0 1
    outer loop
      vertex -0.217148 -0.558533 0.125
      vertex -0.168121 -0.405914 0.125
      vertex -0.24147 -0.548462 0.125
    endloop
  endfacet
  facet normal 0 -0 1
    outer loop
      vertex -0.24147 -0.548462 0.125
      vertex -0.219666 -0.380493 0.125
      vertex -0.310883 -0.512314 0.125
    endloop
  endfacet
  facet normal 0 0 1
    outer loop
      vertex -0.219666 -0.380493 0.125
      vertex -0.375198 -0.46727 0.125
      vertex -0.310883 -0.512314 0.125
    endloop
  endfacet
  facet normal 0 0 1
    outer loop
      vertex -0.26149 -0.18309 0.125
      vertex -0.45871 -0.384949 0.125
      vertex -0.219666 -0.380493 0.125
    endloop
  endfacet
  facet normal 0 0 1
    outer loop
      vertex -0.0127258 -0.0475311 0.125
      vertex -0.029953 -0.039032 0.125
      vertex -0.105133 -0.182114 0.125
    endloop
  endfacet
  facet normal -0 0 1
    outer loop
      vertex -0.0545197 -0.203308 0.125
      vertex -0.0275269 -0.208694 0.125
      vertex -0.0127258 -0.0475311 0.125
    endloop
  endfacet
  facet normal -0 0 1
    outer loop
      vertex -0.0275269 -0.208694 0.125
      vertex -0.000106812 -0.210495 0.125
      vertex -0.0127258 -0.0475311 0.125
    endloop
  endfacet
  facet normal 0 0 1
    outer loop
      vertex 0.380493 -0.219666 0.125
      vertex 0.348572 -0.267441 0.125
      vertex 0.514984 -0.30687 0.125
    endloop
  endfacet
  facet normal 0 0 1
    outer loop
      vertex 0.405914 -0.168121 0.125
      vertex 0.380493 -0.219666 0.125
      vertex 0.550644 -0.237 0.125
    endloop
  endfacet
  facet normal 0 0 1
    outer loop
      vertex 0.424377 -0.113693 0.125
      vertex 0.405914 -0.168121 0.125
      vertex 0.576874 -0.163101 0.125
    endloop
  endfacet
  facet normal 0 0 1
    outer loop
      vertex 0.435608 -0.0573273 0.125
      vertex 0.424377 -0.113693 0.125
      vertex 0.593231 -0.0863953 0.125
    endloop
  endfacet
  facet normal -0 0 1
    outer loop
      vertex 0.435608 -0.0573273 0.125
      vertex 0.593231 -0.0863953 0.125
      vertex 0.599426 -0.00820923 0.125
    endloop
  endfacet
  facet normal 0 0 1
    outer loop
      vertex 0.599426 -0.00820923 0.125
      vertex 0.439362 0 0.125
      vertex 0.435608 -0.0573273 0.125
    endloop
  endfacet
  facet normal 0 -0 1
    outer loop
      vertex 0.128006 -0.167099 0.125
      vertex 0.148758 -0.148911 0.125
      vertex 0.0245972 -0.0426178 0.125
    endloop
  endfacet
  facet normal 0 0 1
    outer loop
      vertex 0.166916 -0.128235 0.125
      vertex 0.039032 -0.029953 0.125
      vertex 0.148758 -0.148911 0.125
    endloop
  endfacet
  facet normal 0 0 1
    outer loop
      vertex 0.470551 -0.371414 0.125
      vertex 0.310669 -0.310654 0.125
      vertex 0.417999 -0.429733 0.125
    endloop
  endfacet
  facet normal 0 -0 1
    outer loop
      vertex 0.182251 -0.105301 0.125
      vertex 0.194427 -0.0806427 0.125
      vertex 0.039032 -0.029953 0.125
    endloop
  endfacet
  facet normal 0 0 1
    outer loop
      vertex 0.514984 -0.30687 0.125
      vertex 0.348572 -0.267441 0.125
      vertex 0.470551 -0.371414 0.125
    endloop
  endfacet
  facet normal 0 0 1
    outer loop
      vertex 0.208694 -0.0275269 0.125
      vertex 0.0475311 -0.0127258 0.125
      vertex 0.203308 -0.0545197 0.125
    endloop
  endfacet
  facet normal 0 0 1
    outer loop
      vertex 0.210281 0 0.125
      vertex 0.0475311 -0.0127258 0.125
      vertex 0.208694 -0.0275269 0.125
    endloop
  endfacet
  facet normal 0 0 1
    outer loop
      vertex 0.439362 0 0.125
      vertex 0.590469 0.10025 0.125
      vertex 0.582748 0.139084 0.125
    endloop
  endfacet
  facet normal 0 0 1
    outer loop
      vertex 0.210281 0 0.125
      vertex 0.0487823 0.00640869 0.125
      vertex 0.0475311 -0.0127258 0.125
    endloop
  endfacet
  facet normal 0 0 1
    outer loop
      vertex 0.286621 0.278519 0.125
      vertex 0.210281 0 0.125
      vertex 0.297348 0.265945 0.125
    endloop
  endfacet
  facet normal 0 0 1
    outer loop
      vertex 0.0426178 0.0245972 0.125
      vertex 0.0487823 0.00640869 0.125
      vertex 0.210281 0 0.125
    endloop
  endfacet
  facet normal 0 0 1
    outer loop
      vertex 0.590469 0.10025 0.125
      vertex 0.439362 0 0.125
      vertex 0.595932 0.0617676 0.125
    endloop
  endfacet
  facet normal -0 0 1
    outer loop
      vertex 0.424377 -0.113693 0.125
      vertex 0.576874 -0.163101 0.125
      vertex 0.593231 -0.0863953 0.125
    endloop
  endfacet
  facet normal -0 0 1
    outer loop
      vertex 0.405914 -0.168121 0.125
      vertex 0.550644 -0.237 0.125
      vertex 0.576874 -0.163101 0.125
    endloop
  endfacet
  facet normal 0 0 1
    outer loop
      vertex 0.380493 -0.219666 0.125
      vertex 0.514984 -0.30687 0.125
      vertex 0.550644 -0.237 0.125
    endloop
  endfacet
  facet normal 0 0 1
    outer loop
      vertex 0.267471 -0.348557 0.125
      vertex 0.219681 -0.380478 0.125
      vertex 0.358353 -0.480591 0.125
    endloop
  endfacet
  facet normal 0 0 1
    outer loop
      vertex 0.219681 -0.380478 0.125
      vertex 0.292511 -0.523285 0.125
      vertex 0.358353 -0.480591 0.125
    endloop
  endfacet
  facet normal -0 0 1
    outer loop
      vertex 0.168121 -0.405899 0.125
      vertex 0.241516 -0.548447 0.125
      vertex 0.219681 -0.380478 0.125
    endloop
  endfacet
  facet normal 0 0 1
    outer loop
      vertex 0.167786 -0.575287 0.125
      vertex 0.241516 -0.548447 0.125
      vertex 0.168121 -0.405899 0.125
    endloop
  endfacet
  facet normal 0 -0 1
    outer loop
      vertex 0.142273 -0.582123 0.125
      vertex 0.167786 -0.575287 0.125
      vertex 0.113708 -0.424393 0.125
    endloop
  endfacet
  facet normal 0 -0 1
    outer loop
      vertex 0.0131836 -0.599106 0.125
      vertex 0.0573425 -0.435593 0.125
      vertex 0 -0.439362 0.125
    endloop
  endfacet
  facet normal 0 -0 1
    outer loop
      vertex 0.0651855 -0.595703 0.125
      vertex 0.0912933 -0.59227 0.125
      vertex 0.0573425 -0.435593 0.125
    endloop
  endfacet
  facet normal 0.13038 -0.991464 0
    outer loop
      vertex 0.0912933 -0.59227 -0.125
      vertex 0.0651855 -0.595703 0.125
      vertex 0.0651855 -0.595703 -0.125
    endloop
  endfacet
  facet normal 0.13038 -0.991464 0
    outer loop
      vertex 0.0912933 -0.59227 -0.125
      vertex 0.0912933 -0.59227 0.125
      vertex 0.0651855 -0.595703 0.125
    endloop
  endfacet
  facet normal 0.195213 -0.980761 0
    outer loop
      vertex 0.142273 -0.582123 -0.125
      vertex 0.0912933 -0.59227 0.125
      vertex 0.0912933 -0.59227 -0.125
    endloop
  endfacet
  facet normal 0.195213 -0.980761 0
    outer loop
      vertex 0.142273 -0.582123 -0.125
      vertex 0.142273 -0.582123 0.125
      vertex 0.0912933 -0.59227 0.125
    endloop
  endfacet
  facet normal 0.258813 -0.965927 0
    outer loop
      vertex 0.167786 -0.575287 -0.125
      vertex 0.142273 -0.582123 0.125
      vertex 0.142273 -0.582123 -0.125
    endloop
  endfacet
  facet normal 0.258813 -0.965927 0
    outer loop
      vertex 0.167786 -0.575287 -0.125
      vertex 0.167786 -0.575287 0.125
      vertex 0.142273 -0.582123 0.125
    endloop
  endfacet
  facet normal 0.342071 -0.939674 0
    outer loop
      vertex 0.241516 -0.548447 -0.125
      vertex 0.167786 -0.575287 0.125
      vertex 0.167786 -0.575287 -0.125
    endloop
  endfacet
  facet normal 0.342071 -0.939674 0
    outer loop
      vertex 0.241516 -0.548447 -0.125
      vertex 0.241516 -0.548447 0.125
      vertex 0.167786 -0.575287 0.125
    endloop
  endfacet
  facet normal 0.442485 -0.896776 0
    outer loop
      vertex 0.292511 -0.523285 -0.125
      vertex 0.241516 -0.548447 0.125
      vertex 0.241516 -0.548447 -0.125
    endloop
  endfacet
  facet normal 0.442485 -0.896776 0
    outer loop
      vertex 0.292511 -0.523285 -0.125
      vertex 0.292511 -0.523285 0.125
      vertex 0.241516 -0.548447 0.125
    endloop
  endfacet
  facet normal 0.544065 -0.839043 0
    outer loop
      vertex 0.358353 -0.480591 -0.125
      vertex 0.292511 -0.523285 0.125
      vertex 0.292511 -0.523285 -0.125
    endloop
  endfacet
  facet normal 0.544065 -0.839043 0
    outer loop
      vertex 0.358353 -0.480591 -0.125
      vertex 0.358353 -0.480591 0.125
      vertex 0.292511 -0.523285 0.125
    endloop
  endfacet
  facet normal 0.648817 -0.760944 0
    outer loop
      vertex 0.417999 -0.429733 -0.125
      vertex 0.358353 -0.480591 0.125
      vertex 0.358353 -0.480591 -0.125
    endloop
  endfacet
  facet normal 0.648817 -0.760944 0
    outer loop
      vertex 0.417999 -0.429733 -0.125
      vertex 0.417999 -0.429733 0.125
      vertex 0.358353 -0.480591 0.125
    endloop
  endfacet
  facet normal 0.742888 -0.669416 0
    outer loop
      vertex 0.470551 -0.371414 -0.125
      vertex 0.417999 -0.429733 0.125
      vertex 0.417999 -0.429733 -0.125
    endloop
  endfacet
  facet normal 0.742888 -0.669416 0
    outer loop
      vertex 0.470551 -0.371414 -0.125
      vertex 0.470551 -0.371414 0.125
      vertex 0.417999 -0.429733 0.125
    endloop
  endfacet
  facet normal 0.82369 -0.567041 0
    outer loop
      vertex 0.514984 -0.30687 -0.125
      vertex 0.470551 -0.371414 0.125
      vertex 0.470551 -0.371414 -0.125
    endloop
  endfacet
  facet normal 0.82369 -0.567041 0
    outer loop
      vertex 0.514984 -0.30687 -0.125
      vertex 0.514984 -0.30687 0.125
      vertex 0.470551 -0.371414 0.125
    endloop
  endfacet
  facet normal 0.890701 -0.45459 0
    outer loop
      vertex 0.550644 -0.237 -0.125
      vertex 0.514984 -0.30687 0.125
      vertex 0.514984 -0.30687 -0.125
    endloop
  endfacet
  facet normal 0.890701 -0.45459 0
    outer loop
      vertex 0.550644 -0.237 -0.125
      vertex 0.550644 -0.237 0.125
      vertex 0.514984 -0.30687 0.125
    endloop
  endfacet
  facet normal 0.942396 -0.334499 0
    outer loop
      vertex 0.576874 -0.163101 -0.125
      vertex 0.550644 -0.237 0.125
      vertex 0.550644 -0.237 -0.125
    endloop
  endfacet
  facet normal 0.942396 -0.334499 0
    outer loop
      vertex 0.576874 -0.163101 -0.125
      vertex 0.576874 -0.163101 0.125
      vertex 0.550644 -0.237 0.125
    endloop
  endfacet
  facet normal 0.97801 -0.208559 0
    outer loop
      vertex 0.593231 -0.0863953 -0.125
      vertex 0.576874 -0.163101 0.125
      vertex 0.576874 -0.163101 -0.125
    endloop
  endfacet
  facet normal 0.97801 -0.208559 0
    outer loop
      vertex 0.593231 -0.0863953 -0.125
      vertex 0.593231 -0.0863953 0.125
      vertex 0.576874 -0.163101 0.125
    endloop
  endfacet
  facet normal 0.996876 -0.0789874 0
    outer loop
      vertex 0.599426 -0.00820923 -0.125
      vertex 0.593231 -0.0863953 0.125
      vertex 0.593231 -0.0863953 -0.125
    endloop
  endfacet
  facet normal 0.996876 -0.0789874 0
    outer loop
      vertex 0.599426 -0.00820923 -0.125
      vertex 0.599426 -0.00820923 0.125
      vertex 0.593231 -0.0863953 0.125
    endloop
  endfacet
  facet normal 0.998756 0.0498724 0
    outer loop
      vertex 0.595932 0.0617676 -0.125
      vertex 0.599426 -0.00820923 0.125
      vertex 0.599426 -0.00820923 -0.125
    endloop
  endfacet
  facet normal 0.998756 0.0498724 -0
    outer loop
      vertex 0.595932 0.0617676 -0.125
      vertex 0.595932 0.0617676 0.125
      vertex 0.599426 -0.00820923 0.125
    endloop
  endfacet
  facet normal 0.990075 0.140542 0
    outer loop
      vertex 0.590469 0.10025 -0.125
      vertex 0.595932 0.0617676 0.125
      vertex 0.595932 0.0617676 -0.125
    endloop
  endfacet
  facet normal 0.990075 0.140542 -0
    outer loop
      vertex 0.590469 0.10025 -0.125
      vertex 0.590469 0.10025 0.125
      vertex 0.595932 0.0617676 0.125
    endloop
  endfacet
  facet normal 0.980802 0.195004 0
    outer loop
      vertex 0.582748 0.139084 -0.125
      vertex 0.590469 0.10025 0.125
      vertex 0.590469 0.10025 -0.125
    endloop
  endfacet
  facet normal 0.980802 0.195004 -0
    outer loop
      vertex 0.582748 0.139084 -0.125
      vertex 0.582748 0.139084 0.125
      vertex 0.590469 0.10025 0.125
    endloop
  endfacet
  facet normal 0.963303 0.268416 0
    outer loop
      vertex 0.572357 0.176376 -0.125
      vertex 0.582748 0.139084 0.125
      vertex 0.582748 0.139084 -0.125
    endloop
  endfacet
  facet normal 0.963303 0.268416 -0
    outer loop
      vertex 0.572357 0.176376 -0.125
      vertex 0.572357 0.176376 0.125
      vertex 0.582748 0.139084 0.125
    endloop
  endfacet
  facet normal 0.946862 0.321641 0
    outer loop
      vertex 0.559586 0.213974 -0.125
      vertex 0.572357 0.176376 0.125
      vertex 0.572357 0.176376 -0.125
    endloop
  endfacet
  facet normal 0.946862 0.321641 -0
    outer loop
      vertex 0.559586 0.213974 -0.125
      vertex 0.559586 0.213974 0.125
      vertex 0.572357 0.176376 0.125
    endloop
  endfacet
  facet normal 0.920221 0.391399 0
    outer loop
      vertex 0.544418 0.249634 -0.125
      vertex 0.559586 0.213974 0.125
      vertex 0.559586 0.213974 -0.125
    endloop
  endfacet
  facet normal 0.920221 0.391399 -0
    outer loop
      vertex 0.544418 0.249634 -0.125
      vertex 0.544418 0.249634 0.125
      vertex 0.559586 0.213974 0.125
    endloop
  endfacet
  facet normal 0.896804 0.442428 0
    outer loop
      vertex 0.526901 0.285141 -0.125
      vertex 0.544418 0.249634 0.125
      vertex 0.544418 0.249634 -0.125
    endloop
  endfacet
  facet normal 0.896804 0.442428 -0
    outer loop
      vertex 0.526901 0.285141 -0.125
      vertex 0.526901 0.285141 0.125
      vertex 0.544418 0.249634 0.125
    endloop
  endfacet
  facet normal 0.861185 0.508292 0
    outer loop
      vertex 0.507187 0.318542 -0.125
      vertex 0.526901 0.285141 0.125
      vertex 0.526901 0.285141 -0.125
    endloop
  endfacet
  facet normal 0.861185 0.508292 -0
    outer loop
      vertex 0.507187 0.318542 -0.125
      vertex 0.507187 0.318542 0.125
      vertex 0.526901 0.285141 0.125
    endloop
  endfacet
  facet normal 0.83128 0.555854 0
    outer loop
      vertex 0.485138 0.351517 -0.125
      vertex 0.507187 0.318542 0.125
      vertex 0.507187 0.318542 -0.125
    endloop
  endfacet
  facet normal 0.83128 0.555854 -0
    outer loop
      vertex 0.485138 0.351517 -0.125
      vertex 0.485138 0.351517 0.125
      vertex 0.507187 0.318542 0.125
    endloop
  endfacet
  facet normal 0.774631 0.632413 0
    outer loop
      vertex 0.446259 0.399139 -0.125
      vertex 0.485138 0.351517 0.125
      vertex 0.485138 0.351517 -0.125
    endloop
  endfacet
  facet normal 0.774631 0.632413 -0
    outer loop
      vertex 0.446259 0.399139 -0.125
      vertex 0.446259 0.399139 0.125
      vertex 0.485138 0.351517 0.125
    endloop
  endfacet
  facet normal -0.666679 0.745345 0
    outer loop
      vertex 0.297348 0.265945 -0.125
      vertex 0.446259 0.399139 0.125
      vertex 0.446259 0.399139 -0.125
    endloop
  endfacet
  facet normal -0.666679 0.745345 0
    outer loop
      vertex 0.297348 0.265945 -0.125
      vertex 0.297348 0.265945 0.125
      vertex 0.446259 0.399139 0.125
    endloop
  endfacet
  facet normal 0.760754 0.649041 0
    outer loop
      vertex 0.286621 0.278519 -0.125
      vertex 0.297348 0.265945 0.125
      vertex 0.297348 0.265945 -0.125
    endloop
  endfacet
  facet normal 0.760754 0.649041 -0
    outer loop
      vertex 0.286621 0.278519 -0.125
      vertex 0.286621 0.278519 0.125
      vertex 0.297348 0.265945 0.125
    endloop
  endfacet
  facet normal 0.670157 0.74222 0
    outer loop
      vertex 0.247803 0.313568 -0.125
      vertex 0.286621 0.278519 0.125
      vertex 0.286621 0.278519 -0.125
    endloop
  endfacet
  facet normal 0.670157 0.74222 -0
    outer loop
      vertex 0.247803 0.313568 -0.125
      vertex 0.247803 0.313568 0.125
      vertex 0.286621 0.278519 0.125
    endloop
  endfacet
  facet normal 0.567222 0.823565 0
    outer loop
      vertex 0.204712 0.343246 -0.125
      vertex 0.247803 0.313568 0.125
      vertex 0.247803 0.313568 -0.125
    endloop
  endfacet
  facet normal 0.567222 0.823565 -0
    outer loop
      vertex 0.204712 0.343246 -0.125
      vertex 0.204712 0.343246 0.125
      vertex 0.247803 0.313568 0.125
    endloop
  endfacet
  facet normal 0.45488 0.890553 0
    outer loop
      vertex 0.15802 0.367096 -0.125
      vertex 0.204712 0.343246 0.125
      vertex 0.204712 0.343246 -0.125
    endloop
  endfacet
  facet normal 0.45488 0.890553 -0
    outer loop
      vertex 0.15802 0.367096 -0.125
      vertex 0.15802 0.367096 0.125
      vertex 0.204712 0.343246 0.125
    endloop
  endfacet
  facet normal 0.334721 0.942317 0
    outer loop
      vertex 0.108963 0.384521 -0.125
      vertex 0.15802 0.367096 0.125
      vertex 0.15802 0.367096 -0.125
    endloop
  endfacet
  facet normal 0.334721 0.942317 -0
    outer loop
      vertex 0.108963 0.384521 -0.125
      vertex 0.108963 0.384521 0.125
      vertex 0.15802 0.367096 0.125
    endloop
  endfacet
  facet normal 0.208992 0.977917 0
    outer loop
      vertex 0.0577698 0.395462 -0.125
      vertex 0.108963 0.384521 0.125
      vertex 0.108963 0.384521 -0.125
    endloop
  endfacet
  facet normal 0.208992 0.977917 -0
    outer loop
      vertex 0.0577698 0.395462 -0.125
      vertex 0.0577698 0.395462 0.125
      vertex 0.108963 0.384521 0.125
    endloop
  endfacet
  facet normal 0.0682504 0.997668 0
    outer loop
      vertex 0 0.399414 -0.125
      vertex 0.0577698 0.395462 0.125
      vertex 0.0577698 0.395462 -0.125
    endloop
  endfacet
  facet normal 0.0682504 0.997668 -0
    outer loop
      vertex 0 0.399414 -0.125
      vertex 0 0.399414 0.125
      vertex 0.0577698 0.395462 0.125
    endloop
  endfacet
  facet normal 1 0 0
    outer loop
      vertex 0 0.598846 -0.125
      vertex 0 0.399414 0.125
      vertex 0 0.399414 -0.125
    endloop
  endfacet
  facet normal 1 0 -0
    outer loop
      vertex 0 0.598846 -0.125
      vertex 0 0.598846 0.125
      vertex 0 0.399414 0.125
    endloop
  endfacet
  facet normal -0.0437282 0.999043 0
    outer loop
      vertex -0.0522919 0.596558 -0.125
      vertex 0 0.598846 0.125
      vertex 0 0.598846 -0.125
    endloop
  endfacet
  facet normal -0.0437282 0.999043 0
    outer loop
      vertex -0.0522919 0.596558 -0.125
      vertex -0.0522919 0.596558 0.125
      vertex 0 0.598846 0.125
    endloop
  endfacet
  facet normal -0.108974 0.994045 0
    outer loop
      vertex -0.0911255 0.5923 -0.125
      vertex -0.0522919 0.596558 0.125
      vertex -0.0522919 0.596558 -0.125
    endloop
  endfacet
  facet normal -0.108974 0.994045 0
    outer loop
      vertex -0.0911255 0.5923 -0.125
      vertex -0.0911255 0.5923 0.125
      vertex -0.0522919 0.596558 0.125
    endloop
  endfacet
  facet normal -0.216353 0.976315 0
    outer loop
      vertex -0.167557 0.575363 -0.125
      vertex -0.0911255 0.5923 0.125
      vertex -0.0911255 0.5923 -0.125
    endloop
  endfacet
  facet normal -0.216353 0.976315 0
    outer loop
      vertex -0.167557 0.575363 -0.125
      vertex -0.167557 0.575363 0.125
      vertex -0.0911255 0.5923 0.125
    endloop
  endfacet
  facet normal -0.341977 0.939708 0
    outer loop
      vertex -0.241226 0.548553 -0.125
      vertex -0.167557 0.575363 0.125
      vertex -0.167557 0.575363 -0.125
    endloop
  endfacet
  facet normal -0.341977 0.939708 0
    outer loop
      vertex -0.241226 0.548553 -0.125
      vertex -0.241226 0.548553 0.125
      vertex -0.167557 0.575363 0.125
    endloop
  endfacet
  facet normal -0.461635 0.88707 0
    outer loop
      vertex -0.310776 0.51236 -0.125
      vertex -0.241226 0.548553 0.125
      vertex -0.241226 0.548553 -0.125
    endloop
  endfacet
  facet normal -0.461635 0.88707 0
    outer loop
      vertex -0.310776 0.51236 -0.125
      vertex -0.310776 0.51236 0.125
      vertex -0.241226 0.548553 0.125
    endloop
  endfacet
  facet normal -0.573253 0.819378 0
    outer loop
      vertex -0.374985 0.467438 -0.125
      vertex -0.310776 0.51236 0.125
      vertex -0.310776 0.51236 -0.125
    endloop
  endfacet
  facet normal -0.573253 0.819378 0
    outer loop
      vertex -0.374985 0.467438 -0.125
      vertex -0.374985 0.467438 0.125
      vertex -0.310776 0.51236 0.125
    endloop
  endfacet
  facet normal -0.675381 0.737469 0
    outer loop
      vertex -0.4328 0.41449 -0.125
      vertex -0.374985 0.467438 0.125
      vertex -0.374985 0.467438 -0.125
    endloop
  endfacet
  facet normal -0.675381 0.737469 0
    outer loop
      vertex -0.4328 0.41449 -0.125
      vertex -0.4328 0.41449 0.125
      vertex -0.374985 0.467438 0.125
    endloop
  endfacet
  facet normal -0.766031 0.642804 0
    outer loop
      vertex -0.483185 0.354446 -0.125
      vertex -0.4328 0.41449 0.125
      vertex -0.4328 0.41449 -0.125
    endloop
  endfacet
  facet normal -0.766031 0.642804 0
    outer loop
      vertex -0.483185 0.354446 -0.125
      vertex -0.483185 0.354446 0.125
      vertex -0.4328 0.41449 0.125
    endloop
  endfacet
  facet normal -0.84326 0.537505 0
    outer loop
      vertex -0.525299 0.288376 -0.125
      vertex -0.483185 0.354446 0.125
      vertex -0.483185 0.354446 -0.125
    endloop
  endfacet
  facet normal -0.84326 0.537505 0
    outer loop
      vertex -0.525299 0.288376 -0.125
      vertex -0.525299 0.288376 0.125
      vertex -0.483185 0.354446 0.125
    endloop
  endfacet
  facet normal -0.906153 0.422949 0
    outer loop
      vertex -0.558502 0.217239 -0.125
      vertex -0.525299 0.288376 0.125
      vertex -0.525299 0.288376 -0.125
    endloop
  endfacet
  facet normal -0.906153 0.422949 0
    outer loop
      vertex -0.558502 0.217239 -0.125
      vertex -0.558502 0.217239 0.125
      vertex -0.525299 0.288376 0.125
    endloop
  endfacet
  facet normal -0.953703 0.300749 0
    outer loop
      vertex -0.582047 0.142578 -0.125
      vertex -0.558502 0.217239 0.125
      vertex -0.558502 0.217239 -0.125
    endloop
  endfacet
  facet normal -0.953703 0.300749 0
    outer loop
      vertex -0.582047 0.142578 -0.125
      vertex -0.582047 0.142578 0.125
      vertex -0.558502 0.217239 0.125
    endloop
  endfacet
  facet normal -0.984766 0.173885 0
    outer loop
      vertex -0.595688 0.0653229 -0.125
      vertex -0.582047 0.142578 0.125
      vertex -0.582047 0.142578 -0.125
    endloop
  endfacet
  facet normal -0.984766 0.173885 0
    outer loop
      vertex -0.595688 0.0653229 -0.125
      vertex -0.595688 0.0653229 0.125
      vertex -0.582047 0.142578 0.125
    endloop
  endfacet
  facet normal -0.997816 0.0660575 0
    outer loop
      vertex -0.596558 0.0521851 -0.125
      vertex -0.595688 0.0653229 0.125
      vertex -0.595688 0.0653229 -0.125
    endloop
  endfacet
  facet normal -0.997816 0.0660575 0
    outer loop
      vertex -0.596558 0.0521851 -0.125
      vertex -0.596558 0.0521851 0.125
      vertex -0.595688 0.0653229 0.125
    endloop
  endfacet
  facet normal -0.0871453 -0.996196 0
    outer loop
      vertex -0.317993 0.0278168 -0.125
      vertex -0.596558 0.0521851 0.125
      vertex -0.596558 0.0521851 -0.125
    endloop
  endfacet
  facet normal -0.0871453 -0.996196 0
    outer loop
      vertex -0.317993 0.0278168 -0.125
      vertex -0.317993 0.0278168 0.125
      vertex -0.596558 0.0521851 0.125
    endloop
  endfacet
  facet normal -0.99983 0.0184574 0
    outer loop
      vertex -0.318893 -0.0209503 -0.125
      vertex -0.317993 0.0278168 0.125
      vertex -0.317993 0.0278168 -0.125
    endloop
  endfacet
  facet normal -0.99983 0.0184574 0
    outer loop
      vertex -0.318893 -0.0209503 -0.125
      vertex -0.318893 -0.0209503 0.125
      vertex -0.317993 0.0278168 0.125
    endloop
  endfacet
  facet normal -0.991456 -0.130445 0
    outer loop
      vertex -0.313431 -0.0624695 -0.125
      vertex -0.318893 -0.0209503 0.125
      vertex -0.318893 -0.0209503 -0.125
    endloop
  endfacet
  facet normal -0.991456 -0.130445 0
    outer loop
      vertex -0.313431 -0.0624695 -0.125
      vertex -0.313431 -0.0624695 0.125
      vertex -0.318893 -0.0209503 0.125
    endloop
  endfacet
  facet normal -0.965749 -0.259477 0
    outer loop
      vertex -0.302567 -0.102905 -0.125
      vertex -0.313431 -0.0624695 0.125
      vertex -0.313431 -0.0624695 -0.125
    endloop
  endfacet
  facet normal -0.965749 -0.259477 0
    outer loop
      vertex -0.302567 -0.102905 -0.125
      vertex -0.302567 -0.102905 0.125
      vertex -0.313431 -0.0624695 0.125
    endloop
  endfacet
  facet normal -0.923789 -0.382901 0
    outer loop
      vertex -0.286591 -0.141449 -0.125
      vertex -0.302567 -0.102905 0.125
      vertex -0.302567 -0.102905 -0.125
    endloop
  endfacet
  facet normal -0.923789 -0.382901 0
    outer loop
      vertex -0.286591 -0.141449 -0.125
      vertex -0.286591 -0.141449 0.125
      vertex -0.302567 -0.102905 0.125
    endloop
  endfacet
  facet normal -0.856439 -0.516248 0
    outer loop
      vertex -0.26149 -0.18309 -0.125
      vertex -0.286591 -0.141449 0.125
      vertex -0.286591 -0.141449 -0.125
    endloop
  endfacet
  facet normal -0.856439 -0.516248 0
    outer loop
      vertex -0.26149 -0.18309 -0.125
      vertex -0.26149 -0.18309 0.125
      vertex -0.286591 -0.141449 0.125
    endloop
  endfacet
  facet normal -0.573583 0.819147 0
    outer loop
      vertex -0.49054 -0.343475 -0.125
      vertex -0.26149 -0.18309 0.125
      vertex -0.26149 -0.18309 -0.125
    endloop
  endfacet
  facet normal -0.573583 0.819147 0
    outer loop
      vertex -0.49054 -0.343475 -0.125
      vertex -0.49054 -0.343475 0.125
      vertex -0.26149 -0.18309 0.125
    endloop
  endfacet
  facet normal -0.793296 -0.608836 0
    outer loop
      vertex -0.45871 -0.384949 -0.125
      vertex -0.49054 -0.343475 0.125
      vertex -0.49054 -0.343475 -0.125
    endloop
  endfacet
  facet normal -0.793296 -0.608836 0
    outer loop
      vertex -0.45871 -0.384949 -0.125
      vertex -0.45871 -0.384949 0.125
      vertex -0.49054 -0.343475 0.125
    endloop
  endfacet
  facet normal -0.751949 -0.659221 0
    outer loop
      vertex -0.432892 -0.414398 -0.125
      vertex -0.45871 -0.384949 0.125
      vertex -0.45871 -0.384949 -0.125
    endloop
  endfacet
  facet normal -0.751949 -0.659221 0
    outer loop
      vertex -0.432892 -0.414398 -0.125
      vertex -0.432892 -0.414398 0.125
      vertex -0.45871 -0.384949 0.125
    endloop
  endfacet
  facet normal -0.675627 -0.737243 0
    outer loop
      vertex -0.375198 -0.46727 -0.125
      vertex -0.432892 -0.414398 0.125
      vertex -0.432892 -0.414398 -0.125
    endloop
  endfacet
  facet normal -0.675627 -0.737243 0
    outer loop
      vertex -0.375198 -0.46727 -0.125
      vertex -0.375198 -0.46727 0.125
      vertex -0.432892 -0.414398 0.125
    endloop
  endfacet
  facet normal -0.573658 -0.819095 0
    outer loop
      vertex -0.310883 -0.512314 -0.125
      vertex -0.375198 -0.46727 0.125
      vertex -0.375198 -0.46727 -0.125
    endloop
  endfacet
  facet normal -0.573658 -0.819095 0
    outer loop
      vertex -0.310883 -0.512314 -0.125
      vertex -0.310883 -0.512314 0.125
      vertex -0.375198 -0.46727 0.125
    endloop
  endfacet
  facet normal -0.461893 -0.886936 0
    outer loop
      vertex -0.24147 -0.548462 -0.125
      vertex -0.310883 -0.512314 0.125
      vertex -0.310883 -0.512314 -0.125
    endloop
  endfacet
  facet normal -0.461893 -0.886936 0
    outer loop
      vertex -0.24147 -0.548462 -0.125
      vertex -0.24147 -0.548462 0.125
      vertex -0.310883 -0.512314 0.125
    endloop
  endfacet
  facet normal -0.382557 -0.923932 0
    outer loop
      vertex -0.217148 -0.558533 -0.125
      vertex -0.24147 -0.548462 0.125
      vertex -0.24147 -0.548462 -0.125
    endloop
  endfacet
  facet normal -0.382557 -0.923932 0
    outer loop
      vertex -0.217148 -0.558533 -0.125
      vertex -0.217148 -0.558533 0.125
      vertex -0.24147 -0.548462 0.125
    endloop
  endfacet
  facet normal -0.321493 -0.946912 0
    outer loop
      vertex -0.167801 -0.575287 -0.125
      vertex -0.217148 -0.558533 0.125
      vertex -0.217148 -0.558533 -0.125
    endloop
  endfacet
  facet normal -0.321493 -0.946912 0
    outer loop
      vertex -0.167801 -0.575287 -0.125
      vertex -0.167801 -0.575287 0.125
      vertex -0.217148 -0.558533 0.125
    endloop
  endfacet
  facet normal -0.258669 -0.965966 0
    outer loop
      vertex -0.142273 -0.582123 -0.125
      vertex -0.167801 -0.575287 0.125
      vertex -0.167801 -0.575287 -0.125
    endloop
  endfacet
  facet normal -0.258669 -0.965966 0
    outer loop
      vertex -0.142273 -0.582123 -0.125
      vertex -0.142273 -0.582123 0.125
      vertex -0.167801 -0.575287 0.125
    endloop
  endfacet
  facet normal -0.195157 -0.980772 0
    outer loop
      vertex -0.0912781 -0.59227 -0.125
      vertex -0.142273 -0.582123 0.125
      vertex -0.142273 -0.582123 -0.125
    endloop
  endfacet
  facet normal -0.195157 -0.980772 0
    outer loop
      vertex -0.0912781 -0.59227 -0.125
      vertex -0.0912781 -0.59227 0.125
      vertex -0.142273 -0.582123 0.125
    endloop
  endfacet
  facet normal -0.130305 -0.991474 0
    outer loop
      vertex -0.065155 -0.595703 -0.125
      vertex -0.0912781 -0.59227 0.125
      vertex -0.0912781 -0.59227 -0.125
    endloop
  endfacet
  facet normal -0.130305 -0.991474 0
    outer loop
      vertex -0.065155 -0.595703 -0.125
      vertex -0.065155 -0.595703 0.125
      vertex -0.0912781 -0.59227 0.125
    endloop
  endfacet
  facet normal -0.0653902 -0.99786 0
    outer loop
      vertex -0.0132294 -0.599106 -0.125
      vertex -0.065155 -0.595703 0.125
      vertex -0.065155 -0.595703 -0.125
    endloop
  endfacet
  facet normal -0.0653902 -0.99786 0
    outer loop
      vertex -0.0132294 -0.599106 -0.125
      vertex -0.0132294 -0.599106 0.125
      vertex -0.065155 -0.595703 0.125
    endloop
  endfacet
  facet normal 0 -1 0
    outer loop
      vertex 0.0131836 -0.599106 -0.125
      vertex -0.0132294 -0.599106 0.125
      vertex -0.0132294 -0.599106 -0.125
    endloop
  endfacet
  facet normal 0 -1 0
    outer loop
      vertex 0.0131836 -0.599106 -0.125
      vertex 0.0131836 -0.599106 0.125
      vertex -0.0132294 -0.599106 0.125
    endloop
  endfacet
  facet normal 0.0652946 -0.997866 0
    outer loop
      vertex 0.0651855 -0.595703 -0.125
      vertex 0.0131836 -0.599106 0.125
      vertex 0.0131836 -0.599106 -0.125
    endloop
  endfacet
  facet normal 0.0652946 -0.997866 0
    outer loop
      vertex 0.0651855 -0.595703 -0.125
      vertex 0.0651855 -0.595703 0.125
      vertex 0.0131836 -0.599106 0.125
    endloop
  endfacet
  facet normal 0.0652514 0.997869 -0
    outer loop
      vertex -0.0127258 -0.0475311 -0.125
      vertex -0.0127258 -0.0475311 0.125
      vertex 0.00640869 -0.0487823 -0.125
    endloop
  endfacet
  facet normal 0.0652514 0.997869 0
    outer loop
      vertex 0.00640869 -0.0487823 0.125
      vertex 0.00640869 -0.0487823 -0.125
      vertex -0.0127258 -0.0475311 0.125
    endloop
  endfacet
  facet normal 0.442441 0.896797 -0
    outer loop
      vertex -0.029953 -0.039032 -0.125
      vertex -0.029953 -0.039032 0.125
      vertex -0.0127258 -0.0475311 -0.125
    endloop
  endfacet
  facet normal 0.442441 0.896797 0
    outer loop
      vertex -0.0127258 -0.0475311 0.125
      vertex -0.0127258 -0.0475311 -0.125
      vertex -0.029953 -0.039032 0.125
    endloop
  endfacet
  facet normal 0.75169 0.659517 -0
    outer loop
      vertex -0.0426178 -0.0245972 -0.125
      vertex -0.0426178 -0.0245972 0.125
      vertex -0.029953 -0.039032 -0.125
    endloop
  endfacet
  facet normal 0.75169 0.659517 0
    outer loop
      vertex -0.029953 -0.039032 0.125
      vertex -0.029953 -0.039032 -0.125
      vertex -0.0426178 -0.0245972 0.125
    endloop
  endfacet
  facet normal 0.947082 0.320991 -0
    outer loop
      vertex -0.0487823 -0.00640869 -0.125
      vertex -0.0487823 -0.00640869 0.125
      vertex -0.0426178 -0.0245972 -0.125
    endloop
  endfacet
  facet normal 0.947082 0.320991 0
    outer loop
      vertex -0.0426178 -0.0245972 0.125
      vertex -0.0426178 -0.0245972 -0.125
      vertex -0.0487823 -0.00640869 0.125
    endloop
  endfacet
  facet normal 0.997869 -0.0652514 0
    outer loop
      vertex -0.0475311 0.0127258 -0.125
      vertex -0.0475311 0.0127258 0.125
      vertex -0.0487823 -0.00640869 -0.125
    endloop
  endfacet
  facet normal 0.997869 -0.0652514 0
    outer loop
      vertex -0.0487823 -0.00640869 0.125
      vertex -0.0487823 -0.00640869 -0.125
      vertex -0.0475311 0.0127258 0.125
    endloop
  endfacet
  facet normal 0.896797 -0.442441 0
    outer loop
      vertex -0.039032 0.029953 -0.125
      vertex -0.039032 0.029953 0.125
      vertex -0.0475311 0.0127258 -0.125
    endloop
  endfacet
  facet normal 0.896797 -0.442441 0
    outer loop
      vertex -0.0475311 0.0127258 0.125
      vertex -0.0475311 0.0127258 -0.125
      vertex -0.039032 0.029953 0.125
    endloop
  endfacet
  facet normal 0.659517 -0.75169 0
    outer loop
      vertex -0.0245972 0.0426178 -0.125
      vertex -0.0245972 0.0426178 0.125
      vertex -0.039032 0.029953 -0.125
    endloop
  endfacet
  facet normal 0.659517 -0.75169 0
    outer loop
      vertex -0.039032 0.029953 0.125
      vertex -0.039032 0.029953 -0.125
      vertex -0.0245972 0.0426178 0.125
    endloop
  endfacet
  facet normal 0.320991 -0.947082 0
    outer loop
      vertex -0.00640869 0.0487823 -0.125
      vertex -0.00640869 0.0487823 0.125
      vertex -0.0245972 0.0426178 -0.125
    endloop
  endfacet
  facet normal 0.320991 -0.947082 0
    outer loop
      vertex -0.0245972 0.0426178 0.125
      vertex -0.0245972 0.0426178 -0.125
      vertex -0.00640869 0.0487823 0.125
    endloop
  endfacet
  facet normal -0.0652514 -0.997869 0
    outer loop
      vertex 0.0127258 0.0475311 -0.125
      vertex 0.0127258 0.0475311 0.125
      vertex -0.00640869 0.0487823 -0.125
    endloop
  endfacet
  facet normal -0.0652514 -0.997869 -0
    outer loop
      vertex -0.00640869 0.0487823 0.125
      vertex -0.00640869 0.0487823 -0.125
      vertex 0.0127258 0.0475311 0.125
    endloop
  endfacet
  facet normal -0.442441 -0.896797 0
    outer loop
      vertex 0.029953 0.039032 -0.125
      vertex 0.029953 0.039032 0.125
      vertex 0.0127258 0.0475311 -0.125
    endloop
  endfacet
  facet normal -0.442441 -0.896797 -0
    outer loop
      vertex 0.0127258 0.0475311 0.125
      vertex 0.0127258 0.0475311 -0.125
      vertex 0.029953 0.039032 0.125
    endloop
  endfacet
  facet normal -0.75169 -0.659517 0
    outer loop
      vertex 0.0426178 0.0245972 -0.125
      vertex 0.0426178 0.0245972 0.125
      vertex 0.029953 0.039032 -0.125
    endloop
  endfacet
  facet normal -0.75169 -0.659517 -0
    outer loop
      vertex 0.029953 0.039032 0.125
      vertex 0.029953 0.039032 -0.125
      vertex 0.0426178 0.0245972 0.125
    endloop
  endfacet
  facet normal -0.947082 -0.320991 0
    outer loop
      vertex 0.0487823 0.00640869 -0.125
      vertex 0.0487823 0.00640869 0.125
      vertex 0.0426178 0.0245972 -0.125
    endloop
  endfacet
  facet normal -0.947082 -0.320991 -0
    outer loop
      vertex 0.0426178 0.0245972 0.125
      vertex 0.0426178 0.0245972 -0.125
      vertex 0.0487823 0.00640869 0.125
    endloop
  endfacet
  facet normal -0.997869 0.0652514 0
    outer loop
      vertex 0.0475311 -0.0127258 -0.125
      vertex 0.0475311 -0.0127258 0.125
      vertex 0.0487823 0.00640869 -0.125
    endloop
  endfacet
  facet normal -0.997869 0.0652514 0
    outer loop
      vertex 0.0487823 0.00640869 0.125
      vertex 0.0487823 0.00640869 -0.125
      vertex 0.0475311 -0.0127258 0.125
    endloop
  endfacet
  facet normal -0.896797 0.442441 0
    outer loop
      vertex 0.039032 -0.029953 -0.125
      vertex 0.039032 -0.029953 0.125
      vertex 0.0475311 -0.0127258 -0.125
    endloop
  endfacet
  facet normal -0.896797 0.442441 0
    outer loop
      vertex 0.0475311 -0.0127258 0.125
      vertex 0.0475311 -0.0127258 -0.125
      vertex 0.039032 -0.029953 0.125
    endloop
  endfacet
  facet normal -0.659517 0.75169 0
    outer loop
      vertex 0.0245972 -0.0426178 -0.125
      vertex 0.0245972 -0.0426178 0.125
      vertex 0.039032 -0.029953 -0.125
    endloop
  endfacet
  facet normal -0.659517 0.75169 0
    outer loop
      vertex 0.039032 -0.029953 0.125
      vertex 0.039032 -0.029953 -0.125
      vertex 0.0245972 -0.0426178 0.125
    endloop
  endfacet
  facet normal -0.320991 0.947082 0
    outer loop
      vertex 0.00640869 -0.0487823 -0.125
      vertex 0.00640869 -0.0487823 0.125
      vertex 0.0245972 -0.0426178 -0.125
    endloop
  endfacet
  facet normal -0.320991 0.947082 0
    outer loop
      vertex 0.0245972 -0.0426178 0.125
      vertex 0.0245972 -0.0426178 -0.125
      vertex 0.00640869 -0.0487823 0.125
    endloop
  endfacet
  facet normal 0.195401 0.980723 -0
    outer loop
      vertex -0.113693 -0.424377 -0.125
      vertex -0.113693 -0.424377 0.125
      vertex -0.0573273 -0.435608 -0.125
    endloop
  endfacet
  facet normal 0.195401 0.980723 0
    outer loop
      vertex -0.0573273 -0.435608 0.125
      vertex -0.0573273 -0.435608 -0.125
      vertex -0.113693 -0.424377 0.125
    endloop
  endfacet
  facet normal 0.321241 0.946997 -0
    outer loop
      vertex -0.168121 -0.405914 -0.125
      vertex -0.168121 -0.405914 0.125
      vertex -0.113693 -0.424377 -0.125
    endloop
  endfacet
  facet normal 0.321241 0.946997 0
    outer loop
      vertex -0.113693 -0.424377 0.125
      vertex -0.113693 -0.424377 -0.125
      vertex -0.168121 -0.405914 0.125
    endloop
  endfacet
  facet normal 0.442322 0.896856 -0
    outer loop
      vertex -0.219666 -0.380493 -0.125
      vertex -0.219666 -0.380493 0.125
      vertex -0.168121 -0.405914 -0.125
    endloop
  endfacet
  facet normal 0.442322 0.896856 0
    outer loop
      vertex -0.168121 -0.405914 0.125
      vertex -0.168121 -0.405914 -0.125
      vertex -0.219666 -0.380493 0.125
    endloop
  endfacet
  facet normal 0.866029 -0.499993 0
    outer loop
      vertex -0.105133 -0.182114 -0.125
      vertex -0.105133 -0.182114 0.125
      vertex -0.219666 -0.380493 -0.125
    endloop
  endfacet
  facet normal 0.866029 -0.499993 0
    outer loop
      vertex -0.219666 -0.380493 0.125
      vertex -0.219666 -0.380493 -0.125
      vertex -0.105133 -0.182114 0.125
    endloop
  endfacet
  facet normal -0.449216 -0.893423 0
    outer loop
      vertex -0.0806427 -0.194427 -0.125
      vertex -0.0806427 -0.194427 0.125
      vertex -0.105133 -0.182114 -0.125
    endloop
  endfacet
  facet normal -0.449216 -0.893423 -0
    outer loop
      vertex -0.105133 -0.182114 0.125
      vertex -0.105133 -0.182114 -0.125
      vertex -0.0806427 -0.194427 0.125
    endloop
  endfacet
  facet normal -0.321863 -0.946786 0
    outer loop
      vertex -0.0545197 -0.203308 -0.125
      vertex -0.0545197 -0.203308 0.125
      vertex -0.0806427 -0.194427 -0.125
    endloop
  endfacet
  facet normal -0.321863 -0.946786 -0
    outer loop
      vertex -0.0806427 -0.194427 0.125
      vertex -0.0806427 -0.194427 -0.125
      vertex -0.0545197 -0.203308 0.125
    endloop
  endfacet
  facet normal -0.19569 -0.980666 0
    outer loop
      vertex -0.0275269 -0.208694 -0.125
      vertex -0.0275269 -0.208694 0.125
      vertex -0.0545197 -0.203308 -0.125
    endloop
  endfacet
  facet normal -0.19569 -0.980666 -0
    outer loop
      vertex -0.0545197 -0.203308 0.125
      vertex -0.0545197 -0.203308 -0.125
      vertex -0.0275269 -0.208694 0.125
    endloop
  endfacet
  facet normal -0.0655239 -0.997851 0
    outer loop
      vertex -0.000106812 -0.210495 -0.125
      vertex -0.000106812 -0.210495 0.125
      vertex -0.0275269 -0.208694 -0.125
    endloop
  endfacet
  facet normal -0.0655239 -0.997851 -0
    outer loop
      vertex -0.0275269 -0.208694 0.125
      vertex -0.0275269 -0.208694 -0.125
      vertex -0.000106812 -0.210495 0.125
    endloop
  endfacet
  facet normal 0.0653068 -0.997865 0
    outer loop
      vertex 0.0274048 -0.208694 -0.125
      vertex 0.0274048 -0.208694 0.125
      vertex -0.000106812 -0.210495 -0.125
    endloop
  endfacet
  facet normal 0.0653068 -0.997865 0
    outer loop
      vertex -0.000106812 -0.210495 0.125
      vertex -0.000106812 -0.210495 -0.125
      vertex 0.0274048 -0.208694 0.125
    endloop
  endfacet
  facet normal 0.194084 -0.980985 0
    outer loop
      vertex 0.0543213 -0.203369 -0.125
      vertex 0.0543213 -0.203369 0.125
      vertex 0.0274048 -0.208694 -0.125
    endloop
  endfacet
  facet normal 0.194084 -0.980985 0
    outer loop
      vertex 0.0274048 -0.208694 0.125
      vertex 0.0274048 -0.208694 -0.125
      vertex 0.0543213 -0.203369 0.125
    endloop
  endfacet
  facet normal 0.321358 -0.946958 0
    outer loop
      vertex 0.0804901 -0.194489 -0.125
      vertex 0.0804901 -0.194489 0.125
      vertex 0.0543213 -0.203369 -0.125
    endloop
  endfacet
  facet normal 0.321358 -0.946958 0
    outer loop
      vertex 0.0543213 -0.203369 0.125
      vertex 0.0543213 -0.203369 -0.125
      vertex 0.0804901 -0.194489 0.125
    endloop
  endfacet
  facet normal 0.44189 -0.897069 0
    outer loop
      vertex 0.105209 -0.182312 -0.125
      vertex 0.105209 -0.182312 0.125
      vertex 0.0804901 -0.194489 -0.125
    endloop
  endfacet
  facet normal 0.44189 -0.897069 0
    outer loop
      vertex 0.0804901 -0.194489 0.125
      vertex 0.0804901 -0.194489 -0.125
      vertex 0.105209 -0.182312 0.125
    endloop
  endfacet
  facet normal 0.555086 -0.831793 0
    outer loop
      vertex 0.128006 -0.167099 -0.125
      vertex 0.128006 -0.167099 0.125
      vertex 0.105209 -0.182312 -0.125
    endloop
  endfacet
  facet normal 0.555086 -0.831793 0
    outer loop
      vertex 0.105209 -0.182312 0.125
      vertex 0.105209 -0.182312 -0.125
      vertex 0.128006 -0.167099 0.125
    endloop
  endfacet
  facet normal 0.659131 -0.752028 0
    outer loop
      vertex 0.148758 -0.148911 -0.125
      vertex 0.148758 -0.148911 0.125
      vertex 0.128006 -0.167099 -0.125
    endloop
  endfacet
  facet normal 0.659131 -0.752028 0
    outer loop
      vertex 0.128006 -0.167099 0.125
      vertex 0.128006 -0.167099 -0.125
      vertex 0.148758 -0.148911 0.125
    endloop
  endfacet
  facet normal 0.751373 -0.659878 0
    outer loop
      vertex 0.166916 -0.128235 -0.125
      vertex 0.166916 -0.128235 0.125
      vertex 0.148758 -0.148911 -0.125
    endloop
  endfacet
  facet normal 0.751373 -0.659878 0
    outer loop
      vertex 0.148758 -0.148911 0.125
      vertex 0.148758 -0.148911 -0.125
      vertex 0.166916 -0.128235 0.125
    endloop
  endfacet
  facet normal 0.831284 -0.555848 0
    outer loop
      vertex 0.182251 -0.105301 -0.125
      vertex 0.182251 -0.105301 0.125
      vertex 0.166916 -0.128235 -0.125
    endloop
  endfacet
  facet normal 0.831284 -0.555848 0
    outer loop
      vertex 0.166916 -0.128235 0.125
      vertex 0.166916 -0.128235 -0.125
      vertex 0.182251 -0.105301 0.125
    endloop
  endfacet
  facet normal 0.896636 -0.442769 0
    outer loop
      vertex 0.194427 -0.0806427 -0.125
      vertex 0.194427 -0.0806427 0.125
      vertex 0.182251 -0.105301 -0.125
    endloop
  endfacet
  facet normal 0.896636 -0.442769 0
    outer loop
      vertex 0.182251 -0.105301 0.125
      vertex 0.182251 -0.105301 -0.125
      vertex 0.194427 -0.0806427 0.125
    endloop
  endfacet
  facet normal 0.946786 -0.321863 0
    outer loop
      vertex 0.203308 -0.0545197 -0.125
      vertex 0.203308 -0.0545197 0.125
      vertex 0.194427 -0.0806427 -0.125
    endloop
  endfacet
  facet normal 0.946786 -0.321863 0
    outer loop
      vertex 0.194427 -0.0806427 0.125
      vertex 0.194427 -0.0806427 -0.125
      vertex 0.203308 -0.0545197 0.125
    endloop
  endfacet
  facet normal 0.980666 -0.19569 0
    outer loop
      vertex 0.208694 -0.0275269 -0.125
      vertex 0.208694 -0.0275269 0.125
      vertex 0.203308 -0.0545197 -0.125
    endloop
  endfacet
  facet normal 0.980666 -0.19569 0
    outer loop
      vertex 0.203308 -0.0545197 0.125
      vertex 0.203308 -0.0545197 -0.125
      vertex 0.208694 -0.0275269 0.125
    endloop
  endfacet
  facet normal 0.998342 -0.0575541 0
    outer loop
      vertex 0.210281 0 -0.125
      vertex 0.210281 0 0.125
      vertex 0.208694 -0.0275269 -0.125
    endloop
  endfacet
  facet normal 0.998342 -0.0575541 0
    outer loop
      vertex 0.208694 -0.0275269 0.125
      vertex 0.208694 -0.0275269 -0.125
      vertex 0.210281 0 0.125
    endloop
  endfacet
  facet normal 0 -1 0
    outer loop
      vertex 0.439362 0 -0.125
      vertex 0.439362 0 0.125
      vertex 0.210281 0 -0.125
    endloop
  endfacet
  facet normal 0 -1 0
    outer loop
      vertex 0.210281 0 0.125
      vertex 0.210281 0 -0.125
      vertex 0.439362 0 0.125
    endloop
  endfacet
  facet normal -0.997863 0.0653379 0
    outer loop
      vertex 0.435608 -0.0573273 -0.125
      vertex 0.435608 -0.0573273 0.125
      vertex 0.439362 0 -0.125
    endloop
  endfacet
  facet normal -0.997863 0.0653379 0
    outer loop
      vertex 0.439362 0 0.125
      vertex 0.439362 0 -0.125
      vertex 0.435608 -0.0573273 0.125
    endloop
  endfacet
  facet normal -0.980723 0.195401 0
    outer loop
      vertex 0.424377 -0.113693 -0.125
      vertex 0.424377 -0.113693 0.125
      vertex 0.435608 -0.0573273 -0.125
    endloop
  endfacet
  facet normal -0.980723 0.195401 0
    outer loop
      vertex 0.435608 -0.0573273 0.125
      vertex 0.435608 -0.0573273 -0.125
      vertex 0.424377 -0.113693 0.125
    endloop
  endfacet
  facet normal -0.946997 0.321241 0
    outer loop
      vertex 0.405914 -0.168121 -0.125
      vertex 0.405914 -0.168121 0.125
      vertex 0.424377 -0.113693 -0.125
    endloop
  endfacet
  facet normal -0.946997 0.321241 0
    outer loop
      vertex 0.424377 -0.113693 0.125
      vertex 0.424377 -0.113693 -0.125
      vertex 0.405914 -0.168121 0.125
    endloop
  endfacet
  facet normal -0.896856 0.442322 0
    outer loop
      vertex 0.380493 -0.219666 -0.125
      vertex 0.380493 -0.219666 0.125
      vertex 0.405914 -0.168121 -0.125
    endloop
  endfacet
  facet normal -0.896856 0.442322 0
    outer loop
      vertex 0.405914 -0.168121 0.125
      vertex 0.405914 -0.168121 -0.125
      vertex 0.380493 -0.219666 0.125
    endloop
  endfacet
  facet normal -0.831478 0.555558 0
    outer loop
      vertex 0.348572 -0.267441 -0.125
      vertex 0.348572 -0.267441 0.125
      vertex 0.380493 -0.219666 -0.125
    endloop
  endfacet
  facet normal -0.831478 0.555558 0
    outer loop
      vertex 0.380493 -0.219666 0.125
      vertex 0.380493 -0.219666 -0.125
      vertex 0.348572 -0.267441 0.125
    endloop
  endfacet
  facet normal -0.751787 0.659406 0
    outer loop
      vertex 0.310669 -0.310654 -0.125
      vertex 0.310669 -0.310654 0.125
      vertex 0.348572 -0.267441 -0.125
    endloop
  endfacet
  facet normal -0.751787 0.659406 0
    outer loop
      vertex 0.348572 -0.267441 0.125
      vertex 0.348572 -0.267441 -0.125
      vertex 0.310669 -0.310654 0.125
    endloop
  endfacet
  facet normal -0.659538 0.751671 0
    outer loop
      vertex 0.267471 -0.348557 -0.125
      vertex 0.267471 -0.348557 0.125
      vertex 0.310669 -0.310654 -0.125
    endloop
  endfacet
  facet normal -0.659538 0.751671 0
    outer loop
      vertex 0.310669 -0.310654 0.125
      vertex 0.310669 -0.310654 -0.125
      vertex 0.267471 -0.348557 0.125
    endloop
  endfacet
  facet normal -0.555435 0.83156 0
    outer loop
      vertex 0.219681 -0.380478 -0.125
      vertex 0.219681 -0.380478 0.125
      vertex 0.267471 -0.348557 -0.125
    endloop
  endfacet
  facet normal -0.555435 0.83156 0
    outer loop
      vertex 0.267471 -0.348557 0.125
      vertex 0.267471 -0.348557 -0.125
      vertex 0.219681 -0.380478 0.125
    endloop
  endfacet
  facet normal -0.442216 0.896908 0
    outer loop
      vertex 0.168121 -0.405899 -0.125
      vertex 0.168121 -0.405899 0.125
      vertex 0.219681 -0.380478 -0.125
    endloop
  endfacet
  facet normal -0.442216 0.896908 0
    outer loop
      vertex 0.219681 -0.380478 0.125
      vertex 0.219681 -0.380478 -0.125
      vertex 0.168121 -0.405899 0.125
    endloop
  endfacet
  facet normal -0.321798 0.946808 0
    outer loop
      vertex 0.113708 -0.424393 -0.125
      vertex 0.113708 -0.424393 0.125
      vertex 0.168121 -0.405899 -0.125
    endloop
  endfacet
  facet normal -0.321798 0.946808 0
    outer loop
      vertex 0.168121 -0.405899 0.125
      vertex 0.168121 -0.405899 -0.125
      vertex 0.113708 -0.424393 0.125
    endloop
  endfacet
  facet normal -0.194891 0.980825 0
    outer loop
      vertex 0.0573425 -0.435593 -0.125
      vertex 0.0573425 -0.435593 0.125
      vertex 0.113708 -0.424393 -0.125
    endloop
  endfacet
  facet normal -0.194891 0.980825 0
    outer loop
      vertex 0.113708 -0.424393 0.125
      vertex 0.113708 -0.424393 -0.125
      vertex 0.0573425 -0.435593 0.125
    endloop
  endfacet
  facet normal -0.0655849 0.997847 0
    outer loop
      vertex 0 -0.439362 -0.125
      vertex 0 -0.439362 0.125
      vertex 0.0573425 -0.435593 -0.125
    endloop
  endfacet
  facet normal -0.0655849 0.997847 0
    outer loop
      vertex 0.0573425 -0.435593 0.125
      vertex 0.0573425 -0.435593 -0.125
      vertex 0 -0.439362 0.125
    endloop
  endfacet
  facet normal 0.0653379 0.997863 -0
    outer loop
      vertex -0.0573273 -0.435608 -0.125
      vertex -0.0573273 -0.435608 0.125
      vertex 0 -0.439362 -0.125
    endloop
  endfacet
  facet normal 0.0653379 0.997863 0
    outer loop
      vertex 0 -0.439362 0.125
      vertex 0 -0.439362 -0.125
      vertex -0.0573273 -0.435608 0.125
    endloop
  endfacet
endsolid OpenSCAD_Model
