solid OpenSCAD_Model
  facet normal 0 0 -1
    outer loop
      vertex 5.5 -17 0
      vertex 1.29904 -12.25 0
      vertex 5.5 17 0
    endloop
  endfacet
  facet normal 0 0 -1
    outer loop
      vertex 5.5 17 0
      vertex 1.44889 12.6118 0
      vertex 1.5 13 0
    endloop
  endfacet
  facet normal 0 0 -1
    outer loop
      vertex 1.29904 12.25 0
      vertex 5.5 17 0
      vertex 1.29904 -12.25 0
    endloop
  endfacet
  facet normal 0 0 -1
    outer loop
      vertex 5.5 17 0
      vertex 1.29904 12.25 0
      vertex 1.44889 12.6118 0
    endloop
  endfacet
  facet normal 0 0 -1
    outer loop
      vertex 1.06066 -11.9393 0
      vertex 1.29904 12.25 0
      vertex 1.29904 -12.25 0
    endloop
  endfacet
  facet normal 0 0 -1
    outer loop
      vertex 1.06066 -11.9393 0
      vertex 1.06066 11.9393 0
      vertex 1.29904 12.25 0
    endloop
  endfacet
  facet normal 0 0 -1
    outer loop
      vertex 0.75 -11.701 0
      vertex 1.06066 11.9393 0
      vertex 1.06066 -11.9393 0
    endloop
  endfacet
  facet normal 0 0 -1
    outer loop
      vertex 0.75 -11.701 0
      vertex 0.75 11.701 0
      vertex 1.06066 11.9393 0
    endloop
  endfacet
  facet normal 0 0 -1
    outer loop
      vertex 0.388228 -11.5511 0
      vertex 0.75 11.701 0
      vertex 0.75 -11.701 0
    endloop
  endfacet
  facet normal 0 0 -1
    outer loop
      vertex 0.388228 -11.5511 0
      vertex 0.388228 11.5511 0
      vertex 0.75 11.701 0
    endloop
  endfacet
  facet normal 0 0 -1
    outer loop
      vertex 0 -11.5 0
      vertex 0.388228 11.5511 0
      vertex 0.388228 -11.5511 0
    endloop
  endfacet
  facet normal 0 0 -1
    outer loop
      vertex 0 -11.5 0
      vertex 0 11.5 0
      vertex 0.388228 11.5511 0
    endloop
  endfacet
  facet normal 0 0 -1
    outer loop
      vertex -0.388228 -11.5511 0
      vertex 0 11.5 0
      vertex 0 -11.5 0
    endloop
  endfacet
  facet normal 0 0 -1
    outer loop
      vertex -0.388228 -11.5511 0
      vertex -0.388228 11.5511 0
      vertex 0 11.5 0
    endloop
  endfacet
  facet normal 0 0 -1
    outer loop
      vertex -0.749999 -11.701 0
      vertex -0.388228 11.5511 0
      vertex -0.388228 -11.5511 0
    endloop
  endfacet
  facet normal 0 0 -1
    outer loop
      vertex -0.749999 -11.701 0
      vertex -0.75 11.701 0
      vertex -0.388228 11.5511 0
    endloop
  endfacet
  facet normal 0 0 -1
    outer loop
      vertex -1.06066 -11.9393 0
      vertex -0.75 11.701 0
      vertex -0.749999 -11.701 0
    endloop
  endfacet
  facet normal 0 0 -1
    outer loop
      vertex -1.06066 -11.9393 0
      vertex -1.06066 11.9393 0
      vertex -0.75 11.701 0
    endloop
  endfacet
  facet normal 0 0 -1
    outer loop
      vertex -1.29904 -12.25 0
      vertex -1.06066 11.9393 0
      vertex -1.06066 -11.9393 0
    endloop
  endfacet
  facet normal 0 0 -1
    outer loop
      vertex -1.29904 -12.25 0
      vertex -1.29904 12.25 0
      vertex -1.06066 11.9393 0
    endloop
  endfacet
  facet normal 0 0 -1
    outer loop
      vertex -5.5 -17 0
      vertex -1.29904 -12.25 0
      vertex -1.44889 -12.6118 0
    endloop
  endfacet
  facet normal -0 0 -1
    outer loop
      vertex -1.29904 -12.25 0
      vertex -5.5 -17 0
      vertex -1.29904 12.25 0
    endloop
  endfacet
  facet normal 0 0 -1
    outer loop
      vertex -5.5 -17 0
      vertex -1.44889 -12.6118 0
      vertex -1.5 -13 0
    endloop
  endfacet
  facet normal 0 0 -1
    outer loop
      vertex -5.5 17 0
      vertex -1.29904 12.25 0
      vertex -5.5 -17 0
    endloop
  endfacet
  facet normal 0 0 -1
    outer loop
      vertex 1.44889 -12.6118 0
      vertex 5.5 -17 0
      vertex 1.5 -13 0
    endloop
  endfacet
  facet normal 0 0 -1
    outer loop
      vertex 5.5 -17 0
      vertex 1.44889 -13.3882 0
      vertex 1.5 -13 0
    endloop
  endfacet
  facet normal 0 0 -1
    outer loop
      vertex 5.5 -17 0
      vertex 1.29904 -13.75 0
      vertex 1.44889 -13.3882 0
    endloop
  endfacet
  facet normal 0 0 -1
    outer loop
      vertex 5.5 -17 0
      vertex 1.06066 -14.0607 0
      vertex 1.29904 -13.75 0
    endloop
  endfacet
  facet normal 0 0 -1
    outer loop
      vertex 5.5 -17 0
      vertex 0.75 -14.299 0
      vertex 1.06066 -14.0607 0
    endloop
  endfacet
  facet normal 0 0 -1
    outer loop
      vertex 5.5 -17 0
      vertex 0.388228 -14.4489 0
      vertex 0.75 -14.299 0
    endloop
  endfacet
  facet normal 0 0 -1
    outer loop
      vertex 5.5 -17 0
      vertex 0 -14.5 0
      vertex 0.388228 -14.4489 0
    endloop
  endfacet
  facet normal 0 0 -1
    outer loop
      vertex -5.5 -17 0
      vertex 0 -14.5 0
      vertex 5.5 -17 0
    endloop
  endfacet
  facet normal -0 0 -1
    outer loop
      vertex 0 -14.5 0
      vertex -5.5 -17 0
      vertex -0.388228 -14.4489 0
    endloop
  endfacet
  facet normal 0 0 -1
    outer loop
      vertex -1.29904 12.25 0
      vertex -5.5 17 0
      vertex -1.44889 12.6118 0
    endloop
  endfacet
  facet normal -0 0 -1
    outer loop
      vertex -1.44889 -13.3882 0
      vertex -5.5 -17 0
      vertex -1.5 -13 0
    endloop
  endfacet
  facet normal -0 0 -1
    outer loop
      vertex -1.29904 -13.75 0
      vertex -5.5 -17 0
      vertex -1.44889 -13.3882 0
    endloop
  endfacet
  facet normal -0 0 -1
    outer loop
      vertex -1.06066 -14.0607 0
      vertex -5.5 -17 0
      vertex -1.29904 -13.75 0
    endloop
  endfacet
  facet normal -0 0 -1
    outer loop
      vertex -0.75 -14.299 0
      vertex -5.5 -17 0
      vertex -1.06066 -14.0607 0
    endloop
  endfacet
  facet normal -0 0 -1
    outer loop
      vertex -0.388228 -14.4489 0
      vertex -5.5 -17 0
      vertex -0.75 -14.299 0
    endloop
  endfacet
  facet normal 0 0 -1
    outer loop
      vertex 1.29904 -12.25 0
      vertex 5.5 -17 0
      vertex 1.44889 -12.6118 0
    endloop
  endfacet
  facet normal 0 0 -1
    outer loop
      vertex 1.44889 13.3882 0
      vertex 5.5 17 0
      vertex 1.5 13 0
    endloop
  endfacet
  facet normal 0 0 -1
    outer loop
      vertex 1.29904 13.75 0
      vertex 5.5 17 0
      vertex 1.44889 13.3882 0
    endloop
  endfacet
  facet normal 0 0 -1
    outer loop
      vertex 1.06066 14.0607 0
      vertex 5.5 17 0
      vertex 1.29904 13.75 0
    endloop
  endfacet
  facet normal 0 0 -1
    outer loop
      vertex 0.75 14.299 0
      vertex 5.5 17 0
      vertex 1.06066 14.0607 0
    endloop
  endfacet
  facet normal 0 0 -1
    outer loop
      vertex 0.388228 14.4489 0
      vertex 5.5 17 0
      vertex 0.75 14.299 0
    endloop
  endfacet
  facet normal 0 0 -1
    outer loop
      vertex 0 14.5 0
      vertex 5.5 17 0
      vertex 0.388228 14.4489 0
    endloop
  endfacet
  facet normal 0 0 -1
    outer loop
      vertex -5.5 17 0
      vertex 0 14.5 0
      vertex -0.388228 14.4489 0
    endloop
  endfacet
  facet normal 0 0 -1
    outer loop
      vertex -5.5 17 0
      vertex -0.388228 14.4489 0
      vertex -0.749999 14.299 0
    endloop
  endfacet
  facet normal 0 0 -1
    outer loop
      vertex -1.44889 12.6118 0
      vertex -5.5 17 0
      vertex -1.5 13 0
    endloop
  endfacet
  facet normal 0 0 -1
    outer loop
      vertex 0 14.5 0
      vertex -5.5 17 0
      vertex 5.5 17 0
    endloop
  endfacet
  facet normal 0 0 -1
    outer loop
      vertex -1.06066 14.0607 0
      vertex -5.5 17 0
      vertex -0.749999 14.299 0
    endloop
  endfacet
  facet normal 0 0 -1
    outer loop
      vertex -1.29904 13.75 0
      vertex -5.5 17 0
      vertex -1.06066 14.0607 0
    endloop
  endfacet
  facet normal 0 0 -1
    outer loop
      vertex -1.44889 13.3882 0
      vertex -5.5 17 0
      vertex -1.29904 13.75 0
    endloop
  endfacet
  facet normal 0 0 -1
    outer loop
      vertex -1.5 13 0
      vertex -5.5 17 0
      vertex -1.44889 13.3882 0
    endloop
  endfacet
  facet normal 1 0 0
    outer loop
      vertex 5.5 4.83673 9.75982
      vertex 5.5 17 11
      vertex 5.5 5 11
    endloop
  endfacet
  facet normal 1 0 0
    outer loop
      vertex 5.5 4.82963 9.7059
      vertex 5.5 17 11
      vertex 5.5 4.83673 9.75982
    endloop
  endfacet
  facet normal 1 0 0
    outer loop
      vertex 5.5 4.80882 9.65566
      vertex 5.5 17 11
      vertex 5.5 4.82963 9.7059
    endloop
  endfacet
  facet normal 1 0 0
    outer loop
      vertex 5.5 4.33013 8.5
      vertex 5.5 17 11
      vertex 5.5 4.80882 9.65566
    endloop
  endfacet
  facet normal 1 0 0
    outer loop
      vertex 5.5 17 11
      vertex 5.5 4.33013 8.5
      vertex 5.5 17 0
    endloop
  endfacet
  facet normal 1 -0 0
    outer loop
      vertex 5.5 3.56864 7.50761
      vertex 5.5 17 0
      vertex 5.5 4.33013 8.5
    endloop
  endfacet
  facet normal 1 -0 0
    outer loop
      vertex 5.5 3.53553 7.46447
      vertex 5.5 17 0
      vertex 5.5 3.56864 7.50761
    endloop
  endfacet
  facet normal 1 -0 0
    outer loop
      vertex 5.5 2.5 6.66987
      vertex 5.5 17 0
      vertex 5.5 3.53553 7.46447
    endloop
  endfacet
  facet normal 1 -0 0
    outer loop
      vertex 5.5 1.2941 6.17037
      vertex 5.5 17 0
      vertex 5.5 2.5 6.66987
    endloop
  endfacet
  facet normal 1 -0 0
    outer loop
      vertex 5.5 1.24017 6.16327
      vertex 5.5 17 0
      vertex 5.5 1.2941 6.17037
    endloop
  endfacet
  facet normal 1 -0 0
    outer loop
      vertex 5.5 0 6
      vertex 5.5 17 0
      vertex 5.5 1.24017 6.16327
    endloop
  endfacet
  facet normal 1 0 0
    outer loop
      vertex 5.5 -17 0
      vertex 5.5 0 6
      vertex 5.5 -1.24017 6.16327
    endloop
  endfacet
  facet normal 1 0 0
    outer loop
      vertex 5.5 -17 0
      vertex 5.5 -1.24017 6.16327
      vertex 5.5 -1.2941 6.17037
    endloop
  endfacet
  facet normal 1 -0 0
    outer loop
      vertex 5.5 -17 11
      vertex 5.5 -4.82963 9.7059
      vertex 5.5 -5 11
    endloop
  endfacet
  facet normal 1 0 0
    outer loop
      vertex 5.5 -17 11
      vertex 5.5 -4.80882 9.65566
      vertex 5.5 -4.82963 9.7059
    endloop
  endfacet
  facet normal 1 0 0
    outer loop
      vertex 5.5 -17 11
      vertex 5.5 -4.33013 8.5
      vertex 5.5 -4.80882 9.65566
    endloop
  endfacet
  facet normal 1 0 0
    outer loop
      vertex 5.5 -17 0
      vertex 5.5 -4.33013 8.5
      vertex 5.5 -17 11
    endloop
  endfacet
  facet normal 1 0 0
    outer loop
      vertex 5.5 -4.33013 8.5
      vertex 5.5 -17 0
      vertex 5.5 -3.56864 7.50761
    endloop
  endfacet
  facet normal 1 0 0
    outer loop
      vertex 5.5 -3.56864 7.50761
      vertex 5.5 -17 0
      vertex 5.5 -3.53553 7.46447
    endloop
  endfacet
  facet normal 1 0 0
    outer loop
      vertex 5.5 -3.53553 7.46447
      vertex 5.5 -17 0
      vertex 5.5 -2.5 6.66987
    endloop
  endfacet
  facet normal 1 0 0
    outer loop
      vertex 5.5 -2.5 6.66987
      vertex 5.5 -17 0
      vertex 5.5 -1.2941 6.17037
    endloop
  endfacet
  facet normal 1 0 0
    outer loop
      vertex 5.5 0 6
      vertex 5.5 -17 0
      vertex 5.5 17 0
    endloop
  endfacet
  facet normal -1 0 0
    outer loop
      vertex -5.5 4.35094 8.55025
      vertex -5.5 17 11
      vertex -5.5 17 0
    endloop
  endfacet
  facet normal -1 0 0
    outer loop
      vertex -5.5 17 11
      vertex -5.5 4.9929 10.9461
      vertex -5.5 5 11
    endloop
  endfacet
  facet normal -1 0 0
    outer loop
      vertex -5.5 17 11
      vertex -5.5 4.82963 9.7059
      vertex -5.5 4.9929 10.9461
    endloop
  endfacet
  facet normal -1 0 0
    outer loop
      vertex -5.5 17 11
      vertex -5.5 4.35094 8.55025
      vertex -5.5 4.82963 9.7059
    endloop
  endfacet
  facet normal -1 0 0
    outer loop
      vertex -5.5 17 0
      vertex -5.5 4.33013 8.5
      vertex -5.5 4.35094 8.55025
    endloop
  endfacet
  facet normal -1 0 0
    outer loop
      vertex -5.5 17 0
      vertex -5.5 4.29702 8.45685
      vertex -5.5 4.33013 8.5
    endloop
  endfacet
  facet normal -1 0 0
    outer loop
      vertex -5.5 17 0
      vertex -5.5 3.53553 7.46447
      vertex -5.5 4.29702 8.45685
    endloop
  endfacet
  facet normal -1 0 0
    outer loop
      vertex -5.5 17 0
      vertex -5.5 2.5 6.66987
      vertex -5.5 3.53553 7.46447
    endloop
  endfacet
  facet normal -1 0 0
    outer loop
      vertex -5.5 17 0
      vertex -5.5 1.2941 6.17037
      vertex -5.5 2.5 6.66987
    endloop
  endfacet
  facet normal -1 0 0
    outer loop
      vertex -5.5 17 0
      vertex -5.5 0.0539205 6.0071
      vertex -5.5 1.2941 6.17037
    endloop
  endfacet
  facet normal -1 0 0
    outer loop
      vertex -5.5 17 0
      vertex -5.5 0 6
      vertex -5.5 0.0539205 6.0071
    endloop
  endfacet
  facet normal -1 0 0
    outer loop
      vertex -5.5 -17 0
      vertex -5.5 0 6
      vertex -5.5 17 0
    endloop
  endfacet
  facet normal -1 -0 0
    outer loop
      vertex -5.5 0 6
      vertex -5.5 -17 0
      vertex -5.5 -0.0539205 6.0071
    endloop
  endfacet
  facet normal -1 0 0
    outer loop
      vertex -5.5 -17 11
      vertex -5.5 -4.35094 8.55025
      vertex -5.5 -4.33013 8.5
    endloop
  endfacet
  facet normal -1 -0 0
    outer loop
      vertex -5.5 -0.0539205 6.0071
      vertex -5.5 -17 0
      vertex -5.5 -1.2941 6.17037
    endloop
  endfacet
  facet normal -1 0 0
    outer loop
      vertex -5.5 -17 0
      vertex -5.5 -2.5 6.66987
      vertex -5.5 -1.2941 6.17037
    endloop
  endfacet
  facet normal -1 0 0
    outer loop
      vertex -5.5 -17 0
      vertex -5.5 -3.53553 7.46447
      vertex -5.5 -2.5 6.66987
    endloop
  endfacet
  facet normal -1 0 0
    outer loop
      vertex -5.5 -17 0
      vertex -5.5 -4.29702 8.45685
      vertex -5.5 -3.53553 7.46447
    endloop
  endfacet
  facet normal -1 0 0
    outer loop
      vertex -5.5 -17 0
      vertex -5.5 -4.33013 8.5
      vertex -5.5 -4.29702 8.45685
    endloop
  endfacet
  facet normal -1 0 0
    outer loop
      vertex -5.5 -17 11
      vertex -5.5 -4.33013 8.5
      vertex -5.5 -17 0
    endloop
  endfacet
  facet normal -1 0 0
    outer loop
      vertex -5.5 -4.35094 8.55025
      vertex -5.5 -17 11
      vertex -5.5 -4.82963 9.7059
    endloop
  endfacet
  facet normal -1 0 0
    outer loop
      vertex -5.5 -4.82963 9.7059
      vertex -5.5 -17 11
      vertex -5.5 -5 11
    endloop
  endfacet
  facet normal 0 -1 0
    outer loop
      vertex -5.5 -17 0
      vertex 5.5 -17 11
      vertex -5.5 -17 11
    endloop
  endfacet
  facet normal 0 -1 -0
    outer loop
      vertex 5.5 -17 11
      vertex -5.5 -17 0
      vertex 5.5 -17 0
    endloop
  endfacet
  facet normal 0 1 -0
    outer loop
      vertex 5.5 17 0
      vertex -5.5 17 11
      vertex 5.5 17 11
    endloop
  endfacet
  facet normal 0 1 0
    outer loop
      vertex -5.5 17 11
      vertex 5.5 17 0
      vertex -5.5 17 0
    endloop
  endfacet
  facet normal -0 0 1
    outer loop
      vertex -5.5 -5 11
      vertex -2.7 -8.2 11
      vertex -2.7 -5 11
    endloop
  endfacet
  facet normal 0 0 1
    outer loop
      vertex -2.7 -8.2 11
      vertex -5.5 -5 11
      vertex -2.77128 -11.4 11
    endloop
  endfacet
  facet normal 0 0 1
    outer loop
      vertex -2.77128 -11.4 11
      vertex -5.5 -5 11
      vertex -3.09096 -12.1718 11
    endloop
  endfacet
  facet normal 0 0 1
    outer loop
      vertex -5.5 -17 11
      vertex -3.09096 -12.1718 11
      vertex -5.5 -5 11
    endloop
  endfacet
  facet normal -0 0 1
    outer loop
      vertex 3.09096 -12.1718 11
      vertex 5.5 -17 11
      vertex 5.5 -5 11
    endloop
  endfacet
  facet normal 0 0 1
    outer loop
      vertex 5.5 -17 11
      vertex 3.09096 -12.1718 11
      vertex 3.2 -13 11
    endloop
  endfacet
  facet normal 0 0 1
    outer loop
      vertex 5.5 -5 11
      vertex 2.77128 -11.4 11
      vertex 3.09096 -12.1718 11
    endloop
  endfacet
  facet normal 0 0 1
    outer loop
      vertex 2.7 -8.2 11
      vertex 5.5 -5 11
      vertex 2.7 -5 11
    endloop
  endfacet
  facet normal 0 0 1
    outer loop
      vertex 5.5 -5 11
      vertex 2.7 -8.2 11
      vertex 2.77128 -11.4 11
    endloop
  endfacet
  facet normal 0 0 1
    outer loop
      vertex 2.7 -8.2 11
      vertex 2.26274 -10.7373 11
      vertex 2.77128 -11.4 11
    endloop
  endfacet
  facet normal 0 0 1
    outer loop
      vertex 2.7 -8.2 11
      vertex 1.6 -10.2287 11
      vertex 2.26274 -10.7373 11
    endloop
  endfacet
  facet normal 0 0 1
    outer loop
      vertex 2.7 -8.2 11
      vertex 0.82822 -9.90904 11
      vertex 1.6 -10.2287 11
    endloop
  endfacet
  facet normal 0 0 1
    outer loop
      vertex 2.7 -8.2 11
      vertex 0 -9.8 11
      vertex 0.82822 -9.90904 11
    endloop
  endfacet
  facet normal -0 0 1
    outer loop
      vertex -2.7 -8.2 11
      vertex 0 -9.8 11
      vertex 2.7 -8.2 11
    endloop
  endfacet
  facet normal 0 0 1
    outer loop
      vertex 0 -9.8 11
      vertex -2.7 -8.2 11
      vertex -0.82822 -9.90904 11
    endloop
  endfacet
  facet normal 0 0 1
    outer loop
      vertex -0.82822 -9.90904 11
      vertex -2.7 -8.2 11
      vertex -1.6 -10.2287 11
    endloop
  endfacet
  facet normal 0 0 1
    outer loop
      vertex -2.7 -8.2 11
      vertex -2.26274 -10.7373 11
      vertex -1.6 -10.2287 11
    endloop
  endfacet
  facet normal 0 0 1
    outer loop
      vertex -2.26274 -10.7373 11
      vertex -2.7 -8.2 11
      vertex -2.77128 -11.4 11
    endloop
  endfacet
  facet normal -0 0 1
    outer loop
      vertex 3.09096 -13.8282 11
      vertex 5.5 -17 11
      vertex 3.2 -13 11
    endloop
  endfacet
  facet normal -0 0 1
    outer loop
      vertex 2.77128 -14.6 11
      vertex 5.5 -17 11
      vertex 3.09096 -13.8282 11
    endloop
  endfacet
  facet normal -0 0 1
    outer loop
      vertex 2.26274 -15.2627 11
      vertex 5.5 -17 11
      vertex 2.77128 -14.6 11
    endloop
  endfacet
  facet normal -0 0 1
    outer loop
      vertex 1.6 -15.7713 11
      vertex 5.5 -17 11
      vertex 2.26274 -15.2627 11
    endloop
  endfacet
  facet normal -0 0 1
    outer loop
      vertex 0.82822 -16.091 11
      vertex 5.5 -17 11
      vertex 1.6 -15.7713 11
    endloop
  endfacet
  facet normal -0 0 1
    outer loop
      vertex 0 -16.2 11
      vertex 5.5 -17 11
      vertex 0.82822 -16.091 11
    endloop
  endfacet
  facet normal 0 0 1
    outer loop
      vertex -5.5 -17 11
      vertex 0 -16.2 11
      vertex -0.82822 -16.091 11
    endloop
  endfacet
  facet normal 0 0 1
    outer loop
      vertex -3.09096 -12.1718 11
      vertex -5.5 -17 11
      vertex -3.2 -13 11
    endloop
  endfacet
  facet normal 0 0 1
    outer loop
      vertex 0 -16.2 11
      vertex -5.5 -17 11
      vertex 5.5 -17 11
    endloop
  endfacet
  facet normal 0 0 1
    outer loop
      vertex -1.6 -15.7713 11
      vertex -5.5 -17 11
      vertex -0.82822 -16.091 11
    endloop
  endfacet
  facet normal 0 0 1
    outer loop
      vertex -2.26274 -15.2627 11
      vertex -5.5 -17 11
      vertex -1.6 -15.7713 11
    endloop
  endfacet
  facet normal 0 0 1
    outer loop
      vertex -2.77128 -14.6 11
      vertex -5.5 -17 11
      vertex -2.26274 -15.2627 11
    endloop
  endfacet
  facet normal 0 0 1
    outer loop
      vertex -3.09096 -13.8282 11
      vertex -5.5 -17 11
      vertex -2.77128 -14.6 11
    endloop
  endfacet
  facet normal 0 0 1
    outer loop
      vertex -3.2 -13 11
      vertex -5.5 -17 11
      vertex -3.09096 -13.8282 11
    endloop
  endfacet
  facet normal -0 0 1
    outer loop
      vertex 2.42487 11.6 11
      vertex 2.7 8.2 11
      vertex 2.70459 12.2753 11
    endloop
  endfacet
  facet normal -0 0 1
    outer loop
      vertex 1.9799 11.0201 11
      vertex 2.7 8.2 11
      vertex 2.42487 11.6 11
    endloop
  endfacet
  facet normal -0 0 1
    outer loop
      vertex 1.4 10.5751 11
      vertex 2.7 8.2 11
      vertex 1.9799 11.0201 11
    endloop
  endfacet
  facet normal -0 0 1
    outer loop
      vertex 0.724693 10.2954 11
      vertex 2.7 8.2 11
      vertex 1.4 10.5751 11
    endloop
  endfacet
  facet normal -0 0 1
    outer loop
      vertex 0 10.2 11
      vertex 2.7 8.2 11
      vertex 0.724693 10.2954 11
    endloop
  endfacet
  facet normal 0 0 1
    outer loop
      vertex -2.7 8.2 11
      vertex 0 10.2 11
      vertex -0.724693 10.2954 11
    endloop
  endfacet
  facet normal 0 0 1
    outer loop
      vertex -2.7 8.2 11
      vertex -0.724693 10.2954 11
      vertex -1.4 10.5751 11
    endloop
  endfacet
  facet normal 0 0 1
    outer loop
      vertex 0 10.2 11
      vertex -2.7 8.2 11
      vertex 2.7 8.2 11
    endloop
  endfacet
  facet normal 0 0 1
    outer loop
      vertex -1.9799 11.0201 11
      vertex -2.7 8.2 11
      vertex -1.4 10.5751 11
    endloop
  endfacet
  facet normal 0 0 1
    outer loop
      vertex -2.42487 11.6 11
      vertex -2.7 8.2 11
      vertex -1.9799 11.0201 11
    endloop
  endfacet
  facet normal 0 0 1
    outer loop
      vertex -2.70459 12.2753 11
      vertex -2.7 8.2 11
      vertex -2.42487 11.6 11
    endloop
  endfacet
  facet normal 0 0 1
    outer loop
      vertex -5.5 5 11
      vertex -2.7 8.2 11
      vertex -2.70459 12.2753 11
    endloop
  endfacet
  facet normal 0 0 1
    outer loop
      vertex -5.5 17 11
      vertex -2.70459 12.2753 11
      vertex -2.8 13 11
    endloop
  endfacet
  facet normal 0 0 1
    outer loop
      vertex -2.70459 12.2753 11
      vertex -5.5 17 11
      vertex -5.5 5 11
    endloop
  endfacet
  facet normal 0 0 1
    outer loop
      vertex -2.7 8.2 11
      vertex -5.5 5 11
      vertex -2.7 5 11
    endloop
  endfacet
  facet normal 0 0 1
    outer loop
      vertex 2.70459 12.2753 11
      vertex 5.5 17 11
      vertex 2.8 13 11
    endloop
  endfacet
  facet normal 0 0 1
    outer loop
      vertex 5.5 17 11
      vertex 2.70459 13.7247 11
      vertex 2.8 13 11
    endloop
  endfacet
  facet normal 0 0 1
    outer loop
      vertex 5.5 17 11
      vertex 2.42487 14.4 11
      vertex 2.70459 13.7247 11
    endloop
  endfacet
  facet normal 0 0 1
    outer loop
      vertex 5.5 17 11
      vertex 1.9799 14.9799 11
      vertex 2.42487 14.4 11
    endloop
  endfacet
  facet normal 0 0 1
    outer loop
      vertex 5.5 17 11
      vertex 1.4 15.4249 11
      vertex 1.9799 14.9799 11
    endloop
  endfacet
  facet normal 0 0 1
    outer loop
      vertex 5.5 17 11
      vertex 0.724693 15.7046 11
      vertex 1.4 15.4249 11
    endloop
  endfacet
  facet normal 0 0 1
    outer loop
      vertex 5.5 17 11
      vertex 0 15.8 11
      vertex 0.724693 15.7046 11
    endloop
  endfacet
  facet normal -0 0 1
    outer loop
      vertex -5.5 17 11
      vertex 0 15.8 11
      vertex 5.5 17 11
    endloop
  endfacet
  facet normal 0 0 1
    outer loop
      vertex -2.70459 13.7247 11
      vertex -5.5 17 11
      vertex -2.8 13 11
    endloop
  endfacet
  facet normal 0 0 1
    outer loop
      vertex -2.42487 14.4 11
      vertex -5.5 17 11
      vertex -2.70459 13.7247 11
    endloop
  endfacet
  facet normal 0 0 1
    outer loop
      vertex -1.9799 14.9799 11
      vertex -5.5 17 11
      vertex -2.42487 14.4 11
    endloop
  endfacet
  facet normal 0 0 1
    outer loop
      vertex -1.4 15.4249 11
      vertex -5.5 17 11
      vertex -1.9799 14.9799 11
    endloop
  endfacet
  facet normal 0 0 1
    outer loop
      vertex -0.724693 15.7046 11
      vertex -5.5 17 11
      vertex -1.4 15.4249 11
    endloop
  endfacet
  facet normal 0 0 1
    outer loop
      vertex 0 15.8 11
      vertex -5.5 17 11
      vertex -0.724693 15.7046 11
    endloop
  endfacet
  facet normal 0 0 1
    outer loop
      vertex 5.5 17 11
      vertex 2.70459 12.2753 11
      vertex 5.5 5 11
    endloop
  endfacet
  facet normal -0 0 1
    outer loop
      vertex 2.7 8.2 11
      vertex 5.5 5 11
      vertex 2.70459 12.2753 11
    endloop
  endfacet
  facet normal 0 0 1
    outer loop
      vertex 5.5 5 11
      vertex 2.7 8.2 11
      vertex 2.7 5 11
    endloop
  endfacet
  facet normal 0.991445 0.130526 0
    outer loop
      vertex 2.8 13 16.5
      vertex 2.70459 13.7247 11
      vertex 2.70459 13.7247 16.5
    endloop
  endfacet
  facet normal 0.991445 0.130526 0
    outer loop
      vertex 2.70459 13.7247 11
      vertex 2.8 13 16.5
      vertex 2.8 13 11
    endloop
  endfacet
  facet normal -0.130526 0.991445 0
    outer loop
      vertex 0 15.8 11
      vertex -0.724693 15.7046 16.5
      vertex 0 15.8 16.5
    endloop
  endfacet
  facet normal -0.130526 0.991445 0
    outer loop
      vertex -0.724693 15.7046 16.5
      vertex 0 15.8 11
      vertex -0.724693 15.7046 11
    endloop
  endfacet
  facet normal 0.130526 -0.991445 0
    outer loop
      vertex 0 10.2 11
      vertex 0.724693 10.2954 16.5
      vertex 0 10.2 16.5
    endloop
  endfacet
  facet normal 0.130526 -0.991445 0
    outer loop
      vertex 0.724693 10.2954 16.5
      vertex 0 10.2 11
      vertex 0.724693 10.2954 11
    endloop
  endfacet
  facet normal 0.608761 0.793353 -0
    outer loop
      vertex 1.9799 14.9799 11
      vertex 1.4 15.4249 16.5
      vertex 1.9799 14.9799 16.5
    endloop
  endfacet
  facet normal 0.608761 0.793353 0
    outer loop
      vertex 1.4 15.4249 16.5
      vertex 1.9799 14.9799 11
      vertex 1.4 15.4249 11
    endloop
  endfacet
  facet normal 0.382684 0.923879 -0
    outer loop
      vertex 1.4 15.4249 11
      vertex 0.724693 15.7046 16.5
      vertex 1.4 15.4249 16.5
    endloop
  endfacet
  facet normal 0.382684 0.923879 0
    outer loop
      vertex 0.724693 15.7046 16.5
      vertex 1.4 15.4249 11
      vertex 0.724693 15.7046 11
    endloop
  endfacet
  facet normal -0.793353 0.608761 0
    outer loop
      vertex -2.42487 14.4 11
      vertex -1.9799 14.9799 16.5
      vertex -1.9799 14.9799 11
    endloop
  endfacet
  facet normal -0.793353 0.608761 0
    outer loop
      vertex -1.9799 14.9799 16.5
      vertex -2.42487 14.4 11
      vertex -2.42487 14.4 16.5
    endloop
  endfacet
  facet normal -0.923879 0.382684 0
    outer loop
      vertex -2.70459 13.7247 11
      vertex -2.42487 14.4 16.5
      vertex -2.42487 14.4 11
    endloop
  endfacet
  facet normal -0.923879 0.382684 0
    outer loop
      vertex -2.42487 14.4 16.5
      vertex -2.70459 13.7247 11
      vertex -2.70459 13.7247 16.5
    endloop
  endfacet
  facet normal -0.608761 0.793353 0
    outer loop
      vertex -1.4 15.4249 11
      vertex -1.9799 14.9799 16.5
      vertex -1.4 15.4249 16.5
    endloop
  endfacet
  facet normal -0.608761 0.793353 0
    outer loop
      vertex -1.9799 14.9799 16.5
      vertex -1.4 15.4249 11
      vertex -1.9799 14.9799 11
    endloop
  endfacet
  facet normal 0.923879 -0.382684 0
    outer loop
      vertex 2.42487 11.6 16.5
      vertex 2.70459 12.2753 11
      vertex 2.70459 12.2753 16.5
    endloop
  endfacet
  facet normal 0.923879 -0.382684 0
    outer loop
      vertex 2.70459 12.2753 11
      vertex 2.42487 11.6 16.5
      vertex 2.42487 11.6 11
    endloop
  endfacet
  facet normal -0.382684 -0.923879 0
    outer loop
      vertex -1.4 10.5751 11
      vertex -0.724693 10.2954 16.5
      vertex -1.4 10.5751 16.5
    endloop
  endfacet
  facet normal -0.382684 -0.923879 -0
    outer loop
      vertex -0.724693 10.2954 16.5
      vertex -1.4 10.5751 11
      vertex -0.724693 10.2954 11
    endloop
  endfacet
  facet normal 0.793353 0.608761 0
    outer loop
      vertex 2.42487 14.4 16.5
      vertex 1.9799 14.9799 11
      vertex 1.9799 14.9799 16.5
    endloop
  endfacet
  facet normal 0.793353 0.608761 0
    outer loop
      vertex 1.9799 14.9799 11
      vertex 2.42487 14.4 16.5
      vertex 2.42487 14.4 11
    endloop
  endfacet
  facet normal 0.923879 0.382684 0
    outer loop
      vertex 2.70459 13.7247 16.5
      vertex 2.42487 14.4 11
      vertex 2.42487 14.4 16.5
    endloop
  endfacet
  facet normal 0.923879 0.382684 0
    outer loop
      vertex 2.42487 14.4 11
      vertex 2.70459 13.7247 16.5
      vertex 2.70459 13.7247 11
    endloop
  endfacet
  facet normal 0.130526 0.991445 -0
    outer loop
      vertex 0.724693 15.7046 11
      vertex 0 15.8 16.5
      vertex 0.724693 15.7046 16.5
    endloop
  endfacet
  facet normal 0.130526 0.991445 0
    outer loop
      vertex 0 15.8 16.5
      vertex 0.724693 15.7046 11
      vertex 0 15.8 11
    endloop
  endfacet
  facet normal -0.991445 0.130526 0
    outer loop
      vertex -2.8 13 11
      vertex -2.70459 13.7247 16.5
      vertex -2.70459 13.7247 11
    endloop
  endfacet
  facet normal -0.991445 0.130526 0
    outer loop
      vertex -2.70459 13.7247 16.5
      vertex -2.8 13 11
      vertex -2.8 13 16.5
    endloop
  endfacet
  facet normal 0 0 1
    outer loop
      vertex 1.5 13 16.5
      vertex 2.8 13 16.5
      vertex 2.70459 13.7247 16.5
    endloop
  endfacet
  facet normal 0 0 1
    outer loop
      vertex 1.44889 13.3882 16.5
      vertex 2.70459 13.7247 16.5
      vertex 2.42487 14.4 16.5
    endloop
  endfacet
  facet normal 0 0 1
    outer loop
      vertex 2.8 13 16.5
      vertex 1.5 13 16.5
      vertex 2.70459 12.2753 16.5
    endloop
  endfacet
  facet normal 0 0 1
    outer loop
      vertex 1.29904 13.75 16.5
      vertex 2.42487 14.4 16.5
      vertex 1.9799 14.9799 16.5
    endloop
  endfacet
  facet normal -0 0 1
    outer loop
      vertex 1.44889 12.6118 16.5
      vertex 2.70459 12.2753 16.5
      vertex 1.5 13 16.5
    endloop
  endfacet
  facet normal 0 0 1
    outer loop
      vertex 2.70459 12.2753 16.5
      vertex 1.44889 12.6118 16.5
      vertex 2.42487 11.6 16.5
    endloop
  endfacet
  facet normal 0 0 1
    outer loop
      vertex 2.70459 13.7247 16.5
      vertex 1.44889 13.3882 16.5
      vertex 1.5 13 16.5
    endloop
  endfacet
  facet normal 0 0 1
    outer loop
      vertex 1.06066 14.0607 16.5
      vertex 1.9799 14.9799 16.5
      vertex 1.4 15.4249 16.5
    endloop
  endfacet
  facet normal 0 0 1
    outer loop
      vertex 2.42487 14.4 16.5
      vertex 1.29904 13.75 16.5
      vertex 1.44889 13.3882 16.5
    endloop
  endfacet
  facet normal 0 0 1
    outer loop
      vertex 1.9799 14.9799 16.5
      vertex 1.06066 14.0607 16.5
      vertex 1.29904 13.75 16.5
    endloop
  endfacet
  facet normal 0 0 1
    outer loop
      vertex 1.4 15.4249 16.5
      vertex 0.75 14.299 16.5
      vertex 1.06066 14.0607 16.5
    endloop
  endfacet
  facet normal 0 0 1
    outer loop
      vertex 0.724693 15.7046 16.5
      vertex 0.75 14.299 16.5
      vertex 1.4 15.4249 16.5
    endloop
  endfacet
  facet normal 0 0 1
    outer loop
      vertex 0.724693 15.7046 16.5
      vertex 0.388228 14.4489 16.5
      vertex 0.75 14.299 16.5
    endloop
  endfacet
  facet normal 0 0 1
    outer loop
      vertex 0 15.8 16.5
      vertex 0.388228 14.4489 16.5
      vertex 0.724693 15.7046 16.5
    endloop
  endfacet
  facet normal 0 0 1
    outer loop
      vertex 0 15.8 16.5
      vertex 0 14.5 16.5
      vertex 0.388228 14.4489 16.5
    endloop
  endfacet
  facet normal 0 0 1
    outer loop
      vertex 0 15.8 16.5
      vertex -0.388228 14.4489 16.5
      vertex 0 14.5 16.5
    endloop
  endfacet
  facet normal -0 0 1
    outer loop
      vertex -0.724693 15.7046 16.5
      vertex -0.388228 14.4489 16.5
      vertex 0 15.8 16.5
    endloop
  endfacet
  facet normal 0 0 1
    outer loop
      vertex -0.724693 15.7046 16.5
      vertex -0.749999 14.299 16.5
      vertex -0.388228 14.4489 16.5
    endloop
  endfacet
  facet normal -0 0 1
    outer loop
      vertex -1.4 15.4249 16.5
      vertex -0.749999 14.299 16.5
      vertex -0.724693 15.7046 16.5
    endloop
  endfacet
  facet normal 0 0 1
    outer loop
      vertex -0.749999 14.299 16.5
      vertex -1.4 15.4249 16.5
      vertex -1.06066 14.0607 16.5
    endloop
  endfacet
  facet normal -0 0 1
    outer loop
      vertex -1.9799 14.9799 16.5
      vertex -1.06066 14.0607 16.5
      vertex -1.4 15.4249 16.5
    endloop
  endfacet
  facet normal 0 0 1
    outer loop
      vertex -1.06066 14.0607 16.5
      vertex -1.9799 14.9799 16.5
      vertex -1.29904 13.75 16.5
    endloop
  endfacet
  facet normal -0 0 1
    outer loop
      vertex -2.42487 14.4 16.5
      vertex -1.29904 13.75 16.5
      vertex -1.9799 14.9799 16.5
    endloop
  endfacet
  facet normal 0 0 1
    outer loop
      vertex -1.29904 13.75 16.5
      vertex -2.42487 14.4 16.5
      vertex -1.44889 13.3882 16.5
    endloop
  endfacet
  facet normal -0 0 1
    outer loop
      vertex 1.29904 12.25 16.5
      vertex 2.42487 11.6 16.5
      vertex 1.44889 12.6118 16.5
    endloop
  endfacet
  facet normal 0 0 1
    outer loop
      vertex 2.42487 11.6 16.5
      vertex 1.29904 12.25 16.5
      vertex 1.9799 11.0201 16.5
    endloop
  endfacet
  facet normal -0 0 1
    outer loop
      vertex 1.06066 11.9393 16.5
      vertex 1.9799 11.0201 16.5
      vertex 1.29904 12.25 16.5
    endloop
  endfacet
  facet normal 0 0 1
    outer loop
      vertex 1.9799 11.0201 16.5
      vertex 1.06066 11.9393 16.5
      vertex 1.4 10.5751 16.5
    endloop
  endfacet
  facet normal -0 0 1
    outer loop
      vertex 0.75 11.701 16.5
      vertex 1.4 10.5751 16.5
      vertex 1.06066 11.9393 16.5
    endloop
  endfacet
  facet normal 0 0 1
    outer loop
      vertex 0.75 11.701 16.5
      vertex 0.724693 10.2954 16.5
      vertex 1.4 10.5751 16.5
    endloop
  endfacet
  facet normal -0 0 1
    outer loop
      vertex 0.388228 11.5511 16.5
      vertex 0.724693 10.2954 16.5
      vertex 0.75 11.701 16.5
    endloop
  endfacet
  facet normal -0 0 1
    outer loop
      vertex 0 11.5 16.5
      vertex 0.724693 10.2954 16.5
      vertex 0.388228 11.5511 16.5
    endloop
  endfacet
  facet normal 0 0 1
    outer loop
      vertex 0 11.5 16.5
      vertex 0 10.2 16.5
      vertex 0.724693 10.2954 16.5
    endloop
  endfacet
  facet normal 0 0 1
    outer loop
      vertex -0.388228 11.5511 16.5
      vertex 0 10.2 16.5
      vertex 0 11.5 16.5
    endloop
  endfacet
  facet normal 0 0 1
    outer loop
      vertex -0.388228 11.5511 16.5
      vertex -0.724693 10.2954 16.5
      vertex 0 10.2 16.5
    endloop
  endfacet
  facet normal 0 0 1
    outer loop
      vertex -0.75 11.701 16.5
      vertex -0.724693 10.2954 16.5
      vertex -0.388228 11.5511 16.5
    endloop
  endfacet
  facet normal 0 0 1
    outer loop
      vertex -1.4 10.5751 16.5
      vertex -0.75 11.701 16.5
      vertex -1.06066 11.9393 16.5
    endloop
  endfacet
  facet normal 0 0 1
    outer loop
      vertex -1.9799 11.0201 16.5
      vertex -1.06066 11.9393 16.5
      vertex -1.29904 12.25 16.5
    endloop
  endfacet
  facet normal 0 0 1
    outer loop
      vertex -0.75 11.701 16.5
      vertex -1.4 10.5751 16.5
      vertex -0.724693 10.2954 16.5
    endloop
  endfacet
  facet normal 0 0 1
    outer loop
      vertex -2.42487 11.6 16.5
      vertex -1.29904 12.25 16.5
      vertex -1.44889 12.6118 16.5
    endloop
  endfacet
  facet normal 0 0 1
    outer loop
      vertex -2.70459 12.2753 16.5
      vertex -1.44889 12.6118 16.5
      vertex -1.5 13 16.5
    endloop
  endfacet
  facet normal -0 0 1
    outer loop
      vertex -2.70459 13.7247 16.5
      vertex -1.44889 13.3882 16.5
      vertex -2.42487 14.4 16.5
    endloop
  endfacet
  facet normal 0 0 1
    outer loop
      vertex -1.06066 11.9393 16.5
      vertex -1.9799 11.0201 16.5
      vertex -1.4 10.5751 16.5
    endloop
  endfacet
  facet normal 0 0 1
    outer loop
      vertex -1.44889 13.3882 16.5
      vertex -2.70459 13.7247 16.5
      vertex -1.5 13 16.5
    endloop
  endfacet
  facet normal 0 0 1
    outer loop
      vertex -1.29904 12.25 16.5
      vertex -2.42487 11.6 16.5
      vertex -1.9799 11.0201 16.5
    endloop
  endfacet
  facet normal 0 0 1
    outer loop
      vertex -2.8 13 16.5
      vertex -1.5 13 16.5
      vertex -2.70459 13.7247 16.5
    endloop
  endfacet
  facet normal 0 0 1
    outer loop
      vertex -1.44889 12.6118 16.5
      vertex -2.70459 12.2753 16.5
      vertex -2.42487 11.6 16.5
    endloop
  endfacet
  facet normal 0 0 1
    outer loop
      vertex -1.5 13 16.5
      vertex -2.8 13 16.5
      vertex -2.70459 12.2753 16.5
    endloop
  endfacet
  facet normal -0.382684 0.923879 0
    outer loop
      vertex -0.724693 15.7046 11
      vertex -1.4 15.4249 16.5
      vertex -0.724693 15.7046 16.5
    endloop
  endfacet
  facet normal -0.382684 0.923879 0
    outer loop
      vertex -1.4 15.4249 16.5
      vertex -0.724693 15.7046 11
      vertex -1.4 15.4249 11
    endloop
  endfacet
  facet normal 0.991445 -0.130526 0
    outer loop
      vertex 2.70459 12.2753 16.5
      vertex 2.8 13 11
      vertex 2.8 13 16.5
    endloop
  endfacet
  facet normal 0.991445 -0.130526 0
    outer loop
      vertex 2.8 13 11
      vertex 2.70459 12.2753 16.5
      vertex 2.70459 12.2753 11
    endloop
  endfacet
  facet normal 0.382684 -0.923879 0
    outer loop
      vertex 0.724693 10.2954 11
      vertex 1.4 10.5751 16.5
      vertex 0.724693 10.2954 16.5
    endloop
  endfacet
  facet normal 0.382684 -0.923879 0
    outer loop
      vertex 1.4 10.5751 16.5
      vertex 0.724693 10.2954 11
      vertex 1.4 10.5751 11
    endloop
  endfacet
  facet normal 0.793353 -0.608761 0
    outer loop
      vertex 1.9799 11.0201 16.5
      vertex 2.42487 11.6 11
      vertex 2.42487 11.6 16.5
    endloop
  endfacet
  facet normal 0.793353 -0.608761 0
    outer loop
      vertex 2.42487 11.6 11
      vertex 1.9799 11.0201 16.5
      vertex 1.9799 11.0201 11
    endloop
  endfacet
  facet normal -0.130526 -0.991445 0
    outer loop
      vertex -0.724693 10.2954 11
      vertex 0 10.2 16.5
      vertex -0.724693 10.2954 16.5
    endloop
  endfacet
  facet normal -0.130526 -0.991445 -0
    outer loop
      vertex 0 10.2 16.5
      vertex -0.724693 10.2954 11
      vertex 0 10.2 11
    endloop
  endfacet
  facet normal -0.608761 -0.793353 0
    outer loop
      vertex -1.9799 11.0201 11
      vertex -1.4 10.5751 16.5
      vertex -1.9799 11.0201 16.5
    endloop
  endfacet
  facet normal -0.608761 -0.793353 -0
    outer loop
      vertex -1.4 10.5751 16.5
      vertex -1.9799 11.0201 11
      vertex -1.4 10.5751 11
    endloop
  endfacet
  facet normal -0.923879 -0.382684 0
    outer loop
      vertex -2.42487 11.6 11
      vertex -2.70459 12.2753 16.5
      vertex -2.70459 12.2753 11
    endloop
  endfacet
  facet normal -0.923879 -0.382684 0
    outer loop
      vertex -2.70459 12.2753 16.5
      vertex -2.42487 11.6 11
      vertex -2.42487 11.6 16.5
    endloop
  endfacet
  facet normal -0.991445 -0.130526 0
    outer loop
      vertex -2.70459 12.2753 11
      vertex -2.8 13 16.5
      vertex -2.8 13 11
    endloop
  endfacet
  facet normal -0.991445 -0.130526 0
    outer loop
      vertex -2.8 13 16.5
      vertex -2.70459 12.2753 11
      vertex -2.70459 12.2753 16.5
    endloop
  endfacet
  facet normal 0.608761 -0.793353 0
    outer loop
      vertex 1.4 10.5751 11
      vertex 1.9799 11.0201 16.5
      vertex 1.4 10.5751 16.5
    endloop
  endfacet
  facet normal 0.608761 -0.793353 0
    outer loop
      vertex 1.9799 11.0201 16.5
      vertex 1.4 10.5751 11
      vertex 1.9799 11.0201 11
    endloop
  endfacet
  facet normal -0.793353 -0.608761 0
    outer loop
      vertex -1.9799 11.0201 11
      vertex -2.42487 11.6 16.5
      vertex -2.42487 11.6 11
    endloop
  endfacet
  facet normal -0.793353 -0.608761 0
    outer loop
      vertex -2.42487 11.6 16.5
      vertex -1.9799 11.0201 11
      vertex -1.9799 11.0201 16.5
    endloop
  endfacet
  facet normal 0 -0.130526 0.991445
    outer loop
      vertex -2.7 2.12232 3.07941
      vertex 2.7 0 2.8
      vertex 2.7 2.12232 3.07941
    endloop
  endfacet
  facet normal 0 -0.130526 0.991445
    outer loop
      vertex 2.7 0 2.8
      vertex -2.7 2.12232 3.07941
      vertex -2.7 0 2.8
    endloop
  endfacet
  facet normal 1 0 0
    outer loop
      vertex -2.7 8.2 11
      vertex -2.7 4.95315 10.6441
      vertex -2.7 7.92059 8.87768
    endloop
  endfacet
  facet normal 1 0 0
    outer loop
      vertex -2.7 4.46749 8.83162
      vertex -2.7 7.92059 8.87768
      vertex -2.7 4.82963 9.7059
    endloop
  endfacet
  facet normal 1 0 0
    outer loop
      vertex -2.7 8.2 11
      vertex -2.7 5 11
      vertex -2.7 4.95315 10.6441
    endloop
  endfacet
  facet normal 1 0 0
    outer loop
      vertex -2.7 7.92059 8.87768
      vertex -2.7 4.95315 10.6441
      vertex -2.7 4.82963 9.7059
    endloop
  endfacet
  facet normal 1 0 0
    outer loop
      vertex -2.7 7.92059 8.87768
      vertex -2.7 4.46749 8.83162
      vertex -2.7 7.10141 6.9
    endloop
  endfacet
  facet normal 1 -0 0
    outer loop
      vertex -2.7 4.33013 8.5
      vertex -2.7 7.10141 6.9
      vertex -2.7 4.46749 8.83162
    endloop
  endfacet
  facet normal 1 -0 0
    outer loop
      vertex -2.7 4.11161 8.21523
      vertex -2.7 7.10141 6.9
      vertex -2.7 4.33013 8.5
    endloop
  endfacet
  facet normal 1 0 0
    outer loop
      vertex -2.7 7.10141 6.9
      vertex -2.7 4.11161 8.21523
      vertex -2.7 5.79827 5.20172
    endloop
  endfacet
  facet normal 1 -0 0
    outer loop
      vertex -2.7 3.53553 7.46447
      vertex -2.7 5.79827 5.20172
      vertex -2.7 4.11161 8.21523
    endloop
  endfacet
  facet normal 1 0 0
    outer loop
      vertex -2.7 5.79827 5.20172
      vertex -2.7 3.53553 7.46447
      vertex -2.7 4.1 3.89859
    endloop
  endfacet
  facet normal 1 -0 0
    outer loop
      vertex -2.7 2.5 6.66987
      vertex -2.7 4.1 3.89859
      vertex -2.7 3.53553 7.46447
    endloop
  endfacet
  facet normal 1 0 0
    outer loop
      vertex -2.7 2.5 6.66987
      vertex -2.7 2.12232 3.07941
      vertex -2.7 4.1 3.89859
    endloop
  endfacet
  facet normal 1 -0 0
    outer loop
      vertex -2.7 1.2941 6.17037
      vertex -2.7 2.12232 3.07941
      vertex -2.7 2.5 6.66987
    endloop
  endfacet
  facet normal 1 -0 0
    outer loop
      vertex -2.7 0.355876 6.04685
      vertex -2.7 2.12232 3.07941
      vertex -2.7 1.2941 6.17037
    endloop
  endfacet
  facet normal 1 0 0
    outer loop
      vertex -2.7 0 2.8
      vertex -2.7 0.355876 6.04685
      vertex -2.7 0 6
    endloop
  endfacet
  facet normal 1 0 0
    outer loop
      vertex -2.7 0.355876 6.04685
      vertex -2.7 0 2.8
      vertex -2.7 2.12232 3.07941
    endloop
  endfacet
  facet normal 1 0 0
    outer loop
      vertex -2.7 -0.355876 6.04685
      vertex -2.7 0 2.8
      vertex -2.7 0 6
    endloop
  endfacet
  facet normal 1 0 0
    outer loop
      vertex -2.7 -2.12232 3.07941
      vertex -2.7 -0.355876 6.04685
      vertex -2.7 -1.2941 6.17037
    endloop
  endfacet
  facet normal 1 0 0
    outer loop
      vertex -2.7 -0.355876 6.04685
      vertex -2.7 -2.12232 3.07941
      vertex -2.7 0 2.8
    endloop
  endfacet
  facet normal 1 0 0
    outer loop
      vertex -2.7 -2.5 6.66987
      vertex -2.7 -2.12232 3.07941
      vertex -2.7 -1.2941 6.17037
    endloop
  endfacet
  facet normal 1 0 0
    outer loop
      vertex -2.7 -4.1 3.89859
      vertex -2.7 -2.5 6.66987
      vertex -2.7 -3.53553 7.46447
    endloop
  endfacet
  facet normal 1 0 0
    outer loop
      vertex -2.7 -2.5 6.66987
      vertex -2.7 -4.1 3.89859
      vertex -2.7 -2.12232 3.07941
    endloop
  endfacet
  facet normal 1 0 0
    outer loop
      vertex -2.7 -5.79827 5.20172
      vertex -2.7 -3.53553 7.46447
      vertex -2.7 -4.11161 8.21523
    endloop
  endfacet
  facet normal 1 0 0
    outer loop
      vertex -2.7 -7.10141 6.9
      vertex -2.7 -4.11161 8.21523
      vertex -2.7 -4.33013 8.5
    endloop
  endfacet
  facet normal 1 0 0
    outer loop
      vertex -2.7 -7.10141 6.9
      vertex -2.7 -4.33013 8.5
      vertex -2.7 -4.46749 8.83162
    endloop
  endfacet
  facet normal 1 -0 0
    outer loop
      vertex -2.7 -7.92059 8.87768
      vertex -2.7 -4.46749 8.83162
      vertex -2.7 -4.82963 9.7059
    endloop
  endfacet
  facet normal 1 0 0
    outer loop
      vertex -2.7 -7.92059 8.87768
      vertex -2.7 -4.82963 9.7059
      vertex -2.7 -5 11
    endloop
  endfacet
  facet normal 1 0 0
    outer loop
      vertex -2.7 -3.53553 7.46447
      vertex -2.7 -5.79827 5.20172
      vertex -2.7 -4.1 3.89859
    endloop
  endfacet
  facet normal 1 0 0
    outer loop
      vertex -2.7 -4.11161 8.21523
      vertex -2.7 -7.10141 6.9
      vertex -2.7 -5.79827 5.20172
    endloop
  endfacet
  facet normal 1 0 0
    outer loop
      vertex -2.7 -4.46749 8.83162
      vertex -2.7 -7.92059 8.87768
      vertex -2.7 -7.10141 6.9
    endloop
  endfacet
  facet normal 1 0 -0
    outer loop
      vertex -2.7 -7.92059 8.87768
      vertex -2.7 -5 11
      vertex -2.7 -8.2 11
    endloop
  endfacet
  facet normal 0 -0.92388 0.382683
    outer loop
      vertex -2.7 7.10141 6.9
      vertex 2.7 7.92059 8.87768
      vertex -2.7 7.92059 8.87768
    endloop
  endfacet
  facet normal 0 -0.92388 0.382683
    outer loop
      vertex 2.7 7.92059 8.87768
      vertex -2.7 7.10141 6.9
      vertex 2.7 7.10141 6.9
    endloop
  endfacet
  facet normal 0 -0.991445 0.130526
    outer loop
      vertex 2.7 7.92059 8.87768
      vertex -2.7 8.2 11
      vertex -2.7 7.92059 8.87768
    endloop
  endfacet
  facet normal -2.30518e-08 -0.991445 0.130526
    outer loop
      vertex 2.7 7.92059 8.87768
      vertex 2.7 8.2 11
      vertex -2.7 8.2 11
    endloop
  endfacet
  facet normal -0 0.382683 0.92388
    outer loop
      vertex -2.7 -2.12232 3.07941
      vertex 2.7 -4.1 3.89859
      vertex 2.7 -2.12232 3.07941
    endloop
  endfacet
  facet normal 0 0.382683 0.92388
    outer loop
      vertex 2.7 -4.1 3.89859
      vertex -2.7 -2.12232 3.07941
      vertex -2.7 -4.1 3.89859
    endloop
  endfacet
  facet normal 0 -0.608762 0.793353
    outer loop
      vertex -2.7 5.79827 5.20172
      vertex 2.7 4.1 3.89859
      vertex 2.7 5.79827 5.20172
    endloop
  endfacet
  facet normal 0 -0.608762 0.793353
    outer loop
      vertex 2.7 4.1 3.89859
      vertex -2.7 5.79827 5.20172
      vertex -2.7 4.1 3.89859
    endloop
  endfacet
  facet normal 0 -0.382683 0.92388
    outer loop
      vertex -2.7 4.1 3.89859
      vertex 2.7 2.12232 3.07941
      vertex 2.7 4.1 3.89859
    endloop
  endfacet
  facet normal 0 -0.382683 0.92388
    outer loop
      vertex 2.7 2.12232 3.07941
      vertex -2.7 4.1 3.89859
      vertex -2.7 2.12232 3.07941
    endloop
  endfacet
  facet normal 0 -0.793353 0.608762
    outer loop
      vertex -2.7 5.79827 5.20172
      vertex 2.7 7.10141 6.9
      vertex -2.7 7.10141 6.9
    endloop
  endfacet
  facet normal 0 -0.793353 0.608762
    outer loop
      vertex 2.7 7.10141 6.9
      vertex -2.7 5.79827 5.20172
      vertex 2.7 5.79827 5.20172
    endloop
  endfacet
  facet normal 0 0.793353 0.608762
    outer loop
      vertex 2.7 -5.79827 5.20172
      vertex -2.7 -7.10141 6.9
      vertex 2.7 -7.10141 6.9
    endloop
  endfacet
  facet normal 0 0.793353 0.608762
    outer loop
      vertex -2.7 -7.10141 6.9
      vertex 2.7 -5.79827 5.20172
      vertex -2.7 -5.79827 5.20172
    endloop
  endfacet
  facet normal -0 0.130526 0.991445
    outer loop
      vertex -2.7 0 2.8
      vertex 2.7 -2.12232 3.07941
      vertex 2.7 0 2.8
    endloop
  endfacet
  facet normal 0 0.130526 0.991445
    outer loop
      vertex 2.7 -2.12232 3.07941
      vertex -2.7 0 2.8
      vertex -2.7 -2.12232 3.07941
    endloop
  endfacet
  facet normal -1 0 0
    outer loop
      vertex 2.7 4.69227 9.37428
      vertex 2.7 7.92059 8.87768
      vertex 2.7 7.10141 6.9
    endloop
  endfacet
  facet normal -1 0 0
    outer loop
      vertex 2.7 3.75405 7.74924
      vertex 2.7 7.10141 6.9
      vertex 2.7 5.79827 5.20172
    endloop
  endfacet
  facet normal -1 0 0
    outer loop
      vertex 2.7 7.92059 8.87768
      vertex 2.7 4.69227 9.37428
      vertex 2.7 4.82963 9.7059
    endloop
  endfacet
  facet normal -1 -0 0
    outer loop
      vertex 2.7 8.2 11
      vertex 2.7 4.87648 10.0618
      vertex 2.7 5 11
    endloop
  endfacet
  facet normal -1 0 0
    outer loop
      vertex 2.7 7.92059 8.87768
      vertex 2.7 4.87648 10.0618
      vertex 2.7 8.2 11
    endloop
  endfacet
  facet normal -1 0 -0
    outer loop
      vertex 2.7 4.87648 10.0618
      vertex 2.7 7.92059 8.87768
      vertex 2.7 4.82963 9.7059
    endloop
  endfacet
  facet normal -1 0 0
    outer loop
      vertex 2.7 7.10141 6.9
      vertex 2.7 4.33013 8.5
      vertex 2.7 4.69227 9.37428
    endloop
  endfacet
  facet normal -1 0 0
    outer loop
      vertex 2.7 3.53553 7.46447
      vertex 2.7 5.79827 5.20172
      vertex 2.7 4.1 3.89859
    endloop
  endfacet
  facet normal -1 0 0
    outer loop
      vertex 2.7 7.10141 6.9
      vertex 2.7 3.75405 7.74924
      vertex 2.7 4.33013 8.5
    endloop
  endfacet
  facet normal -1 0 0
    outer loop
      vertex 2.7 5.79827 5.20172
      vertex 2.7 3.53553 7.46447
      vertex 2.7 3.75405 7.74924
    endloop
  endfacet
  facet normal -1 0 0
    outer loop
      vertex 2.7 4.1 3.89859
      vertex 2.7 2.5 6.66987
      vertex 2.7 3.53553 7.46447
    endloop
  endfacet
  facet normal -1 0 0
    outer loop
      vertex 2.7 2.12232 3.07941
      vertex 2.7 2.5 6.66987
      vertex 2.7 4.1 3.89859
    endloop
  endfacet
  facet normal -1 0 0
    outer loop
      vertex 2.7 2.12232 3.07941
      vertex 2.7 1.2941 6.17037
      vertex 2.7 2.5 6.66987
    endloop
  endfacet
  facet normal -1 0 0
    outer loop
      vertex 2.7 2.12232 3.07941
      vertex 2.7 0.938219 6.12352
      vertex 2.7 1.2941 6.17037
    endloop
  endfacet
  facet normal -1 0 0
    outer loop
      vertex 2.7 0 2.8
      vertex 2.7 0.938219 6.12352
      vertex 2.7 2.12232 3.07941
    endloop
  endfacet
  facet normal -1 0 0
    outer loop
      vertex 2.7 0 2.8
      vertex 2.7 0 6
      vertex 2.7 0.938219 6.12352
    endloop
  endfacet
  facet normal -1 0 0
    outer loop
      vertex 2.7 0 2.8
      vertex 2.7 -0.938219 6.12352
      vertex 2.7 0 6
    endloop
  endfacet
  facet normal -1 0 0
    outer loop
      vertex 2.7 -2.12232 3.07941
      vertex 2.7 -0.938219 6.12352
      vertex 2.7 0 2.8
    endloop
  endfacet
  facet normal -1 -0 0
    outer loop
      vertex 2.7 -0.938219 6.12352
      vertex 2.7 -2.12232 3.07941
      vertex 2.7 -1.2941 6.17037
    endloop
  endfacet
  facet normal -1 0 0
    outer loop
      vertex 2.7 -2.12232 3.07941
      vertex 2.7 -2.5 6.66987
      vertex 2.7 -1.2941 6.17037
    endloop
  endfacet
  facet normal -1 0 0
    outer loop
      vertex 2.7 -4.1 3.89859
      vertex 2.7 -2.5 6.66987
      vertex 2.7 -2.12232 3.07941
    endloop
  endfacet
  facet normal -1 -0 0
    outer loop
      vertex 2.7 -2.5 6.66987
      vertex 2.7 -4.1 3.89859
      vertex 2.7 -3.53553 7.46447
    endloop
  endfacet
  facet normal -1 0 0
    outer loop
      vertex 2.7 -5.79827 5.20172
      vertex 2.7 -3.53553 7.46447
      vertex 2.7 -4.1 3.89859
    endloop
  endfacet
  facet normal -1 -0 0
    outer loop
      vertex 2.7 -3.53553 7.46447
      vertex 2.7 -5.79827 5.20172
      vertex 2.7 -3.75405 7.74924
    endloop
  endfacet
  facet normal -1 0 0
    outer loop
      vertex 2.7 -7.10141 6.9
      vertex 2.7 -3.75405 7.74924
      vertex 2.7 -5.79827 5.20172
    endloop
  endfacet
  facet normal -1 -0 0
    outer loop
      vertex 2.7 -3.75405 7.74924
      vertex 2.7 -7.10141 6.9
      vertex 2.7 -4.33013 8.5
    endloop
  endfacet
  facet normal -1 -0 0
    outer loop
      vertex 2.7 -4.33013 8.5
      vertex 2.7 -7.10141 6.9
      vertex 2.7 -4.69227 9.37428
    endloop
  endfacet
  facet normal -1 0 0
    outer loop
      vertex 2.7 -7.92059 8.87768
      vertex 2.7 -4.69227 9.37428
      vertex 2.7 -7.10141 6.9
    endloop
  endfacet
  facet normal -1 -0 0
    outer loop
      vertex 2.7 -4.69227 9.37428
      vertex 2.7 -7.92059 8.87768
      vertex 2.7 -4.82963 9.7059
    endloop
  endfacet
  facet normal -1 -0 0
    outer loop
      vertex 2.7 -4.82963 9.7059
      vertex 2.7 -7.92059 8.87768
      vertex 2.7 -5 11
    endloop
  endfacet
  facet normal -1 -0 0
    outer loop
      vertex 2.7 -5 11
      vertex 2.7 -7.92059 8.87768
      vertex 2.7 -8.2 11
    endloop
  endfacet
  facet normal 0 0.92388 0.382683
    outer loop
      vertex 2.7 -7.10141 6.9
      vertex -2.7 -7.92059 8.87768
      vertex 2.7 -7.92059 8.87768
    endloop
  endfacet
  facet normal 0 0.92388 0.382683
    outer loop
      vertex -2.7 -7.92059 8.87768
      vertex 2.7 -7.10141 6.9
      vertex -2.7 -7.10141 6.9
    endloop
  endfacet
  facet normal 0 0.991445 0.130526
    outer loop
      vertex 2.7 -7.92059 8.87768
      vertex -2.7 -8.2 11
      vertex 2.7 -8.2 11
    endloop
  endfacet
  facet normal 0 0.991445 0.130526
    outer loop
      vertex -2.7 -8.2 11
      vertex 2.7 -7.92059 8.87768
      vertex -2.7 -7.92059 8.87768
    endloop
  endfacet
  facet normal -0 0.608762 0.793353
    outer loop
      vertex -2.7 -4.1 3.89859
      vertex 2.7 -5.79827 5.20172
      vertex 2.7 -4.1 3.89859
    endloop
  endfacet
  facet normal 0 0.608762 0.793353
    outer loop
      vertex 2.7 -5.79827 5.20172
      vertex -2.7 -4.1 3.89859
      vertex -2.7 -5.79827 5.20172
    endloop
  endfacet
  facet normal 0 -0.130526 0.991445
    outer loop
      vertex -5.5 1.2941 6.17037
      vertex -2.7 0.355876 6.04685
      vertex -2.7 1.2941 6.17037
    endloop
  endfacet
  facet normal -5.60665e-08 -0.130526 0.991445
    outer loop
      vertex -2.7 0.355876 6.04685
      vertex -5.5 1.2941 6.17037
      vertex -5.5 0.0539205 6.0071
    endloop
  endfacet
  facet normal 0 -0.130524 0.991445
    outer loop
      vertex 2.7 1.2941 6.17037
      vertex 5.5 1.24017 6.16327
      vertex 5.5 1.2941 6.17037
    endloop
  endfacet
  facet normal -4.55426e-08 -0.130527 0.991445
    outer loop
      vertex 5.5 1.24017 6.16327
      vertex 2.7 1.2941 6.17037
      vertex 2.7 0.938219 6.12352
    endloop
  endfacet
  facet normal -1.85129e-07 -0.130525 0.991445
    outer loop
      vertex -5.5 0.0539205 6.0071
      vertex -2.7 0 6
      vertex -2.7 0.355876 6.04685
    endloop
  endfacet
  facet normal -1.68842e-07 -0.130524 0.991445
    outer loop
      vertex -2.7 0 6
      vertex -5.5 0.0539205 6.0071
      vertex -5.5 0 6
    endloop
  endfacet
  facet normal -1.36144e-07 -0.130526 0.991445
    outer loop
      vertex 2.7 0.938219 6.12352
      vertex 5.5 0 6
      vertex 5.5 1.24017 6.16327
    endloop
  endfacet
  facet normal -1.68842e-07 -0.130526 0.991445
    outer loop
      vertex 5.5 0 6
      vertex 2.7 0.938219 6.12352
      vertex 2.7 0 6
    endloop
  endfacet
  facet normal 0 -0.991445 0.130524
    outer loop
      vertex -5.5 4.9929 10.9461
      vertex -2.7 5 11
      vertex -5.5 5 11
    endloop
  endfacet
  facet normal -5.27838e-08 -0.991445 0.130527
    outer loop
      vertex -2.7 5 11
      vertex -5.5 4.9929 10.9461
      vertex -2.7 4.95315 10.6441
    endloop
  endfacet
  facet normal 0 -0.991445 0.130526
    outer loop
      vertex 2.7 4.87648 10.0618
      vertex 5.5 5 11
      vertex 2.7 5 11
    endloop
  endfacet
  facet normal -8.00679e-08 -0.991445 0.130526
    outer loop
      vertex 5.5 5 11
      vertex 2.7 4.87648 10.0618
      vertex 5.5 4.83673 9.75982
    endloop
  endfacet
  facet normal -5.99054e-09 -0.793353 0.608761
    outer loop
      vertex -5.5 3.53553 7.46447
      vertex -2.7 4.11161 8.21523
      vertex -5.5 4.29702 8.45685
    endloop
  endfacet
  facet normal 0 -0.793353 0.608761
    outer loop
      vertex -2.7 4.11161 8.21523
      vertex -5.5 3.53553 7.46447
      vertex -2.7 3.53553 7.46447
    endloop
  endfacet
  facet normal 2.74633e-08 -0.793354 0.608761
    outer loop
      vertex 2.7 3.53553 7.46447
      vertex 5.5 3.56864 7.50761
      vertex 2.7 3.75405 7.74924
    endloop
  endfacet
  facet normal 0 -0.793353 0.608762
    outer loop
      vertex 5.5 3.56864 7.50761
      vertex 2.7 3.53553 7.46447
      vertex 5.5 3.53553 7.46447
    endloop
  endfacet
  facet normal 0 -0.793355 0.608759
    outer loop
      vertex -5.5 4.29702 8.45685
      vertex -2.7 4.33013 8.5
      vertex -5.5 4.33013 8.5
    endloop
  endfacet
  facet normal -4.00904e-08 -0.793354 0.608761
    outer loop
      vertex -2.7 4.33013 8.5
      vertex -5.5 4.29702 8.45685
      vertex -2.7 4.11161 8.21523
    endloop
  endfacet
  facet normal 0 -0.793354 0.608761
    outer loop
      vertex 2.7 3.75405 7.74924
      vertex 5.5 4.33013 8.5
      vertex 2.7 4.33013 8.5
    endloop
  endfacet
  facet normal -5.36823e-09 -0.793354 0.608761
    outer loop
      vertex 5.5 4.33013 8.5
      vertex 2.7 3.75405 7.74924
      vertex 5.5 3.56864 7.50761
    endloop
  endfacet
  facet normal -5.60665e-08 0.130526 0.991445
    outer loop
      vertex -5.5 -1.2941 6.17037
      vertex -2.7 -0.355876 6.04685
      vertex -5.5 -0.0539205 6.0071
    endloop
  endfacet
  facet normal 0 0.130526 0.991445
    outer loop
      vertex -2.7 -0.355876 6.04685
      vertex -5.5 -1.2941 6.17037
      vertex -2.7 -1.2941 6.17037
    endloop
  endfacet
  facet normal -4.55426e-08 0.130527 0.991445
    outer loop
      vertex 2.7 -1.2941 6.17037
      vertex 5.5 -1.24017 6.16327
      vertex 2.7 -0.938219 6.12352
    endloop
  endfacet
  facet normal 0 0.130524 0.991445
    outer loop
      vertex 5.5 -1.24017 6.16327
      vertex 2.7 -1.2941 6.17037
      vertex 5.5 -1.2941 6.17037
    endloop
  endfacet
  facet normal 0 -0.923879 0.382684
    outer loop
      vertex -5.5 4.82963 9.7059
      vertex -2.7 4.46749 8.83162
      vertex -2.7 4.82963 9.7059
    endloop
  endfacet
  facet normal -2.96295e-08 -0.923879 0.382684
    outer loop
      vertex -2.7 4.46749 8.83162
      vertex -5.5 4.82963 9.7059
      vertex -5.5 4.35094 8.55025
    endloop
  endfacet
  facet normal 0 -0.923881 0.382681
    outer loop
      vertex 2.7 4.82963 9.7059
      vertex 5.5 4.80882 9.65566
      vertex 5.5 4.82963 9.7059
    endloop
  endfacet
  facet normal 4.27694e-08 -0.92388 0.382683
    outer loop
      vertex 5.5 4.80882 9.65566
      vertex 2.7 4.82963 9.7059
      vertex 2.7 4.69227 9.37428
    endloop
  endfacet
  facet normal -6.92435e-08 -0.991445 0.130526
    outer loop
      vertex -5.5 4.82963 9.7059
      vertex -2.7 4.95315 10.6441
      vertex -5.5 4.9929 10.9461
    endloop
  endfacet
  facet normal 0 -0.991445 0.130526
    outer loop
      vertex -2.7 4.95315 10.6441
      vertex -5.5 4.82963 9.7059
      vertex -2.7 4.82963 9.7059
    endloop
  endfacet
  facet normal -5.27838e-08 -0.991445 0.130527
    outer loop
      vertex 2.7 4.82963 9.7059
      vertex 5.5 4.83673 9.75982
      vertex 2.7 4.87648 10.0618
    endloop
  endfacet
  facet normal 0 -0.991445 0.130524
    outer loop
      vertex 5.5 4.83673 9.75982
      vertex 2.7 4.82963 9.7059
      vertex 5.5 4.82963 9.7059
    endloop
  endfacet
  facet normal 0 0.991445 0.130526
    outer loop
      vertex -2.7 -4.82963 9.7059
      vertex -5.5 -5 11
      vertex -2.7 -5 11
    endloop
  endfacet
  facet normal 0 0.991445 0.130526
    outer loop
      vertex -5.5 -5 11
      vertex -2.7 -4.82963 9.7059
      vertex -5.5 -4.82963 9.7059
    endloop
  endfacet
  facet normal 0 0.991445 0.130526
    outer loop
      vertex 5.5 -4.82963 9.7059
      vertex 2.7 -5 11
      vertex 5.5 -5 11
    endloop
  endfacet
  facet normal 0 0.991445 0.130526
    outer loop
      vertex 2.7 -5 11
      vertex 5.5 -4.82963 9.7059
      vertex 2.7 -4.82963 9.7059
    endloop
  endfacet
  facet normal -0 0.793353 0.608761
    outer loop
      vertex -5.5 -3.53553 7.46447
      vertex -2.7 -4.11161 8.21523
      vertex -2.7 -3.53553 7.46447
    endloop
  endfacet
  facet normal -5.99054e-09 0.793353 0.608761
    outer loop
      vertex -2.7 -4.11161 8.21523
      vertex -5.5 -3.53553 7.46447
      vertex -5.5 -4.29702 8.45685
    endloop
  endfacet
  facet normal -0 0.793353 0.608762
    outer loop
      vertex 2.7 -3.53553 7.46447
      vertex 5.5 -3.56864 7.50761
      vertex 5.5 -3.53553 7.46447
    endloop
  endfacet
  facet normal 2.74633e-08 0.793354 0.608761
    outer loop
      vertex 5.5 -3.56864 7.50761
      vertex 2.7 -3.53553 7.46447
      vertex 2.7 -3.75405 7.74924
    endloop
  endfacet
  facet normal -1.68842e-07 0.130524 0.991445
    outer loop
      vertex -5.5 -0.0539205 6.0071
      vertex -2.7 0 6
      vertex -5.5 0 6
    endloop
  endfacet
  facet normal -1.85129e-07 0.130525 0.991445
    outer loop
      vertex -2.7 0 6
      vertex -5.5 -0.0539205 6.0071
      vertex -2.7 -0.355876 6.04685
    endloop
  endfacet
  facet normal -1.68842e-07 0.130526 0.991445
    outer loop
      vertex 2.7 -0.938219 6.12352
      vertex 5.5 0 6
      vertex 2.7 0 6
    endloop
  endfacet
  facet normal -1.36144e-07 0.130526 0.991445
    outer loop
      vertex 5.5 0 6
      vertex 2.7 -0.938219 6.12352
      vertex 5.5 -1.24017 6.16327
    endloop
  endfacet
  facet normal 0 -0.923881 0.382681
    outer loop
      vertex -2.7 4.33013 8.5
      vertex -5.5 4.35094 8.55025
      vertex -5.5 4.33013 8.5
    endloop
  endfacet
  facet normal 4.27694e-08 -0.92388 0.382683
    outer loop
      vertex -5.5 4.35094 8.55025
      vertex -2.7 4.33013 8.5
      vertex -2.7 4.46749 8.83162
    endloop
  endfacet
  facet normal 0 -0.923879 0.382684
    outer loop
      vertex 5.5 4.33013 8.5
      vertex 2.7 4.69227 9.37428
      vertex 2.7 4.33013 8.5
    endloop
  endfacet
  facet normal -6.13648e-08 -0.923879 0.382684
    outer loop
      vertex 2.7 4.69227 9.37428
      vertex 5.5 4.33013 8.5
      vertex 5.5 4.80882 9.65566
    endloop
  endfacet
  facet normal 0 -0.608761 0.793354
    outer loop
      vertex -5.5 3.53553 7.46447
      vertex -2.7 2.5 6.66987
      vertex -2.7 3.53553 7.46447
    endloop
  endfacet
  facet normal 0 -0.608761 0.793354
    outer loop
      vertex -2.7 2.5 6.66987
      vertex -5.5 3.53553 7.46447
      vertex -5.5 2.5 6.66987
    endloop
  endfacet
  facet normal 0 -0.608761 0.793354
    outer loop
      vertex 2.7 3.53553 7.46447
      vertex 5.5 2.5 6.66987
      vertex 5.5 3.53553 7.46447
    endloop
  endfacet
  facet normal 0 -0.608761 0.793354
    outer loop
      vertex 5.5 2.5 6.66987
      vertex 2.7 3.53553 7.46447
      vertex 2.7 2.5 6.66987
    endloop
  endfacet
  facet normal 0 -0.382684 0.923879
    outer loop
      vertex -5.5 2.5 6.66987
      vertex -2.7 1.2941 6.17037
      vertex -2.7 2.5 6.66987
    endloop
  endfacet
  facet normal 0 -0.382684 0.923879
    outer loop
      vertex -2.7 1.2941 6.17037
      vertex -5.5 2.5 6.66987
      vertex -5.5 1.2941 6.17037
    endloop
  endfacet
  facet normal 0 -0.382684 0.923879
    outer loop
      vertex 2.7 2.5 6.66987
      vertex 5.5 1.2941 6.17037
      vertex 5.5 2.5 6.66987
    endloop
  endfacet
  facet normal 0 -0.382684 0.923879
    outer loop
      vertex 5.5 1.2941 6.17037
      vertex 2.7 2.5 6.66987
      vertex 2.7 1.2941 6.17037
    endloop
  endfacet
  facet normal 0 0.793355 0.608759
    outer loop
      vertex -2.7 -4.33013 8.5
      vertex -5.5 -4.29702 8.45685
      vertex -5.5 -4.33013 8.5
    endloop
  endfacet
  facet normal -4.00904e-08 0.793354 0.608761
    outer loop
      vertex -5.5 -4.29702 8.45685
      vertex -2.7 -4.33013 8.5
      vertex -2.7 -4.11161 8.21523
    endloop
  endfacet
  facet normal 0 0.793354 0.608761
    outer loop
      vertex 5.5 -4.33013 8.5
      vertex 2.7 -3.75405 7.74924
      vertex 2.7 -4.33013 8.5
    endloop
  endfacet
  facet normal -5.36823e-09 0.793354 0.608761
    outer loop
      vertex 2.7 -3.75405 7.74924
      vertex 5.5 -4.33013 8.5
      vertex 5.5 -3.56864 7.50761
    endloop
  endfacet
  facet normal -0 0.608761 0.793353
    outer loop
      vertex -5.5 -2.5 6.66987
      vertex -2.7 -3.53553 7.46447
      vertex -2.7 -2.5 6.66987
    endloop
  endfacet
  facet normal 0 0.608761 0.793353
    outer loop
      vertex -2.7 -3.53553 7.46447
      vertex -5.5 -2.5 6.66987
      vertex -5.5 -3.53553 7.46447
    endloop
  endfacet
  facet normal -0 0.608761 0.793353
    outer loop
      vertex 2.7 -2.5 6.66987
      vertex 5.5 -3.53553 7.46447
      vertex 5.5 -2.5 6.66987
    endloop
  endfacet
  facet normal 0 0.608761 0.793353
    outer loop
      vertex 5.5 -3.53553 7.46447
      vertex 2.7 -2.5 6.66987
      vertex 2.7 -3.53553 7.46447
    endloop
  endfacet
  facet normal -0 0.382683 0.92388
    outer loop
      vertex -5.5 -1.2941 6.17037
      vertex -2.7 -2.5 6.66987
      vertex -2.7 -1.2941 6.17037
    endloop
  endfacet
  facet normal 0 0.382683 0.92388
    outer loop
      vertex -2.7 -2.5 6.66987
      vertex -5.5 -1.2941 6.17037
      vertex -5.5 -2.5 6.66987
    endloop
  endfacet
  facet normal -0 0.382683 0.92388
    outer loop
      vertex 2.7 -1.2941 6.17037
      vertex 5.5 -2.5 6.66987
      vertex 5.5 -1.2941 6.17037
    endloop
  endfacet
  facet normal 0 0.382683 0.92388
    outer loop
      vertex 5.5 -2.5 6.66987
      vertex 2.7 -1.2941 6.17037
      vertex 2.7 -2.5 6.66987
    endloop
  endfacet
  facet normal 4.27694e-08 0.92388 0.382683
    outer loop
      vertex -2.7 -4.33013 8.5
      vertex -5.5 -4.35094 8.55025
      vertex -2.7 -4.46749 8.83162
    endloop
  endfacet
  facet normal 0 0.923881 0.382681
    outer loop
      vertex -5.5 -4.35094 8.55025
      vertex -2.7 -4.33013 8.5
      vertex -5.5 -4.33013 8.5
    endloop
  endfacet
  facet normal -6.13648e-08 0.923879 0.382684
    outer loop
      vertex 5.5 -4.33013 8.5
      vertex 2.7 -4.69227 9.37428
      vertex 5.5 -4.80882 9.65566
    endloop
  endfacet
  facet normal 0 0.923879 0.382684
    outer loop
      vertex 2.7 -4.69227 9.37428
      vertex 5.5 -4.33013 8.5
      vertex 2.7 -4.33013 8.5
    endloop
  endfacet
  facet normal 0 0.923879 0.382684
    outer loop
      vertex -2.7 -4.46749 8.83162
      vertex -5.5 -4.82963 9.7059
      vertex -2.7 -4.82963 9.7059
    endloop
  endfacet
  facet normal -2.96295e-08 0.923879 0.382684
    outer loop
      vertex -5.5 -4.82963 9.7059
      vertex -2.7 -4.46749 8.83162
      vertex -5.5 -4.35094 8.55025
    endloop
  endfacet
  facet normal 0 0.923881 0.382681
    outer loop
      vertex 5.5 -4.80882 9.65566
      vertex 2.7 -4.82963 9.7059
      vertex 5.5 -4.82963 9.7059
    endloop
  endfacet
  facet normal 4.27694e-08 0.92388 0.382683
    outer loop
      vertex 2.7 -4.82963 9.7059
      vertex 5.5 -4.80882 9.65566
      vertex 2.7 -4.69227 9.37428
    endloop
  endfacet
  facet normal -0.991445 -0.130526 0
    outer loop
      vertex 3.2 -13 5
      vertex 3.09096 -12.1718 11
      vertex 3.09096 -12.1718 5
    endloop
  endfacet
  facet normal -0.991445 -0.130526 0
    outer loop
      vertex 3.09096 -12.1718 11
      vertex 3.2 -13 5
      vertex 3.2 -13 11
    endloop
  endfacet
  facet normal 0.991445 -0.130526 0
    outer loop
      vertex -3.2 -13 11
      vertex -3.09096 -12.1718 5
      vertex -3.09096 -12.1718 11
    endloop
  endfacet
  facet normal 0.991445 -0.130526 0
    outer loop
      vertex -3.09096 -12.1718 5
      vertex -3.2 -13 11
      vertex -3.2 -13 5
    endloop
  endfacet
  facet normal -0.130526 -0.991445 0
    outer loop
      vertex 0 -9.8 5
      vertex 0.82822 -9.90904 11
      vertex 0 -9.8 11
    endloop
  endfacet
  facet normal -0.130526 -0.991445 -0
    outer loop
      vertex 0.82822 -9.90904 11
      vertex 0 -9.8 5
      vertex 0.82822 -9.90904 5
    endloop
  endfacet
  facet normal 0.130529 0.991445 -0
    outer loop
      vertex 0 -16.2 5
      vertex -0.82822 -16.091 11
      vertex 0 -16.2 11
    endloop
  endfacet
  facet normal 0.130529 0.991445 0
    outer loop
      vertex -0.82822 -16.091 11
      vertex 0 -16.2 5
      vertex -0.82822 -16.091 5
    endloop
  endfacet
  facet normal -0.608762 -0.793353 0
    outer loop
      vertex 1.6 -10.2287 5
      vertex 2.26274 -10.7373 11
      vertex 1.6 -10.2287 11
    endloop
  endfacet
  facet normal -0.608762 -0.793353 -0
    outer loop
      vertex 2.26274 -10.7373 11
      vertex 1.6 -10.2287 5
      vertex 2.26274 -10.7373 5
    endloop
  endfacet
  facet normal -0.92388 -0.382683 0
    outer loop
      vertex 3.09096 -12.1718 5
      vertex 2.77128 -11.4 11
      vertex 2.77128 -11.4 5
    endloop
  endfacet
  facet normal -0.92388 -0.382683 0
    outer loop
      vertex 2.77128 -11.4 11
      vertex 3.09096 -12.1718 5
      vertex 3.09096 -12.1718 11
    endloop
  endfacet
  facet normal -0.382683 -0.92388 0
    outer loop
      vertex 0.82822 -9.90904 5
      vertex 1.6 -10.2287 11
      vertex 0.82822 -9.90904 11
    endloop
  endfacet
  facet normal -0.382683 -0.92388 -0
    outer loop
      vertex 1.6 -10.2287 11
      vertex 0.82822 -9.90904 5
      vertex 1.6 -10.2287 5
    endloop
  endfacet
  facet normal 0.608762 -0.793353 0
    outer loop
      vertex -2.26274 -10.7373 5
      vertex -1.6 -10.2287 11
      vertex -2.26274 -10.7373 11
    endloop
  endfacet
  facet normal 0.608762 -0.793353 0
    outer loop
      vertex -1.6 -10.2287 11
      vertex -2.26274 -10.7373 5
      vertex -1.6 -10.2287 5
    endloop
  endfacet
  facet normal 0.793353 -0.608762 0
    outer loop
      vertex -2.77128 -11.4 11
      vertex -2.26274 -10.7373 5
      vertex -2.26274 -10.7373 11
    endloop
  endfacet
  facet normal 0.793353 -0.608762 0
    outer loop
      vertex -2.26274 -10.7373 5
      vertex -2.77128 -11.4 11
      vertex -2.77128 -11.4 5
    endloop
  endfacet
  facet normal 0.382683 -0.92388 0
    outer loop
      vertex -1.6 -10.2287 5
      vertex -0.82822 -9.90904 11
      vertex -1.6 -10.2287 11
    endloop
  endfacet
  facet normal 0.382683 -0.92388 0
    outer loop
      vertex -0.82822 -9.90904 11
      vertex -1.6 -10.2287 5
      vertex -0.82822 -9.90904 5
    endloop
  endfacet
  facet normal -0.793353 0.608762 0
    outer loop
      vertex 2.26274 -15.2627 5
      vertex 2.77128 -14.6 11
      vertex 2.77128 -14.6 5
    endloop
  endfacet
  facet normal -0.793353 0.608762 0
    outer loop
      vertex 2.77128 -14.6 11
      vertex 2.26274 -15.2627 5
      vertex 2.26274 -15.2627 11
    endloop
  endfacet
  facet normal -0.92388 0.382683 0
    outer loop
      vertex 2.77128 -14.6 5
      vertex 3.09096 -13.8282 11
      vertex 3.09096 -13.8282 5
    endloop
  endfacet
  facet normal -0.92388 0.382683 0
    outer loop
      vertex 3.09096 -13.8282 11
      vertex 2.77128 -14.6 5
      vertex 2.77128 -14.6 11
    endloop
  endfacet
  facet normal 0.608762 0.793353 -0
    outer loop
      vertex -1.6 -15.7713 5
      vertex -2.26274 -15.2627 11
      vertex -1.6 -15.7713 11
    endloop
  endfacet
  facet normal 0.608762 0.793353 0
    outer loop
      vertex -2.26274 -15.2627 11
      vertex -1.6 -15.7713 5
      vertex -2.26274 -15.2627 5
    endloop
  endfacet
  facet normal 0 0 1
    outer loop
      vertex 1.5 -13 5
      vertex 3.2 -13 5
      vertex 3.09096 -12.1718 5
    endloop
  endfacet
  facet normal 0 0 1
    outer loop
      vertex 1.44889 -12.6118 5
      vertex 3.09096 -12.1718 5
      vertex 2.77128 -11.4 5
    endloop
  endfacet
  facet normal 0 0 1
    outer loop
      vertex 3.2 -13 5
      vertex 1.5 -13 5
      vertex 3.09096 -13.8282 5
    endloop
  endfacet
  facet normal 0 0 1
    outer loop
      vertex 1.29904 -12.25 5
      vertex 2.77128 -11.4 5
      vertex 2.26274 -10.7373 5
    endloop
  endfacet
  facet normal -0 0 1
    outer loop
      vertex 1.44889 -13.3882 5
      vertex 3.09096 -13.8282 5
      vertex 1.5 -13 5
    endloop
  endfacet
  facet normal 0 0 1
    outer loop
      vertex 1.06066 -11.9393 5
      vertex 2.26274 -10.7373 5
      vertex 1.6 -10.2287 5
    endloop
  endfacet
  facet normal 0 0 1
    outer loop
      vertex 3.09096 -13.8282 5
      vertex 1.44889 -13.3882 5
      vertex 2.77128 -14.6 5
    endloop
  endfacet
  facet normal -0 0 1
    outer loop
      vertex 1.29904 -13.75 5
      vertex 2.77128 -14.6 5
      vertex 1.44889 -13.3882 5
    endloop
  endfacet
  facet normal 0 0 1
    outer loop
      vertex 3.09096 -12.1718 5
      vertex 1.44889 -12.6118 5
      vertex 1.5 -13 5
    endloop
  endfacet
  facet normal 0 0 1
    outer loop
      vertex 2.77128 -11.4 5
      vertex 1.29904 -12.25 5
      vertex 1.44889 -12.6118 5
    endloop
  endfacet
  facet normal 0 0 1
    outer loop
      vertex 2.26274 -10.7373 5
      vertex 1.06066 -11.9393 5
      vertex 1.29904 -12.25 5
    endloop
  endfacet
  facet normal 0 0 1
    outer loop
      vertex 0.75 -11.701 5
      vertex 1.6 -10.2287 5
      vertex 0.82822 -9.90904 5
    endloop
  endfacet
  facet normal 0 0 1
    outer loop
      vertex 1.6 -10.2287 5
      vertex 0.75 -11.701 5
      vertex 1.06066 -11.9393 5
    endloop
  endfacet
  facet normal 0 0 1
    outer loop
      vertex 0.82822 -9.90904 5
      vertex 0.388228 -11.5511 5
      vertex 0.75 -11.701 5
    endloop
  endfacet
  facet normal 0 0 1
    outer loop
      vertex 0 -9.8 5
      vertex 0.388228 -11.5511 5
      vertex 0.82822 -9.90904 5
    endloop
  endfacet
  facet normal 0 0 1
    outer loop
      vertex 0 -9.8 5
      vertex 0 -11.5 5
      vertex 0.388228 -11.5511 5
    endloop
  endfacet
  facet normal 0 0 1
    outer loop
      vertex 0 -9.8 5
      vertex -0.388228 -11.5511 5
      vertex 0 -11.5 5
    endloop
  endfacet
  facet normal -0 0 1
    outer loop
      vertex -0.82822 -9.90904 5
      vertex -0.388228 -11.5511 5
      vertex 0 -9.8 5
    endloop
  endfacet
  facet normal 0 0 1
    outer loop
      vertex -0.388228 -11.5511 5
      vertex -0.82822 -9.90904 5
      vertex -0.749999 -11.701 5
    endloop
  endfacet
  facet normal -0 0 1
    outer loop
      vertex -1.6 -10.2287 5
      vertex -0.749999 -11.701 5
      vertex -0.82822 -9.90904 5
    endloop
  endfacet
  facet normal 0 0 1
    outer loop
      vertex -0.749999 -11.701 5
      vertex -1.6 -10.2287 5
      vertex -1.06066 -11.9393 5
    endloop
  endfacet
  facet normal -0 0 1
    outer loop
      vertex -2.26274 -10.7373 5
      vertex -1.06066 -11.9393 5
      vertex -1.6 -10.2287 5
    endloop
  endfacet
  facet normal -0 0 1
    outer loop
      vertex -2.77128 -11.4 5
      vertex -1.29904 -12.25 5
      vertex -2.26274 -10.7373 5
    endloop
  endfacet
  facet normal 0 0 1
    outer loop
      vertex -1.06066 -11.9393 5
      vertex -2.26274 -10.7373 5
      vertex -1.29904 -12.25 5
    endloop
  endfacet
  facet normal 0 0 1
    outer loop
      vertex 2.77128 -14.6 5
      vertex 1.29904 -13.75 5
      vertex 2.26274 -15.2627 5
    endloop
  endfacet
  facet normal -0 0 1
    outer loop
      vertex 1.06066 -14.0607 5
      vertex 2.26274 -15.2627 5
      vertex 1.29904 -13.75 5
    endloop
  endfacet
  facet normal 0 0 1
    outer loop
      vertex 2.26274 -15.2627 5
      vertex 1.06066 -14.0607 5
      vertex 1.6 -15.7713 5
    endloop
  endfacet
  facet normal -0 0 1
    outer loop
      vertex 0.75 -14.299 5
      vertex 1.6 -15.7713 5
      vertex 1.06066 -14.0607 5
    endloop
  endfacet
  facet normal 0 0 1
    outer loop
      vertex 1.6 -15.7713 5
      vertex 0.75 -14.299 5
      vertex 0.82822 -16.091 5
    endloop
  endfacet
  facet normal -0 0 1
    outer loop
      vertex 0.388228 -14.4489 5
      vertex 0.82822 -16.091 5
      vertex 0.75 -14.299 5
    endloop
  endfacet
  facet normal -0 0 1
    outer loop
      vertex 0 -14.5 5
      vertex 0.82822 -16.091 5
      vertex 0.388228 -14.4489 5
    endloop
  endfacet
  facet normal 0 0 1
    outer loop
      vertex 0 -14.5 5
      vertex 0 -16.2 5
      vertex 0.82822 -16.091 5
    endloop
  endfacet
  facet normal 0 0 1
    outer loop
      vertex -0.388228 -14.4489 5
      vertex 0 -16.2 5
      vertex 0 -14.5 5
    endloop
  endfacet
  facet normal 0 0 1
    outer loop
      vertex -0.82822 -16.091 5
      vertex -0.388228 -14.4489 5
      vertex -0.75 -14.299 5
    endloop
  endfacet
  facet normal 0 0 1
    outer loop
      vertex -0.388228 -14.4489 5
      vertex -0.82822 -16.091 5
      vertex 0 -16.2 5
    endloop
  endfacet
  facet normal 0 0 1
    outer loop
      vertex -1.6 -15.7713 5
      vertex -0.75 -14.299 5
      vertex -1.06066 -14.0607 5
    endloop
  endfacet
  facet normal 0 0 1
    outer loop
      vertex -2.26274 -15.2627 5
      vertex -1.06066 -14.0607 5
      vertex -1.29904 -13.75 5
    endloop
  endfacet
  facet normal 0 0 1
    outer loop
      vertex -2.77128 -14.6 5
      vertex -1.29904 -13.75 5
      vertex -1.44889 -13.3882 5
    endloop
  endfacet
  facet normal 0 0 1
    outer loop
      vertex -0.75 -14.299 5
      vertex -1.6 -15.7713 5
      vertex -0.82822 -16.091 5
    endloop
  endfacet
  facet normal 0 0 1
    outer loop
      vertex -3.09096 -13.8282 5
      vertex -1.44889 -13.3882 5
      vertex -1.5 -13 5
    endloop
  endfacet
  facet normal 0 0 1
    outer loop
      vertex -1.29904 -12.25 5
      vertex -2.77128 -11.4 5
      vertex -1.44889 -12.6118 5
    endloop
  endfacet
  facet normal -0 0 1
    outer loop
      vertex -3.09096 -12.1718 5
      vertex -1.44889 -12.6118 5
      vertex -2.77128 -11.4 5
    endloop
  endfacet
  facet normal 0 0 1
    outer loop
      vertex -1.06066 -14.0607 5
      vertex -2.26274 -15.2627 5
      vertex -1.6 -15.7713 5
    endloop
  endfacet
  facet normal 0 0 1
    outer loop
      vertex -1.44889 -12.6118 5
      vertex -3.09096 -12.1718 5
      vertex -1.5 -13 5
    endloop
  endfacet
  facet normal 0 0 1
    outer loop
      vertex -1.29904 -13.75 5
      vertex -2.77128 -14.6 5
      vertex -2.26274 -15.2627 5
    endloop
  endfacet
  facet normal 0 0 1
    outer loop
      vertex -3.2 -13 5
      vertex -1.5 -13 5
      vertex -3.09096 -12.1718 5
    endloop
  endfacet
  facet normal 0 0 1
    outer loop
      vertex -1.44889 -13.3882 5
      vertex -3.09096 -13.8282 5
      vertex -2.77128 -14.6 5
    endloop
  endfacet
  facet normal 0 0 1
    outer loop
      vertex -1.5 -13 5
      vertex -3.2 -13 5
      vertex -3.09096 -13.8282 5
    endloop
  endfacet
  facet normal -0.793353 -0.608762 0
    outer loop
      vertex 2.77128 -11.4 5
      vertex 2.26274 -10.7373 11
      vertex 2.26274 -10.7373 5
    endloop
  endfacet
  facet normal -0.793353 -0.608762 0
    outer loop
      vertex 2.26274 -10.7373 11
      vertex 2.77128 -11.4 5
      vertex 2.77128 -11.4 11
    endloop
  endfacet
  facet normal 0.92388 -0.382683 0
    outer loop
      vertex -3.09096 -12.1718 11
      vertex -2.77128 -11.4 5
      vertex -2.77128 -11.4 11
    endloop
  endfacet
  facet normal 0.92388 -0.382683 0
    outer loop
      vertex -2.77128 -11.4 5
      vertex -3.09096 -12.1718 11
      vertex -3.09096 -12.1718 5
    endloop
  endfacet
  facet normal 0.130526 -0.991445 0
    outer loop
      vertex -0.82822 -9.90904 5
      vertex 0 -9.8 11
      vertex -0.82822 -9.90904 11
    endloop
  endfacet
  facet normal 0.130526 -0.991445 0
    outer loop
      vertex 0 -9.8 11
      vertex -0.82822 -9.90904 5
      vertex 0 -9.8 5
    endloop
  endfacet
  facet normal -0.130529 0.991445 0
    outer loop
      vertex 0.82822 -16.091 5
      vertex 0 -16.2 11
      vertex 0.82822 -16.091 11
    endloop
  endfacet
  facet normal -0.130529 0.991445 0
    outer loop
      vertex 0 -16.2 11
      vertex 0.82822 -16.091 5
      vertex 0 -16.2 5
    endloop
  endfacet
  facet normal -0.608762 0.793353 0
    outer loop
      vertex 2.26274 -15.2627 5
      vertex 1.6 -15.7713 11
      vertex 2.26274 -15.2627 11
    endloop
  endfacet
  facet normal -0.608762 0.793353 0
    outer loop
      vertex 1.6 -15.7713 11
      vertex 2.26274 -15.2627 5
      vertex 1.6 -15.7713 5
    endloop
  endfacet
  facet normal 0.382682 0.92388 -0
    outer loop
      vertex -0.82822 -16.091 5
      vertex -1.6 -15.7713 11
      vertex -0.82822 -16.091 11
    endloop
  endfacet
  facet normal 0.382682 0.92388 0
    outer loop
      vertex -1.6 -15.7713 11
      vertex -0.82822 -16.091 5
      vertex -1.6 -15.7713 5
    endloop
  endfacet
  facet normal 0.793353 0.608762 0
    outer loop
      vertex -2.26274 -15.2627 11
      vertex -2.77128 -14.6 5
      vertex -2.77128 -14.6 11
    endloop
  endfacet
  facet normal 0.793353 0.608762 0
    outer loop
      vertex -2.77128 -14.6 5
      vertex -2.26274 -15.2627 11
      vertex -2.26274 -15.2627 5
    endloop
  endfacet
  facet normal 0.991445 0.130526 0
    outer loop
      vertex -3.09096 -13.8282 11
      vertex -3.2 -13 5
      vertex -3.2 -13 11
    endloop
  endfacet
  facet normal 0.991445 0.130526 0
    outer loop
      vertex -3.2 -13 5
      vertex -3.09096 -13.8282 11
      vertex -3.09096 -13.8282 5
    endloop
  endfacet
  facet normal -0.991445 0.130526 0
    outer loop
      vertex 3.09096 -13.8282 5
      vertex 3.2 -13 11
      vertex 3.2 -13 5
    endloop
  endfacet
  facet normal -0.991445 0.130526 0
    outer loop
      vertex 3.2 -13 11
      vertex 3.09096 -13.8282 5
      vertex 3.09096 -13.8282 11
    endloop
  endfacet
  facet normal -0.382682 0.92388 0
    outer loop
      vertex 1.6 -15.7713 5
      vertex 0.82822 -16.091 11
      vertex 1.6 -15.7713 11
    endloop
  endfacet
  facet normal -0.382682 0.92388 0
    outer loop
      vertex 0.82822 -16.091 11
      vertex 1.6 -15.7713 5
      vertex 0.82822 -16.091 5
    endloop
  endfacet
  facet normal 0.92388 0.382683 0
    outer loop
      vertex -2.77128 -14.6 11
      vertex -3.09096 -13.8282 5
      vertex -3.09096 -13.8282 11
    endloop
  endfacet
  facet normal 0.92388 0.382683 0
    outer loop
      vertex -3.09096 -13.8282 5
      vertex -2.77128 -14.6 11
      vertex -2.77128 -14.6 5
    endloop
  endfacet
  facet normal -0.991445 -0.130529 0
    outer loop
      vertex 1.5 13 0
      vertex 1.44889 13.3882 16.5
      vertex 1.44889 13.3882 0
    endloop
  endfacet
  facet normal -0.991445 -0.130529 0
    outer loop
      vertex 1.44889 13.3882 16.5
      vertex 1.5 13 0
      vertex 1.5 13 16.5
    endloop
  endfacet
  facet normal 0.130529 -0.991445 0
    outer loop
      vertex -0.388228 14.4489 0
      vertex 0 14.5 16.5
      vertex -0.388228 14.4489 16.5
    endloop
  endfacet
  facet normal 0.130529 -0.991445 0
    outer loop
      vertex 0 14.5 16.5
      vertex -0.388228 14.4489 0
      vertex 0 14.5 0
    endloop
  endfacet
  facet normal -0.130526 0.991445 0
    outer loop
      vertex 0.388228 11.5511 0
      vertex 0 11.5 16.5
      vertex 0.388228 11.5511 16.5
    endloop
  endfacet
  facet normal -0.130526 0.991445 0
    outer loop
      vertex 0 11.5 16.5
      vertex 0.388228 11.5511 0
      vertex 0 11.5 0
    endloop
  endfacet
  facet normal -0.608763 -0.793352 0
    outer loop
      vertex 0.75 14.299 0
      vertex 1.06066 14.0607 16.5
      vertex 0.75 14.299 16.5
    endloop
  endfacet
  facet normal -0.608763 -0.793352 -0
    outer loop
      vertex 1.06066 14.0607 16.5
      vertex 0.75 14.299 0
      vertex 1.06066 14.0607 0
    endloop
  endfacet
  facet normal -0.92388 -0.382682 0
    outer loop
      vertex 1.44889 13.3882 0
      vertex 1.29904 13.75 16.5
      vertex 1.29904 13.75 0
    endloop
  endfacet
  facet normal -0.92388 -0.382682 0
    outer loop
      vertex 1.29904 13.75 16.5
      vertex 1.44889 13.3882 0
      vertex 1.44889 13.3882 16.5
    endloop
  endfacet
  facet normal 0.793352 -0.608763 0
    outer loop
      vertex -1.29904 13.75 16.5
      vertex -1.06066 14.0607 0
      vertex -1.06066 14.0607 16.5
    endloop
  endfacet
  facet normal 0.793352 -0.608763 0
    outer loop
      vertex -1.06066 14.0607 0
      vertex -1.29904 13.75 16.5
      vertex -1.29904 13.75 0
    endloop
  endfacet
  facet normal 0.382683 -0.92388 0
    outer loop
      vertex -0.749999 14.299 0
      vertex -0.388228 14.4489 16.5
      vertex -0.749999 14.299 16.5
    endloop
  endfacet
  facet normal 0.382683 -0.92388 0
    outer loop
      vertex -0.388228 14.4489 16.5
      vertex -0.749999 14.299 0
      vertex -0.388228 14.4489 0
    endloop
  endfacet
  facet normal 0.92388 0.382683 0
    outer loop
      vertex -1.29904 12.25 16.5
      vertex -1.44889 12.6118 0
      vertex -1.44889 12.6118 16.5
    endloop
  endfacet
  facet normal 0.92388 0.382683 0
    outer loop
      vertex -1.44889 12.6118 0
      vertex -1.29904 12.25 16.5
      vertex -1.29904 12.25 0
    endloop
  endfacet
  facet normal -0.793352 -0.608763 0
    outer loop
      vertex 1.29904 13.75 0
      vertex 1.06066 14.0607 16.5
      vertex 1.06066 14.0607 0
    endloop
  endfacet
  facet normal -0.793352 -0.608763 0
    outer loop
      vertex 1.06066 14.0607 16.5
      vertex 1.29904 13.75 0
      vertex 1.29904 13.75 16.5
    endloop
  endfacet
  facet normal -0.130529 -0.991445 0
    outer loop
      vertex 0 14.5 0
      vertex 0.388228 14.4489 16.5
      vertex 0 14.5 16.5
    endloop
  endfacet
  facet normal -0.130529 -0.991445 -0
    outer loop
      vertex 0.388228 14.4489 16.5
      vertex 0 14.5 0
      vertex 0.388228 14.4489 0
    endloop
  endfacet
  facet normal -0.382682 -0.92388 0
    outer loop
      vertex 0.388228 14.4489 0
      vertex 0.75 14.299 16.5
      vertex 0.388228 14.4489 16.5
    endloop
  endfacet
  facet normal -0.382682 -0.92388 -0
    outer loop
      vertex 0.75 14.299 16.5
      vertex 0.388228 14.4489 0
      vertex 0.75 14.299 0
    endloop
  endfacet
  facet normal 0.92388 -0.382682 0
    outer loop
      vertex -1.44889 13.3882 16.5
      vertex -1.29904 13.75 0
      vertex -1.29904 13.75 16.5
    endloop
  endfacet
  facet normal 0.92388 -0.382682 0
    outer loop
      vertex -1.29904 13.75 0
      vertex -1.44889 13.3882 16.5
      vertex -1.44889 13.3882 0
    endloop
  endfacet
  facet normal 0.991445 -0.130529 0
    outer loop
      vertex -1.5 13 16.5
      vertex -1.44889 13.3882 0
      vertex -1.44889 13.3882 16.5
    endloop
  endfacet
  facet normal 0.991445 -0.130529 0
    outer loop
      vertex -1.44889 13.3882 0
      vertex -1.5 13 16.5
      vertex -1.5 13 0
    endloop
  endfacet
  facet normal 0.991445 0.130528 0
    outer loop
      vertex -1.44889 12.6118 16.5
      vertex -1.5 13 0
      vertex -1.5 13 16.5
    endloop
  endfacet
  facet normal 0.991445 0.130528 0
    outer loop
      vertex -1.5 13 0
      vertex -1.44889 12.6118 16.5
      vertex -1.44889 12.6118 0
    endloop
  endfacet
  facet normal 0.608762 -0.793353 0
    outer loop
      vertex -1.06066 14.0607 0
      vertex -0.749999 14.299 16.5
      vertex -1.06066 14.0607 16.5
    endloop
  endfacet
  facet normal 0.608762 -0.793353 0
    outer loop
      vertex -0.749999 14.299 16.5
      vertex -1.06066 14.0607 0
      vertex -0.749999 14.299 0
    endloop
  endfacet
  facet normal -0.991445 0.130528 0
    outer loop
      vertex 1.44889 12.6118 0
      vertex 1.5 13 16.5
      vertex 1.5 13 0
    endloop
  endfacet
  facet normal -0.991445 0.130528 0
    outer loop
      vertex 1.5 13 16.5
      vertex 1.44889 12.6118 0
      vertex 1.44889 12.6118 16.5
    endloop
  endfacet
  facet normal -0.382682 0.92388 0
    outer loop
      vertex 0.75 11.701 0
      vertex 0.388228 11.5511 16.5
      vertex 0.75 11.701 16.5
    endloop
  endfacet
  facet normal -0.382682 0.92388 0
    outer loop
      vertex 0.388228 11.5511 16.5
      vertex 0.75 11.701 0
      vertex 0.388228 11.5511 0
    endloop
  endfacet
  facet normal -0.92388 0.382683 0
    outer loop
      vertex 1.29904 12.25 0
      vertex 1.44889 12.6118 16.5
      vertex 1.44889 12.6118 0
    endloop
  endfacet
  facet normal -0.92388 0.382683 0
    outer loop
      vertex 1.44889 12.6118 16.5
      vertex 1.29904 12.25 0
      vertex 1.29904 12.25 16.5
    endloop
  endfacet
  facet normal 0.382682 0.92388 -0
    outer loop
      vertex -0.388228 11.5511 0
      vertex -0.75 11.701 16.5
      vertex -0.388228 11.5511 16.5
    endloop
  endfacet
  facet normal 0.382682 0.92388 0
    outer loop
      vertex -0.75 11.701 16.5
      vertex -0.388228 11.5511 0
      vertex -0.75 11.701 0
    endloop
  endfacet
  facet normal 0.793353 0.608762 0
    outer loop
      vertex -1.06066 11.9393 16.5
      vertex -1.29904 12.25 0
      vertex -1.29904 12.25 16.5
    endloop
  endfacet
  facet normal 0.793353 0.608762 0
    outer loop
      vertex -1.29904 12.25 0
      vertex -1.06066 11.9393 16.5
      vertex -1.06066 11.9393 0
    endloop
  endfacet
  facet normal -0.608763 0.793352 0
    outer loop
      vertex 1.06066 11.9393 0
      vertex 0.75 11.701 16.5
      vertex 1.06066 11.9393 16.5
    endloop
  endfacet
  facet normal -0.608763 0.793352 0
    outer loop
      vertex 0.75 11.701 16.5
      vertex 1.06066 11.9393 0
      vertex 0.75 11.701 0
    endloop
  endfacet
  facet normal 0.130526 0.991445 -0
    outer loop
      vertex 0 11.5 0
      vertex -0.388228 11.5511 16.5
      vertex 0 11.5 16.5
    endloop
  endfacet
  facet normal 0.130526 0.991445 0
    outer loop
      vertex -0.388228 11.5511 16.5
      vertex 0 11.5 0
      vertex -0.388228 11.5511 0
    endloop
  endfacet
  facet normal 0.608763 0.793352 -0
    outer loop
      vertex -0.75 11.701 0
      vertex -1.06066 11.9393 16.5
      vertex -0.75 11.701 16.5
    endloop
  endfacet
  facet normal 0.608763 0.793352 0
    outer loop
      vertex -1.06066 11.9393 16.5
      vertex -0.75 11.701 0
      vertex -1.06066 11.9393 0
    endloop
  endfacet
  facet normal -0.793353 0.608762 0
    outer loop
      vertex 1.06066 11.9393 0
      vertex 1.29904 12.25 16.5
      vertex 1.29904 12.25 0
    endloop
  endfacet
  facet normal -0.793353 0.608762 0
    outer loop
      vertex 1.29904 12.25 16.5
      vertex 1.06066 11.9393 0
      vertex 1.06066 11.9393 16.5
    endloop
  endfacet
  facet normal -0.991445 -0.130528 0
    outer loop
      vertex 1.5 -13 0
      vertex 1.44889 -12.6118 5
      vertex 1.44889 -12.6118 0
    endloop
  endfacet
  facet normal -0.991445 -0.130528 0
    outer loop
      vertex 1.44889 -12.6118 5
      vertex 1.5 -13 0
      vertex 1.5 -13 5
    endloop
  endfacet
  facet normal 0.991445 -0.130528 0
    outer loop
      vertex -1.5 -13 5
      vertex -1.44889 -12.6118 0
      vertex -1.44889 -12.6118 5
    endloop
  endfacet
  facet normal 0.991445 -0.130528 0
    outer loop
      vertex -1.44889 -12.6118 0
      vertex -1.5 -13 5
      vertex -1.5 -13 0
    endloop
  endfacet
  facet normal 0.130526 -0.991445 0
    outer loop
      vertex -0.388228 -11.5511 0
      vertex 0 -11.5 5
      vertex -0.388228 -11.5511 5
    endloop
  endfacet
  facet normal 0.130526 -0.991445 0
    outer loop
      vertex 0 -11.5 5
      vertex -0.388228 -11.5511 0
      vertex 0 -11.5 0
    endloop
  endfacet
  facet normal 0.130529 0.991445 -0
    outer loop
      vertex 0 -14.5 0
      vertex -0.388228 -14.4489 5
      vertex 0 -14.5 5
    endloop
  endfacet
  facet normal 0.130529 0.991445 0
    outer loop
      vertex -0.388228 -14.4489 5
      vertex 0 -14.5 0
      vertex -0.388228 -14.4489 0
    endloop
  endfacet
  facet normal -0.608763 -0.793352 0
    outer loop
      vertex 0.75 -11.701 0
      vertex 1.06066 -11.9393 5
      vertex 0.75 -11.701 5
    endloop
  endfacet
  facet normal -0.608763 -0.793352 -0
    outer loop
      vertex 1.06066 -11.9393 5
      vertex 0.75 -11.701 0
      vertex 1.06066 -11.9393 0
    endloop
  endfacet
  facet normal -0.92388 -0.382683 0
    outer loop
      vertex 1.44889 -12.6118 0
      vertex 1.29904 -12.25 5
      vertex 1.29904 -12.25 0
    endloop
  endfacet
  facet normal -0.92388 -0.382683 0
    outer loop
      vertex 1.29904 -12.25 5
      vertex 1.44889 -12.6118 0
      vertex 1.44889 -12.6118 5
    endloop
  endfacet
  facet normal 0.793353 -0.608762 0
    outer loop
      vertex -1.29904 -12.25 5
      vertex -1.06066 -11.9393 0
      vertex -1.06066 -11.9393 5
    endloop
  endfacet
  facet normal 0.793353 -0.608762 0
    outer loop
      vertex -1.06066 -11.9393 0
      vertex -1.29904 -12.25 5
      vertex -1.29904 -12.25 0
    endloop
  endfacet
  facet normal 0.92388 -0.382683 0
    outer loop
      vertex -1.44889 -12.6118 5
      vertex -1.29904 -12.25 0
      vertex -1.29904 -12.25 5
    endloop
  endfacet
  facet normal 0.92388 -0.382683 0
    outer loop
      vertex -1.29904 -12.25 0
      vertex -1.44889 -12.6118 5
      vertex -1.44889 -12.6118 0
    endloop
  endfacet
  facet normal 0.382683 -0.92388 0
    outer loop
      vertex -0.749999 -11.701 0
      vertex -0.388228 -11.5511 5
      vertex -0.749999 -11.701 5
    endloop
  endfacet
  facet normal 0.382683 -0.92388 0
    outer loop
      vertex -0.388228 -11.5511 5
      vertex -0.749999 -11.701 0
      vertex -0.388228 -11.5511 0
    endloop
  endfacet
  facet normal -0.92388 0.382682 0
    outer loop
      vertex 1.29904 -13.75 0
      vertex 1.44889 -13.3882 5
      vertex 1.44889 -13.3882 0
    endloop
  endfacet
  facet normal -0.92388 0.382682 0
    outer loop
      vertex 1.44889 -13.3882 5
      vertex 1.29904 -13.75 0
      vertex 1.29904 -13.75 5
    endloop
  endfacet
  facet normal 0.608763 0.793352 -0
    outer loop
      vertex -0.75 -14.299 0
      vertex -1.06066 -14.0607 5
      vertex -0.75 -14.299 5
    endloop
  endfacet
  facet normal 0.608763 0.793352 0
    outer loop
      vertex -1.06066 -14.0607 5
      vertex -0.75 -14.299 0
      vertex -1.06066 -14.0607 0
    endloop
  endfacet
  facet normal -0.793353 -0.608762 0
    outer loop
      vertex 1.29904 -12.25 0
      vertex 1.06066 -11.9393 5
      vertex 1.06066 -11.9393 0
    endloop
  endfacet
  facet normal -0.793353 -0.608762 0
    outer loop
      vertex 1.06066 -11.9393 5
      vertex 1.29904 -12.25 0
      vertex 1.29904 -12.25 5
    endloop
  endfacet
  facet normal -0.130526 -0.991445 0
    outer loop
      vertex 0 -11.5 0
      vertex 0.388228 -11.5511 5
      vertex 0 -11.5 5
    endloop
  endfacet
  facet normal -0.130526 -0.991445 -0
    outer loop
      vertex 0.388228 -11.5511 5
      vertex 0 -11.5 0
      vertex 0.388228 -11.5511 0
    endloop
  endfacet
  facet normal -0.382682 -0.92388 0
    outer loop
      vertex 0.388228 -11.5511 0
      vertex 0.75 -11.701 5
      vertex 0.388228 -11.5511 5
    endloop
  endfacet
  facet normal -0.382682 -0.92388 -0
    outer loop
      vertex 0.75 -11.701 5
      vertex 0.388228 -11.5511 0
      vertex 0.75 -11.701 0
    endloop
  endfacet
  facet normal 0.608762 -0.793353 0
    outer loop
      vertex -1.06066 -11.9393 0
      vertex -0.749999 -11.701 5
      vertex -1.06066 -11.9393 5
    endloop
  endfacet
  facet normal 0.608762 -0.793353 0
    outer loop
      vertex -0.749999 -11.701 5
      vertex -1.06066 -11.9393 0
      vertex -0.749999 -11.701 0
    endloop
  endfacet
  facet normal -0.130529 0.991445 0
    outer loop
      vertex 0.388228 -14.4489 0
      vertex 0 -14.5 5
      vertex 0.388228 -14.4489 5
    endloop
  endfacet
  facet normal -0.130529 0.991445 0
    outer loop
      vertex 0 -14.5 5
      vertex 0.388228 -14.4489 0
      vertex 0 -14.5 0
    endloop
  endfacet
  facet normal -0.608763 0.793352 0
    outer loop
      vertex 1.06066 -14.0607 0
      vertex 0.75 -14.299 5
      vertex 1.06066 -14.0607 5
    endloop
  endfacet
  facet normal -0.608763 0.793352 0
    outer loop
      vertex 0.75 -14.299 5
      vertex 1.06066 -14.0607 0
      vertex 0.75 -14.299 0
    endloop
  endfacet
  facet normal 0.382682 0.92388 -0
    outer loop
      vertex -0.388228 -14.4489 0
      vertex -0.75 -14.299 5
      vertex -0.388228 -14.4489 5
    endloop
  endfacet
  facet normal 0.382682 0.92388 0
    outer loop
      vertex -0.75 -14.299 5
      vertex -0.388228 -14.4489 0
      vertex -0.75 -14.299 0
    endloop
  endfacet
  facet normal 0.793352 0.608763 0
    outer loop
      vertex -1.06066 -14.0607 5
      vertex -1.29904 -13.75 0
      vertex -1.29904 -13.75 5
    endloop
  endfacet
  facet normal 0.793352 0.608763 0
    outer loop
      vertex -1.29904 -13.75 0
      vertex -1.06066 -14.0607 5
      vertex -1.06066 -14.0607 0
    endloop
  endfacet
  facet normal 0.991445 0.130529 0
    outer loop
      vertex -1.44889 -13.3882 5
      vertex -1.5 -13 0
      vertex -1.5 -13 5
    endloop
  endfacet
  facet normal 0.991445 0.130529 0
    outer loop
      vertex -1.5 -13 0
      vertex -1.44889 -13.3882 5
      vertex -1.44889 -13.3882 0
    endloop
  endfacet
  facet normal -0.991445 0.130529 0
    outer loop
      vertex 1.44889 -13.3882 0
      vertex 1.5 -13 5
      vertex 1.5 -13 0
    endloop
  endfacet
  facet normal -0.991445 0.130529 0
    outer loop
      vertex 1.5 -13 5
      vertex 1.44889 -13.3882 0
      vertex 1.44889 -13.3882 5
    endloop
  endfacet
  facet normal -0.382682 0.92388 0
    outer loop
      vertex 0.75 -14.299 0
      vertex 0.388228 -14.4489 5
      vertex 0.75 -14.299 5
    endloop
  endfacet
  facet normal -0.382682 0.92388 0
    outer loop
      vertex 0.388228 -14.4489 5
      vertex 0.75 -14.299 0
      vertex 0.388228 -14.4489 0
    endloop
  endfacet
  facet normal -0.793352 0.608763 0
    outer loop
      vertex 1.06066 -14.0607 0
      vertex 1.29904 -13.75 5
      vertex 1.29904 -13.75 0
    endloop
  endfacet
  facet normal -0.793352 0.608763 0
    outer loop
      vertex 1.29904 -13.75 5
      vertex 1.06066 -14.0607 0
      vertex 1.06066 -14.0607 5
    endloop
  endfacet
  facet normal 0.92388 0.382682 0
    outer loop
      vertex -1.29904 -13.75 5
      vertex -1.44889 -13.3882 0
      vertex -1.44889 -13.3882 5
    endloop
  endfacet
  facet normal 0.92388 0.382682 0
    outer loop
      vertex -1.44889 -13.3882 0
      vertex -1.29904 -13.75 5
      vertex -1.29904 -13.75 0
    endloop
  endfacet
endsolid OpenSCAD_Model
