solid OpenSCAD_Model
  facet normal 0 0 -1
    outer loop
      vertex -88.9 -28.4 -15.7
      vertex -88.9 28.4 -15.7
      vertex -50.8 -25.4 -15.7
    endloop
  endfacet
  facet normal 0 0 -1
    outer loop
      vertex -88.9 28.4 -15.7
      vertex 50.8 25.4 -15.7
      vertex -50.8 25.4 -15.7
    endloop
  endfacet
  facet normal 0 0 -1
    outer loop
      vertex -88.9 -28.4 -15.7
      vertex 50.8 -25.4 -15.7
      vertex 88.9 -28.4 -15.7
    endloop
  endfacet
  facet normal 0 0 -1
    outer loop
      vertex 50.8 25.4 -15.7
      vertex 88.9 28.4 -15.7
      vertex 88.9 -28.4 -15.7
    endloop
  endfacet
  facet normal 0 0 -1
    outer loop
      vertex -88.9 -28.4 -15.7
      vertex -50.8 -25.4 -15.7
      vertex 50.8 -25.4 -15.7
    endloop
  endfacet
  facet normal 0 0 -1
    outer loop
      vertex -88.9 28.4 -15.7
      vertex -50.8 25.4 -15.7
      vertex -50.8 -25.4 -15.7
    endloop
  endfacet
  facet normal 0 0 -1
    outer loop
      vertex -88.9 28.4 -15.7
      vertex 88.9 28.4 -15.7
      vertex 50.8 25.4 -15.7
    endloop
  endfacet
  facet normal 0 0 -1
    outer loop
      vertex 50.8 25.4 -15.7
      vertex 88.9 -28.4 -15.7
      vertex 50.8 -25.4 -15.7
    endloop
  endfacet
  facet normal 0 0 1
    outer loop
      vertex -50.8 -25.4 15.7
      vertex -88.9 28.4 15.7
      vertex -88.9 -28.4 15.7
    endloop
  endfacet
  facet normal 0 -0 1
    outer loop
      vertex -50.8 25.4 15.7
      vertex 50.8 25.4 15.7
      vertex -88.9 28.4 15.7
    endloop
  endfacet
  facet normal 0 0 1
    outer loop
      vertex 88.9 -28.4 15.7
      vertex 50.8 -25.4 15.7
      vertex -88.9 -28.4 15.7
    endloop
  endfacet
  facet normal 0 -0 1
    outer loop
      vertex 88.9 -28.4 15.7
      vertex 88.9 28.4 15.7
      vertex 50.8 25.4 15.7
    endloop
  endfacet
  facet normal 0 0 1
    outer loop
      vertex 50.8 -25.4 15.7
      vertex -50.8 -25.4 15.7
      vertex -88.9 -28.4 15.7
    endloop
  endfacet
  facet normal 0 -0 1
    outer loop
      vertex -50.8 -25.4 15.7
      vertex -50.8 25.4 15.7
      vertex -88.9 28.4 15.7
    endloop
  endfacet
  facet normal 0 -0 1
    outer loop
      vertex 50.8 25.4 15.7
      vertex 88.9 28.4 15.7
      vertex -88.9 28.4 15.7
    endloop
  endfacet
  facet normal -0 0 1
    outer loop
      vertex 50.8 -25.4 15.7
      vertex 88.9 -28.4 15.7
      vertex 50.8 25.4 15.7
    endloop
  endfacet
  facet normal -1 0 0
    outer loop
      vertex -88.9 -28.4 -15.7
      vertex -88.9 28.4 15.7
      vertex -88.9 28.4 -15.7
    endloop
  endfacet
  facet normal -1 0 0
    outer loop
      vertex -88.9 -28.4 -15.7
      vertex -88.9 -28.4 15.7
      vertex -88.9 28.4 15.7
    endloop
  endfacet
  facet normal 0 -1 0
    outer loop
      vertex 88.9 -28.4 -15.7
      vertex -88.9 -28.4 15.7
      vertex -88.9 -28.4 -15.7
    endloop
  endfacet
  facet normal 0 -1 0
    outer loop
      vertex 88.9 -28.4 -15.7
      vertex 88.9 -28.4 15.7
      vertex -88.9 -28.4 15.7
    endloop
  endfacet
  facet normal 1 0 0
    outer loop
      vertex 88.9 28.4 -15.7
      vertex 88.9 -28.4 15.7
      vertex 88.9 -28.4 -15.7
    endloop
  endfacet
  facet normal 1 0 -0
    outer loop
      vertex 88.9 28.4 -15.7
      vertex 88.9 28.4 15.7
      vertex 88.9 -28.4 15.7
    endloop
  endfacet
  facet normal 0 1 0
    outer loop
      vertex -88.9 28.4 -15.7
      vertex 88.9 28.4 15.7
      vertex 88.9 28.4 -15.7
    endloop
  endfacet
  facet normal 0 1 0
    outer loop
      vertex -88.9 28.4 -15.7
      vertex -88.9 28.4 15.7
      vertex 88.9 28.4 15.7
    endloop
  endfacet
  facet normal 1 0 -0
    outer loop
      vertex -50.8 25.4 -15.7
      vertex -50.8 25.4 15.7
      vertex -50.8 -25.4 -15.7
    endloop
  endfacet
  facet normal 1 -0 0
    outer loop
      vertex -50.8 -25.4 15.7
      vertex -50.8 -25.4 -15.7
      vertex -50.8 25.4 15.7
    endloop
  endfacet
  facet normal 0 -1 0
    outer loop
      vertex 50.8 25.4 -15.7
      vertex 50.8 25.4 15.7
      vertex -50.8 25.4 -15.7
    endloop
  endfacet
  facet normal 0 -1 0
    outer loop
      vertex -50.8 25.4 15.7
      vertex -50.8 25.4 -15.7
      vertex 50.8 25.4 15.7
    endloop
  endfacet
  facet normal -1 0 0
    outer loop
      vertex 50.8 -25.4 -15.7
      vertex 50.8 -25.4 15.7
      vertex 50.8 25.4 -15.7
    endloop
  endfacet
  facet normal -1 -0 -0
    outer loop
      vertex 50.8 25.4 15.7
      vertex 50.8 25.4 -15.7
      vertex 50.8 -25.4 15.7
    endloop
  endfacet
  facet normal 0 1 0
    outer loop
      vertex -50.8 -25.4 -15.7
      vertex -50.8 -25.4 15.7
      vertex 50.8 -25.4 -15.7
    endloop
  endfacet
  facet normal 0 1 0
    outer loop
      vertex 50.8 -25.4 15.7
      vertex 50.8 -25.4 -15.7
      vertex -50.8 -25.4 15.7
    endloop
  endfacet
endsolid OpenSCAD_Model
